<svg width="79" height="79" viewBox="0 0 79 79" fill="none" xmlns="http://www.w3.org/2000/svg">
<path fill-rule="evenodd" clip-rule="evenodd" d="M39.6728 40.3799L73.9314 74.6385L74.6385 73.9314L40.3799 39.6728L74.6385 5.41421L73.9314 4.70711L39.6728 38.9657L4.70713 4L4.00003 4.70711L38.9657 39.6728L4 74.6385L4.70711 75.3456L39.6728 40.3799Z" fill="black"/>
<path d="M73.9314 74.6385L72.1637 76.4063L73.9314 78.174L75.6992 76.4063L73.9314 74.6385ZM39.6728 40.3799L41.4406 38.6121L39.6728 36.8444L37.9051 38.6121L39.6728 40.3799ZM74.6385 73.9314L76.4063 75.6992L78.1741 73.9314L76.4063 72.1636L74.6385 73.9314ZM40.3799 39.6728L38.6122 37.905L36.8444 39.6728L38.6122 41.4406L40.3799 39.6728ZM74.6385 5.41421L76.4063 7.18198L78.174 5.41421L76.4063 3.64645L74.6385 5.41421ZM73.9314 4.70711L75.6992 2.93934L73.9314 1.17157L72.1636 2.93934L73.9314 4.70711ZM39.6728 38.9657L37.9051 40.7335L39.6728 42.5012L41.4406 40.7335L39.6728 38.9657ZM4.70713 4L6.4749 2.23223L4.70713 0.464466L2.93937 2.23223L4.70713 4ZM4.00003 4.70711L2.23226 2.93934L0.464493 4.70711L2.23226 6.47487L4.00003 4.70711ZM38.9657 39.6728L40.7335 41.4406L42.5012 39.6728L40.7335 37.905L38.9657 39.6728ZM4 74.6385L2.23223 72.8707L0.464467 74.6385L2.23223 76.4063L4 74.6385ZM4.70711 75.3456L2.93934 77.1134L4.70711 78.8811L6.47487 77.1134L4.70711 75.3456ZM75.6992 72.8707L41.4406 38.6121L37.9051 42.1477L72.1637 76.4063L75.6992 72.8707ZM72.8708 72.1636L72.1637 72.8707L75.6992 76.4063L76.4063 75.6992L72.8708 72.1636ZM38.6122 41.4406L72.8708 75.6992L76.4063 72.1636L42.1477 37.905L38.6122 41.4406ZM72.8707 3.64645L38.6122 37.905L42.1477 41.4406L76.4063 7.18198L72.8707 3.64645ZM72.1636 6.47487L72.8707 7.18198L76.4063 3.64645L75.6992 2.93934L72.1636 6.47487ZM41.4406 40.7335L75.6992 6.47487L72.1636 2.93934L37.9051 37.1979L41.4406 40.7335ZM2.93937 5.76777L37.9051 40.7335L41.4406 37.1979L6.4749 2.23223L2.93937 5.76777ZM5.76779 6.47487L6.4749 5.76777L2.93937 2.23223L2.23226 2.93934L5.76779 6.47487ZM40.7335 37.905L5.76779 2.93934L2.23226 6.47487L37.1979 41.4406L40.7335 37.905ZM5.76777 76.4063L40.7335 41.4406L37.1979 37.905L2.23223 72.8707L5.76777 76.4063ZM6.47487 73.5778L5.76777 72.8707L2.23223 76.4063L2.93934 77.1134L6.47487 73.5778ZM37.9051 38.6121L2.93934 73.5778L6.47487 77.1134L41.4406 42.1477L37.9051 38.6121Z" fill="white"/>
</svg>
