<svg width="70" height="59" viewBox="0 0 70 59" fill="none" xmlns="http://www.w3.org/2000/svg">
<path d="M0 14.7612C0 10.1064 1.30208 6.56236 3.90625 4.12916C6.51041 1.64307 9.92187 0.400024 14.1406 0.400024C18.3073 0.400024 21.6666 1.64307 24.2187 4.12916C26.8229 6.56236 28.125 10.1064 28.125 14.7612C28.125 19.416 26.8229 22.96 24.2187 25.3932C21.6666 27.8264 18.3073 29.043 14.1406 29.043C9.92187 29.043 6.51041 27.8264 3.90625 25.3932C1.30208 22.96 0 19.416 0 14.7612ZM57.8906 1.19346L28.75 57.6066H12.1875L41.3281 1.19346H57.8906ZM13.9844 10.6353C12.2135 10.6353 11.3281 12.0106 11.3281 14.7612C11.3281 17.4588 12.2135 18.8077 13.9844 18.8077C14.9219 18.8077 15.625 18.4639 16.0937 17.7762C16.6146 17.0886 16.875 16.0836 16.875 14.7612C16.875 13.3859 16.6146 12.3544 16.0937 11.6668C15.625 10.9791 14.9219 10.6353 13.9844 10.6353ZM41.9531 44.0389C41.9531 39.3841 43.2552 35.8401 45.8593 33.4069C48.4635 30.9208 51.849 29.6777 56.0156 29.6777C60.2344 29.6777 63.6198 30.9208 66.1719 33.4069C68.724 35.8401 70 39.3841 70 44.0389C70 48.6937 68.724 52.2641 66.1719 54.7502C63.6198 57.1834 60.2344 58.4 56.0156 58.4C51.849 58.4 48.4635 57.1834 45.8593 54.7502C43.2552 52.2641 41.9531 48.6937 41.9531 44.0389ZM55.9375 39.913C54.1146 39.913 53.2031 41.2883 53.2031 44.0389C53.2031 46.7894 54.1146 48.1647 55.9375 48.1647C56.8229 48.1647 57.5 47.8209 57.9688 47.1333C58.4896 46.4456 58.75 45.4142 58.75 44.0389C58.75 42.7165 58.4896 41.7115 57.9688 41.0238C57.5 40.2833 56.8229 39.913 55.9375 39.913Z" fill="#FF8300"/>
</svg>
