<svg width="148" height="38" viewBox="0 0 148 38" fill="none" xmlns="http://www.w3.org/2000/svg">
<g filter="url(#filter0_d)">
<g filter="url(#filter1_d)">
<path d="M85.2298 5.46519L85.3314 6.73616C86.1355 5.71938 87.1978 5.21099 88.5183 5.21099C89.8895 5.21099 90.8587 5.82953 91.4258 7.06661C92.213 5.82953 93.3346 5.21099 94.7905 5.21099C97.1944 5.21099 98.426 6.87597 98.4852 10.2059V19.2171H94.892V10.4347C94.892 9.63822 94.782 9.07051 94.5619 8.73159C94.3418 8.39266 93.9694 8.2232 93.4446 8.2232C92.7759 8.2232 92.2765 8.63415 91.9464 9.45604L91.9718 9.88817V19.2171H88.3786V10.4601C88.3786 9.67211 88.2728 9.10441 88.0612 8.75701C87.8496 8.40114 87.4729 8.2232 86.9312 8.2232C86.3133 8.2232 85.8223 8.55789 85.4583 9.22727V19.2171H81.8652V5.46519H85.2298Z" fill="white"/>
<path d="M107.847 17.9589C107.102 18.9672 106.103 19.4713 104.85 19.4713C103.589 19.4713 102.633 19.0392 101.981 18.1749C101.329 17.3022 101.003 16.0354 101.003 14.3747V5.46519H104.596V14.4637C104.613 15.8024 105.058 16.4718 105.929 16.4718C106.75 16.4718 107.343 16.1159 107.707 15.4042V5.46519H111.326V19.2171H107.948L107.847 17.9589Z" fill="white"/>
<path d="M119.912 15.5313C119.912 15.2263 119.764 14.9466 119.468 14.6925C119.18 14.4298 118.533 14.0781 117.526 13.6375C116.044 13.036 115.024 12.4132 114.466 11.7692C113.915 11.1253 113.64 10.3245 113.64 9.36707C113.64 8.16389 114.072 7.17253 114.935 6.393C115.807 5.60499 116.958 5.21099 118.389 5.21099C119.896 5.21099 121.102 5.60076 122.007 6.38029C122.913 7.15982 123.366 8.20625 123.366 9.51959H119.773C119.773 8.40113 119.307 7.84191 118.376 7.84191C117.995 7.84191 117.682 7.96053 117.437 8.19778C117.191 8.43503 117.068 8.76548 117.068 9.18914C117.068 9.49417 117.204 9.76531 117.475 10.0026C117.746 10.2313 118.385 10.5618 119.392 10.9939C120.856 11.5362 121.889 12.142 122.49 12.8114C123.099 13.4723 123.404 14.3323 123.404 15.3915C123.404 16.6201 122.943 17.6072 122.02 18.3529C121.098 19.0985 119.887 19.4713 118.389 19.4713C117.382 19.4713 116.493 19.2764 115.723 18.8867C114.952 18.4884 114.347 17.9377 113.907 17.2344C113.475 16.5311 113.259 15.7728 113.259 14.9594H116.675C116.692 15.5864 116.836 16.0566 117.107 16.3701C117.386 16.6836 117.839 16.8404 118.465 16.8404C119.43 16.8404 119.912 16.404 119.912 15.5313Z" fill="white"/>
<path d="M129.35 19.2171H125.744V5.46519H129.35V12.3412V19.2171ZM125.579 1.90646C125.579 1.34723 125.757 0.889681 126.112 0.533809C126.468 0.177936 126.942 0 127.534 0C128.127 0 128.601 0.177936 128.957 0.533809C129.312 0.889681 129.49 1.34723 129.49 1.90646C129.49 2.45722 129.312 2.91477 128.957 3.27911C128.609 3.64346 128.135 3.82563 127.534 3.82563C126.933 3.82563 126.455 3.64346 126.1 3.27911C125.753 2.91477 125.579 2.45722 125.579 1.90646Z" fill="white"/>
<path d="M137.036 16.4845C138.077 16.4845 138.606 15.8067 138.623 14.451H142C141.983 15.9507 141.522 17.1624 140.616 18.086C139.71 19.0095 138.542 19.4713 137.112 19.4713C135.343 19.4713 133.993 18.9206 133.061 17.819C132.13 16.7175 131.656 15.0949 131.639 12.9512V11.8582C131.639 9.69753 132.097 8.0495 133.011 6.9141C133.933 5.77869 135.292 5.21099 137.086 5.21099C138.602 5.21099 139.795 5.68125 140.667 6.62177C141.539 7.55382 141.983 8.87987 142 10.5999H138.623C138.614 9.82886 138.487 9.23574 138.242 8.82056C137.996 8.40537 137.59 8.19778 137.023 8.19778C136.396 8.19778 135.948 8.42232 135.677 8.8714C135.406 9.312 135.262 10.172 135.245 11.4515V12.8495C135.245 13.968 135.3 14.7518 135.41 15.2008C135.52 15.6414 135.702 15.9677 135.956 16.1795C136.21 16.3828 136.57 16.4845 137.036 16.4845Z" fill="white"/>
</g>
<g filter="url(#filter2_d)">
<path d="M6.9245 19.2157C6.82285 19.0039 6.72121 18.6482 6.61956 18.1484C5.97582 19.0293 5.10337 19.4698 4.00223 19.4698C2.85027 19.4698 1.89312 19.0886 1.13079 18.3263C0.37693 17.564 0 16.5772 0 15.3659C0 13.926 0.457398 12.8121 1.37219 12.0244C2.29546 11.2366 3.62107 10.8343 5.34901 10.8174H6.44169V9.71198C6.44169 9.09364 6.33581 8.65742 6.12405 8.40331C5.91229 8.1492 5.60312 8.02215 5.19655 8.02215C4.29869 8.02215 3.84977 8.54731 3.84977 9.59763H0.25411C0.25411 8.32708 0.728448 7.28099 1.67713 6.45937C2.63427 5.62928 3.84129 5.21423 5.29819 5.21423C6.80591 5.21423 7.97058 5.6081 8.7922 6.39584C9.6223 7.17511 10.0373 8.2932 10.0373 9.7501V16.2172C10.0543 17.403 10.2237 18.3305 10.5456 18.9997V19.2157H6.9245ZM4.80268 16.6492C5.20078 16.6492 5.5396 16.5687 5.81912 16.4078C6.09864 16.2468 6.30616 16.0563 6.44169 15.836V12.9773H5.57771C4.96785 12.9773 4.48504 13.1721 4.12929 13.5617C3.782 13.9514 3.60836 14.4723 3.60836 15.1245C3.60836 16.141 4.00647 16.6492 4.80268 16.6492Z" fill="white"/>
<path d="M15.7614 5.46834L15.8631 6.73889C16.6677 5.72245 17.7308 5.21423 19.0521 5.21423C20.4243 5.21423 21.3942 5.83257 21.9617 7.06924C22.7494 5.83257 23.8718 5.21423 25.3287 5.21423C27.7342 5.21423 28.9667 6.87865 29.026 10.2075V19.2157H25.4303V10.4362C25.4303 9.63998 25.3202 9.07247 25.1 8.73366C24.8797 8.39484 24.507 8.22544 23.9819 8.22544C23.3127 8.22544 22.813 8.63625 22.4826 9.45787L22.508 9.88986V19.2157H18.9124V10.4616C18.9124 9.67386 18.8065 9.10635 18.5947 8.75907C18.383 8.40331 18.0061 8.22544 17.464 8.22544C16.8456 8.22544 16.3543 8.56001 15.9901 9.22917V19.2157H12.3945V5.46834H15.7614Z" fill="white"/>
<path d="M37.9645 19.2157C37.8629 19.0039 37.7612 18.6482 37.6596 18.1484C37.0159 19.0293 36.1434 19.4698 35.0423 19.4698C33.8903 19.4698 32.9332 19.0886 32.1708 18.3263C31.417 17.564 31.04 16.5772 31.04 15.3659C31.04 13.926 31.4974 12.8121 32.4122 12.0244C33.3355 11.2366 34.6611 10.8343 36.389 10.8174H37.4817V9.71198C37.4817 9.09364 37.3758 8.65742 37.1641 8.40331C36.9523 8.1492 36.6432 8.02215 36.2366 8.02215C35.3387 8.02215 34.8898 8.54731 34.8898 9.59763H31.2941C31.2941 8.32708 31.7685 7.28099 32.7172 6.45937C33.6743 5.62928 34.8813 5.21423 36.3382 5.21423C37.8459 5.21423 39.0106 5.6081 39.8322 6.39584C40.6623 7.17511 41.0774 8.2932 41.0774 9.7501V16.2172C41.0943 17.403 41.2637 18.3305 41.5856 18.9997V19.2157H37.9645ZM35.8427 16.6492C36.2408 16.6492 36.5796 16.5687 36.8591 16.4078C37.1387 16.2468 37.3462 16.0563 37.4817 15.836V12.9773H36.6177C36.0079 12.9773 35.5251 13.1721 35.1693 13.5617C34.822 13.9514 34.6484 14.4723 34.6484 15.1245C34.6484 16.141 35.0465 16.6492 35.8427 16.6492Z" fill="white"/>
<path d="M47.3224 15.4349H49.0137L50.4805 15.6226L52.7603 16.3313V19.2157L51.5213 18.6316L50.4805 18.1484L49.4396 18.0349H48.3988H47.3224H46.2363L44.7559 18.3263L43.0533 19.2157V16.9668L48.3642 8.46684H43.1804V5.46834H52.6841V7.64098L47.3224 15.4349Z" fill="white"/>
<path d="M54.3297 11.8973C54.3297 9.81362 54.821 8.17885 55.8036 6.993C56.7861 5.80716 58.1456 5.21423 59.882 5.21423C61.6354 5.21423 63.0033 5.80716 63.9859 6.993C64.9685 8.17885 65.4597 9.82209 65.4597 11.9227V12.7994C65.4597 14.8916 64.9727 16.5264 63.9986 17.7037C63.0245 18.8811 61.6608 19.4698 59.9074 19.4698C58.1456 19.4698 56.7734 18.8811 55.7908 17.7037C54.8168 16.5179 54.3297 14.8746 54.3297 12.774V11.8973ZM57.9381 12.7994C57.9381 15.2558 58.5945 16.484 59.9074 16.484C61.1187 16.484 61.7709 15.4591 61.8641 13.4093L61.8768 11.8973C61.8768 10.6437 61.7031 9.71621 61.3559 9.11482C61.0086 8.50496 60.5173 8.20002 59.882 8.20002C59.2722 8.20002 58.7936 8.50496 58.4463 9.11482C58.1075 9.71621 57.9381 10.6437 57.9381 11.8973V12.7994Z" fill="white"/>
<path d="M70.7391 5.46834L70.8408 6.82783C71.6539 5.7521 72.7169 5.21423 74.0298 5.21423C76.3931 5.21423 77.6086 6.87018 77.6763 10.1821V19.2157H74.068V10.4489C74.068 9.66963 73.9494 9.10635 73.7122 8.75907C73.4835 8.40331 73.0769 8.22544 72.4925 8.22544C71.8403 8.22544 71.332 8.56001 70.9678 9.22917V19.2157H67.3595V5.46834H70.7391Z" fill="white"/>
<path d="M46.8806 22.5019C47.0798 24.0184 40.0258 27.4368 30.9273 28.632C21.8289 29.8271 9.5887 22.1156 9.3895 20.5992C9.19031 19.0828 21.9092 26.8465 31.0076 25.6513C40.1061 24.4562 46.6814 20.9855 46.8806 22.5019Z" fill="white"/>
<path d="M47.3968 26.054C46.0457 27.1257 50.0807 22.757 47.8783 20.9251C45.952 19.3228 42.0195 21.4444 43.3705 20.3728C44.7216 19.3011 46.3221 18.7122 49.5701 19.4572C50.6107 23.6126 48.6038 25.0966 47.3968 26.054Z" fill="white"/>
</g>
</g>
<defs>
<filter id="filter0_d" x="0" y="0" width="148" height="37.2769" filterUnits="userSpaceOnUse" color-interpolation-filters="sRGB">
<feFlood flood-opacity="0" result="BackgroundImageFix"/>
<feColorMatrix in="SourceAlpha" type="matrix" values="0 0 0 0 0 0 0 0 0 0 0 0 0 0 0 0 0 0 127 0"/>
<feOffset dx="3" dy="3"/>
<feGaussianBlur stdDeviation="1.5"/>
<feColorMatrix type="matrix" values="0 0 0 0 0 0 0 0 0 0 0 0 0 0 0 0 0 0 0.01 0"/>
<feBlend mode="normal" in2="BackgroundImageFix" result="effect1_dropShadow"/>
<feBlend mode="normal" in="SourceGraphic" in2="effect1_dropShadow" result="shape"/>
</filter>
<filter id="filter1_d" x="81.8652" y="0" width="66.1348" height="25.4713" filterUnits="userSpaceOnUse" color-interpolation-filters="sRGB">
<feFlood flood-opacity="0" result="BackgroundImageFix"/>
<feColorMatrix in="SourceAlpha" type="matrix" values="0 0 0 0 0 0 0 0 0 0 0 0 0 0 0 0 0 0 127 0"/>
<feOffset dx="3" dy="3"/>
<feGaussianBlur stdDeviation="1.5"/>
<feColorMatrix type="matrix" values="0 0 0 0 0 0 0 0 0 0 0 0 0 0 0 0 0 0 0.3 0"/>
<feBlend mode="normal" in2="BackgroundImageFix" result="effect1_dropShadow"/>
<feBlend mode="normal" in="SourceGraphic" in2="effect1_dropShadow" result="shape"/>
</filter>
<filter id="filter2_d" x="0" y="5.21423" width="83.6763" height="32.0627" filterUnits="userSpaceOnUse" color-interpolation-filters="sRGB">
<feFlood flood-opacity="0" result="BackgroundImageFix"/>
<feColorMatrix in="SourceAlpha" type="matrix" values="0 0 0 0 0 0 0 0 0 0 0 0 0 0 0 0 0 0 127 0"/>
<feOffset dx="3" dy="3"/>
<feGaussianBlur stdDeviation="1.5"/>
<feColorMatrix type="matrix" values="0 0 0 0 0 0 0 0 0 0 0 0 0 0 0 0 0 0 0.3 0"/>
<feBlend mode="normal" in2="BackgroundImageFix" result="effect1_dropShadow"/>
<feBlend mode="normal" in="SourceGraphic" in2="effect1_dropShadow" result="shape"/>
</filter>
</defs>
</svg>
