<svg width="40" height="40" viewBox="0 0 40 40" fill="none" xmlns="http://www.w3.org/2000/svg">
<path d="M37.8161 37.8359L36.9062 38.7376L37.8161 39.6393L38.7261 38.7376L37.8161 37.8359ZM20.182 20.3607L21.0919 19.4589L20.182 18.5573L19.2721 19.4589L20.182 20.3607ZM38.1801 37.4752L39.09 38.3769L40 37.4752L39.09 36.5734L38.1801 37.4752ZM20.5459 20L19.636 19.0983L18.7261 20L19.636 20.9018L20.5459 20ZM38.1801 2.52484L39.09 3.42658L40 2.52484L39.09 1.62312L38.1801 2.52484ZM37.8161 2.16416L38.7261 1.26242L37.8161 0.360691L36.9062 1.26242L37.8161 2.16416ZM20.182 19.6393L19.2721 20.5411L20.182 21.4428L21.0919 20.5411L20.182 19.6393ZM2.18385 1.80346L3.09379 0.901729L2.18385 0L1.27392 0.901729L2.18385 1.80346ZM1.81988 2.16416L0.909948 1.26242L1.33921e-05 2.16416L0.909948 3.06588L1.81988 2.16416ZM19.818 20L20.728 20.9018L21.6379 20L20.728 19.0983L19.818 20ZM1.81987 37.8359L0.909932 36.9341L0 37.8359L0.909932 38.7376L1.81987 37.8359ZM2.18384 38.1966L1.27391 39.0983L2.18384 40L3.09378 39.0983L2.18384 38.1966ZM38.7261 36.9341L21.0919 19.4589L19.2721 21.2624L36.9062 38.7376L38.7261 36.9341ZM37.2702 36.5734L36.9062 36.9341L38.7261 38.7376L39.09 38.3769L37.2702 36.5734ZM19.636 20.9018L37.2702 38.3769L39.09 36.5734L21.4559 19.0983L19.636 20.9018ZM37.2701 1.62312L19.636 19.0983L21.4559 20.9018L39.09 3.42658L37.2701 1.62312ZM36.9062 3.06588L37.2701 3.42658L39.09 1.62312L38.7261 1.26242L36.9062 3.06588ZM21.0919 20.5411L38.7261 3.06588L36.9062 1.26242L19.2721 18.7376L21.0919 20.5411ZM1.27392 2.70519L19.2721 20.5411L21.0919 18.7376L3.09379 0.901729L1.27392 2.70519ZM2.72982 3.06588L3.09379 2.70519L1.27392 0.901729L0.909948 1.26242L2.72982 3.06588ZM20.728 19.0983L2.72982 1.26242L0.909948 3.06588L18.908 20.9018L20.728 19.0983ZM2.7298 38.7376L20.728 20.9018L18.908 19.0983L0.909932 36.9341L2.7298 38.7376ZM3.09378 37.2948L2.7298 36.9341L0.909932 38.7376L1.27391 39.0983L3.09378 37.2948ZM19.2721 19.4589L1.27391 37.2948L3.09378 39.0983L21.0919 21.2624L19.2721 19.4589Z" fill="#777777"/>
</svg>
