<svg width="32" height="35" viewBox="0 0 32 35" fill="none" xmlns="http://www.w3.org/2000/svg">
<path d="M32 17.0667C32 7.641 24.8366 0 16 0C7.16344 0 0 7.641 0 17.0667C0 25.5851 5.85097 32.6457 13.5 33.926V22H9.4375V17.0667H13.5V13.3067C13.5 9.02933 15.8887 6.66667 19.5434 6.66667C21.294 6.66667 23.125 7 23.125 7V11.2H21.1074C19.1198 11.2 18.5 12.5156 18.5 13.8652V17.0667H22.9375L22.2281 22H18.5V33.926C26.149 32.6457 32 25.5851 32 17.0667Z" fill="#1877F2"/>
<path d="M22.2281 22L22.9375 17.0666H18.5V13.8652C18.5 12.5155 19.1198 11.2 21.1074 11.2H23.125V6.99996C23.125 6.99996 21.294 6.66663 19.5434 6.66663C15.8887 6.66663 13.5 9.02929 13.5 13.3066V17.0666H9.4375V22H13.5V33.926C14.3146 34.0623 15.1495 34.1333 16 34.1333C16.8505 34.1333 17.6854 34.0623 18.5 33.926V22H22.2281Z" fill="white"/>
</svg>
