<svg width="32" height="33" viewBox="0 0 32 33" fill="none" xmlns="http://www.w3.org/2000/svg">
<path d="M10.9937 0.893232C7.01768 2.25369 3.62971 5.22913 1.74262 8.99452C1.08434 10.2935 0.610374 11.6715 0.320728 13.1022C-0.398996 16.6482 0.1013 20.4311 1.73385 23.6611C2.79588 25.7676 4.3231 27.6459 6.1663 29.1117C7.91295 30.4985 9.94047 31.5342 12.0996 32.1047C14.8206 32.8332 17.717 32.8157 20.4555 32.1925C22.9306 31.622 25.2741 30.4371 27.1436 28.7167C29.1185 26.8999 30.5316 24.5125 31.2777 21.9408C32.0939 19.1409 32.1993 16.1479 31.6902 13.269C26.5731 13.269 21.4473 13.269 16.3302 13.269C16.3302 15.3931 16.3302 17.5171 16.3302 19.6412C19.2969 19.6412 22.2636 19.6412 25.2302 19.6412C24.8879 21.6775 23.6767 23.5382 21.9651 24.688C20.8855 25.4165 19.648 25.8817 18.3665 26.1099C17.0851 26.3294 15.7509 26.3557 14.4695 26.1012C13.1617 25.8378 11.9241 25.2937 10.8357 24.53C9.09786 23.31 7.77251 21.5283 7.09667 19.5183C6.40328 17.4732 6.3945 15.2 7.09667 13.1637C7.58819 11.7242 8.39569 10.3989 9.4665 9.3105C10.7831 7.95882 12.4946 6.99334 14.3466 6.59837C15.9265 6.26484 17.5941 6.32628 19.1389 6.79146C20.4555 7.18644 21.6667 7.91494 22.6585 8.86287C23.6591 7.86227 24.6597 6.86168 25.6603 5.86109C26.1869 5.32568 26.7399 4.80783 27.249 4.25487C25.7305 2.85053 23.94 1.71828 21.9915 0.998557C18.4806 -0.300458 14.5309 -0.32679 10.9937 0.893232Z" fill="white"/>
<path d="M10.9936 0.893637C14.5221 -0.326384 18.4805 -0.300053 21.9914 0.990186C23.9399 1.70991 25.7217 2.83338 27.2489 4.2465C26.7398 4.79946 26.1869 5.31731 25.6602 5.85272C24.6596 6.85331 23.659 7.8539 22.6585 8.8545C21.6666 7.90657 20.4554 7.18684 19.1388 6.78309C17.5941 6.31791 15.9264 6.24769 14.3465 6.59C12.5033 6.98497 10.7918 7.95045 9.46643 9.30213C8.39562 10.3817 7.58812 11.7158 7.0966 13.1553C5.31485 11.7685 3.53309 10.3905 1.74255 9.00371C3.62964 5.22954 7.01761 2.25409 10.9936 0.893637Z" fill="#EA4335"/>
<path d="M0.329298 13.0935C0.618943 11.6716 1.09291 10.2849 1.75119 8.98584C3.53295 10.3726 5.31471 11.7506 7.10524 13.1374C6.40307 15.1825 6.40307 17.4558 7.10524 19.4921C5.32349 20.8789 3.54173 22.2656 1.75997 23.6436C0.10987 20.4224 -0.390427 16.6395 0.329298 13.0935Z" fill="#FBBC05"/>
<path d="M16.3298 13.2609C21.4469 13.2609 26.5727 13.2609 31.6898 13.2609C32.1989 16.131 32.0848 19.124 31.2773 21.9327C30.5312 24.5044 29.1181 26.8918 27.1432 28.7086C25.4142 27.3657 23.6851 26.0228 21.956 24.6799C23.6675 23.5301 24.8787 21.6694 25.2211 19.6331C22.2544 19.6331 19.2877 19.6331 16.321 19.6331C16.3298 17.509 16.3298 15.3849 16.3298 13.2609Z" fill="#4285F4"/>
<path d="M1.74255 23.6524C3.52431 22.2744 5.30607 20.8876 7.08783 19.5009C7.77244 21.5108 9.08901 23.2926 10.8269 24.5126C11.9152 25.2762 13.1616 25.8204 14.4606 26.0837C15.7421 26.347 17.0674 26.3119 18.3577 26.0925C19.6391 25.8643 20.8767 25.3991 21.9563 24.6706C23.6854 26.0135 25.4145 27.3564 27.1436 28.6993C25.274 30.4284 22.9305 31.6045 20.4554 32.175C17.7169 32.7982 14.8205 32.8158 12.0996 32.0873C9.94039 31.5167 7.91288 30.4898 6.16623 29.0943C4.33181 27.6373 2.80459 25.7589 1.74255 23.6524Z" fill="#34A853"/>
</svg>
