<svg width="201" height="1556" viewBox="0 0 201 1556" fill="none" xmlns="http://www.w3.org/2000/svg">
<path d="M82.9063 1375.13C92.5629 1387.58 90.3438 1405.47 77.9498 1415.08C65.5558 1424.69 47.6803 1422.38 38.0237 1409.93C25.9385 1395.72 37.3923 1355.89 45.7852 1346.06C59.9477 1352.4 73.2498 1362.67 82.9063 1375.13Z" fill="#65B395" fill-opacity="0.08"/>
<path d="M72.9063 36.1252C82.5629 48.5789 80.3438 66.4653 67.9498 76.0755C55.5558 85.6858 37.6803 83.3807 28.0237 70.927C15.9385 56.7177 27.3923 16.8875 35.7852 7.06373C49.9477 13.3988 63.2498 23.6714 72.9063 36.1252Z" fill="#65B395" fill-opacity="0.08"/>
<path d="M87.8648 1440.4C99.1945 1414.77 129.052 1403.14 154.553 1414.42C180.054 1425.69 191.542 1455.6 180.213 1481.23C168.187 1512.13 96.2004 1527.85 73.7439 1523.01C71.696 1495.51 76.535 1466.02 87.8648 1440.4Z" fill="#DCD7E2" fill-opacity="0.15"/>
</svg>
