<svg width="32" height="32" viewBox="0 0 32 32" fill="none" xmlns="http://www.w3.org/2000/svg">
<path d="M16 32C24.8366 32 32 24.8366 32 16C32 7.16344 24.8366 0 16 0C7.16344 0 0 7.16344 0 16C0 24.8366 7.16344 32 16 32Z" fill="#1DA1F2"/>
<path d="M13.0719 24.44C20.1679 24.44 24.0479 18.56 24.0479 13.464C24.0479 13.296 24.0479 13.128 24.0399 12.968C24.7919 12.424 25.4479 11.744 25.9679 10.968C25.2799 11.272 24.5359 11.48 23.7519 11.576C24.5519 11.096 25.1599 10.344 25.4479 9.44003C24.7039 9.88003 23.8799 10.2 22.9999 10.376C22.2959 9.62403 21.2959 9.16003 20.1839 9.16003C18.0559 9.16003 16.3279 10.888 16.3279 13.016C16.3279 13.32 16.3599 13.616 16.4319 13.896C13.2239 13.736 10.3839 12.2 8.4799 9.86403C8.1519 10.432 7.9599 11.096 7.9599 11.8C7.9599 13.136 8.6399 14.32 9.6799 15.008C9.0479 14.992 8.4559 14.816 7.9359 14.528C7.9359 14.544 7.9359 14.56 7.9359 14.576C7.9359 16.448 9.2639 18 11.0319 18.36C10.7119 18.448 10.3679 18.496 10.0159 18.496C9.7679 18.496 9.5279 18.472 9.2879 18.424C9.7759 19.96 11.1999 21.072 12.8879 21.104C11.5679 22.136 9.9039 22.752 8.0959 22.752C7.7839 22.752 7.4799 22.736 7.1759 22.696C8.8639 23.8 10.8959 24.44 13.0719 24.44Z" fill="white"/>
</svg>
