<svg width="800" height="100" viewBox="0 0 800 100" fill="none" xmlns="http://www.w3.org/2000/svg">
<rect width="800" height="100" fill="#004483"/>
<path fill-rule="evenodd" clip-rule="evenodd" d="M625.774 56.413C628.835 56.9169 631.641 57.4208 634.447 57.9247V82.8675H644.14V92.4416H650.007V98.2364H652.558V94.2052H656.64V98.2364H657.66V88.6623H660.976V85.639H667.353V98.2364H668.374V73.5455H677.302V85.639H679.853V88.6623H683.169V98.2364H684.189V94.2052H688.526V98.2364H690.822V92.4416H696.689V82.8675H706.382V57.9247C709.188 57.4208 711.994 56.9169 715.055 56.413C717.861 56.9169 720.667 57.4208 723.728 57.9247V82.6156H726.024V86.3948H727.299V57.9247L729.85 57.4208V32.226C730.616 32.226 731.126 31.974 731.891 31.7221C731.891 30.9662 731.891 30.2104 731.891 29.2026C731.891 28.1948 732.401 26.6831 733.677 26.4312L735.207 25.9273V19.6286C735.207 19.3766 735.207 19.3766 735.462 19.3766C735.462 19.3766 735.717 19.3766 735.717 19.6286V25.9273L737.248 26.4312C738.268 26.6831 739.034 28.1948 739.034 29.2026C739.034 30.2104 739.034 30.9662 739.034 31.7221C739.799 31.974 740.309 32.226 741.074 32.226V57.4208L743.625 57.9247V79.3403H752.298V49.3584C755.359 48.8545 758.165 48.0987 760.971 47.5948C764.032 48.0987 766.838 48.8545 769.644 49.3584V84.6312H773.216V49.3584L776.022 48.8545V18.6208C776.532 18.3688 777.297 18.1169 777.807 18.1169C777.807 17.1091 777.807 15.8494 777.807 14.8416C777.807 13.5818 778.572 11.8182 779.848 11.3143L781.378 11.0623V3.25195C781.378 3 781.378 3 781.378 3C781.634 3 781.634 3 781.634 3.25195V11.0623L783.164 11.3143C784.44 11.8182 785.205 13.5818 785.205 14.8416C785.205 15.8494 785.205 17.1091 785.205 18.1169C785.715 18.1169 786.48 18.3688 786.99 18.6208V48.8545L789.796 49.3584V79.0883H792.602V97.9844H793.623V85.387H797.959V97.9844H800V100H753.829H716.586H670.414H587V98.2364H589.041V87.9065H593.377V98.2364H594.143V82.6156H597.204V57.9247L599.754 57.4208V32.226C600.52 32.226 601.03 31.974 601.795 31.7221C601.795 30.9662 601.795 30.2104 601.795 29.2026C601.795 28.1948 602.56 26.6831 603.581 26.4312L605.111 25.9273V19.6286C605.111 19.3766 605.366 19.3766 605.366 19.3766C605.622 19.3766 605.622 19.3766 605.622 19.6286V25.9273L607.152 26.4312C608.428 26.6831 609.193 28.1948 609.193 29.2026C609.193 30.2104 609.193 30.9662 609.193 31.7221C609.703 31.974 610.468 32.226 610.978 32.226V57.4208L613.529 57.9247V87.1507H617.101V57.9247C620.162 57.4208 622.968 56.9169 625.774 56.413ZM740.564 90.9299H739.799V90.6779H740.564V90.9299ZM738.523 90.9299H736.993V91.9377L735.972 91.6857C735.972 91.4338 735.972 90.9299 735.972 90.6779C736.993 90.6779 737.758 90.6779 738.523 90.6779V90.9299ZM730.36 93.4494V94.7091H730.105V93.4494H730.36ZM730.36 96.2208V97.4805H730.105V96.2208H730.36ZM729.085 87.1507V86.3948H728.575V86.1429C730.36 85.8909 732.401 85.8909 734.442 85.639C734.442 86.1429 734.442 86.6468 734.442 86.8987L730.105 87.1507H729.085ZM719.392 83.6234V84.6312H716.075C716.075 84.1273 716.075 83.6234 716.075 83.3714L719.392 83.6234ZM719.392 85.8909V87.1507L716.075 86.8987C716.075 86.6468 716.075 86.1429 716.075 85.639L719.392 85.8909ZM719.392 88.6623V89.6701H717.096C717.096 89.1662 717.096 88.9143 717.096 88.4104L719.392 88.6623ZM719.392 93.4494V94.7091H718.626V93.4494H719.392ZM779.848 95.4649V96.7247H777.807C777.807 96.2208 777.807 95.9688 777.807 95.4649H779.848ZM756.125 92.1896V93.4494L754.849 93.7013V92.1896H756.125ZM756.125 95.4649V96.7247H754.849V95.4649H756.125ZM764.798 96.7247V95.4649H765.053C765.053 95.9688 765.053 96.2208 765.053 96.7247H764.798ZM764.798 93.4494V92.1896H767.604V93.7013L764.798 93.4494ZM786.735 80.3481V81.8597L782.654 81.3558C782.654 80.852 782.654 80.3481 782.654 80.0961L786.735 80.3481ZM786.735 83.1195V84.6312L782.654 84.3792C782.654 83.8753 782.654 83.3714 782.654 82.8675L786.735 83.1195ZM786.735 86.3948V87.6545H783.419C783.419 87.1507 783.419 86.6468 783.419 86.1429L786.735 86.3948ZM786.735 88.9143V90.426L785.97 90.174C785.97 89.9221 785.97 89.4182 785.97 88.9143H786.735ZM776.022 84.6312H774.491V83.3714C776.532 83.1195 778.572 83.1195 780.358 82.8675C780.358 83.3714 780.358 83.8753 780.358 84.3792L776.022 84.6312ZM768.369 84.6312H767.604L762.247 84.3792C762.247 83.8753 762.247 83.3714 762.247 82.8675C764.287 83.1195 766.328 83.1195 768.369 83.3714V84.6312ZM767.604 86.3948V87.9065L763.267 87.6545C763.267 87.1507 763.267 86.6468 763.267 86.1429L767.604 86.3948ZM767.604 88.9143V90.426L765.818 90.174C765.818 89.9221 765.818 89.4182 765.818 88.9143H767.604ZM767.604 95.4649V96.9766L765.818 96.7247C765.818 96.4727 765.818 95.9688 765.818 95.4649H767.604ZM776.022 96.7247V95.4649H777.042C777.042 95.9688 777.042 96.4727 777.042 96.7247H776.022ZM776.022 93.7013V92.1896L779.593 91.9377C779.593 92.4416 779.593 92.9455 779.593 93.4494L776.022 93.7013ZM776.022 90.426V88.9143H777.042C777.042 89.4182 777.042 89.9221 777.042 90.174L776.022 90.426ZM776.022 87.6545V86.3948L779.338 86.1429C779.338 86.6468 779.593 87.1507 779.593 87.6545H776.022ZM754.849 90.426V88.9143H756.38C756.38 89.4182 756.38 89.9221 756.38 90.174L754.849 90.426ZM754.849 87.9065V86.3948L758.931 86.1429C758.931 86.6468 758.931 87.1507 758.931 87.6545L754.849 87.9065ZM754.849 84.6312V83.1195L759.951 82.8675C759.951 83.3714 759.951 83.8753 759.951 84.3792L754.849 84.6312ZM754.849 81.8597V80.3481L759.951 80.0961C759.951 80.3481 759.951 80.852 759.951 81.3558L754.849 81.8597ZM780.358 47.8468L777.042 48.6026V47.0909C778.317 47.0909 779.338 47.0909 780.358 47.0909V47.8468ZM785.97 48.6026L782.654 47.8468V47.0909C783.674 47.0909 784.695 47.0909 785.97 47.0909V48.6026ZM781.378 15.3455C780.868 15.5974 780.103 15.8494 779.593 15.8494C779.593 15.5974 779.593 15.3455 779.593 15.0935C780.103 14.8416 780.868 14.5896 781.378 14.5896C782.144 14.5896 782.909 14.8416 783.419 15.0935C783.419 15.3455 783.419 15.5974 783.419 15.8494C782.909 15.8494 782.144 15.5974 781.378 15.3455ZM781.378 13.0779C780.868 13.3299 780.103 13.5818 779.593 13.8338C779.593 13.5818 779.593 13.5818 779.593 13.3299C780.103 13.0779 780.868 13.0779 781.378 12.826C782.144 13.0779 782.909 13.0779 783.419 13.3299C783.419 13.5818 783.419 13.5818 783.419 13.8338C782.909 13.5818 782.144 13.3299 781.378 13.0779ZM782.654 43.0597C783.674 43.0597 784.695 43.3117 785.97 43.3117C785.97 43.8156 785.97 44.3195 785.97 44.8234C784.695 44.5714 783.674 44.5714 782.654 44.5714C782.654 44.0675 782.654 43.5636 782.654 43.0597ZM782.654 39.0286C783.674 39.2805 784.695 39.2805 785.97 39.5325C785.97 40.0364 785.97 40.2883 785.97 40.7922C784.695 40.7922 783.674 40.5403 782.654 40.5403C782.654 40.0364 782.654 39.5325 782.654 39.0286ZM782.654 35.2494C783.674 35.2494 784.695 35.5013 785.97 35.5013C785.97 36.0052 785.97 36.5091 785.97 37.013C784.695 36.761 783.674 36.761 782.654 36.5091C782.654 36.0052 782.654 35.5013 782.654 35.2494ZM782.654 31.2182C783.674 31.4701 784.695 31.4701 785.97 31.7221C785.97 32.226 785.97 32.7299 785.97 33.2338C784.695 32.9818 783.674 32.7299 782.654 32.7299C782.654 32.226 782.654 31.7221 782.654 31.2182ZM782.654 27.187C783.674 27.439 784.695 27.6909 785.97 27.9429C785.97 28.4468 785.97 28.6987 785.97 29.2026C784.695 28.9507 783.674 28.9507 782.654 28.6987C782.654 28.1948 782.654 27.6909 782.654 27.187ZM782.654 23.1558C783.674 23.4078 784.695 23.6597 785.97 23.9117C785.97 24.4156 785.97 24.9195 785.97 25.4234C784.695 25.1714 783.674 24.9195 782.654 24.6675C782.654 24.1636 782.654 23.6597 782.654 23.1558ZM782.654 19.3766C783.674 19.6286 784.695 19.8805 785.97 20.1325C785.97 20.6364 785.97 21.1403 785.97 21.6442C784.695 21.3922 783.674 20.8883 782.654 20.6364C782.654 20.3844 782.654 19.8805 782.654 19.3766ZM780.358 43.0597C779.338 43.0597 778.317 43.3117 777.042 43.3117C777.042 43.8156 777.042 44.3195 777.042 44.8234C778.317 44.5714 779.338 44.5714 780.358 44.5714C780.358 44.0675 780.358 43.5636 780.358 43.0597ZM780.358 39.0286C779.338 39.2805 778.317 39.2805 777.042 39.5325C777.042 40.0364 777.042 40.2883 777.042 40.7922C778.317 40.7922 779.338 40.5403 780.358 40.5403C780.358 40.0364 780.358 39.5325 780.358 39.0286ZM780.358 35.2494C779.338 35.2494 778.317 35.5013 777.042 35.5013C777.042 36.0052 777.042 36.5091 777.042 37.013C778.317 36.761 779.338 36.761 780.358 36.5091C780.358 36.0052 780.358 35.5013 780.358 35.2494ZM780.358 31.2182C779.338 31.4701 778.317 31.4701 777.042 31.7221C777.042 32.226 777.042 32.7299 777.042 33.2338C778.317 32.9818 779.338 32.7299 780.358 32.7299C780.358 32.226 780.358 31.7221 780.358 31.2182ZM780.358 27.187C779.338 27.439 778.317 27.6909 777.042 27.9429C777.042 28.4468 777.042 28.6987 777.042 29.2026C778.317 28.9507 779.338 28.9507 780.358 28.6987C780.358 28.1948 780.358 27.6909 780.358 27.187ZM780.358 23.1558C779.338 23.4078 778.317 23.6597 777.042 23.9117C777.042 24.4156 777.042 24.9195 777.042 25.4234C778.317 25.1714 779.338 24.9195 780.358 24.6675C780.358 24.1636 780.358 23.6597 780.358 23.1558ZM780.358 19.3766C779.338 19.6286 778.317 19.8805 777.042 20.1325C777.042 20.6364 777.042 21.1403 777.042 21.6442C778.317 21.3922 779.338 20.8883 780.358 20.6364C780.358 20.3844 780.358 19.8805 780.358 19.3766ZM784.695 88.9143C783.674 88.6623 782.909 88.6623 782.144 88.6623C782.144 89.1662 782.144 89.6701 782.144 90.174C782.909 90.174 783.674 90.174 784.695 90.174C784.695 89.6701 784.695 89.1662 784.695 88.9143ZM782.654 77.0727C784.44 77.3247 786.48 77.5766 788.521 77.5766C788.521 78.0805 788.521 78.5844 788.521 79.0883C786.48 78.8364 784.44 78.8364 782.654 78.5844C782.654 78.0805 782.654 77.5766 782.654 77.0727ZM786.225 74.5532C786.99 74.5532 788.011 74.8052 788.776 74.8052C788.776 75.3091 788.776 75.813 788.776 76.3169C788.011 76.0649 786.99 76.0649 786.225 76.0649C786.225 75.561 786.225 75.0571 786.225 74.5532ZM786.225 71.2779C786.99 71.5299 788.011 71.5299 788.776 71.7818C788.776 72.0338 788.776 72.5377 788.776 73.0416C788.011 73.0416 786.99 72.7896 786.225 72.7896C786.225 72.2857 786.225 71.7818 786.225 71.2779ZM786.225 68.2545C786.99 68.2545 788.011 68.5065 788.776 68.5065C788.776 69.0104 788.776 69.5143 788.776 70.0182C788.011 69.7662 786.99 69.7662 786.225 69.5143C786.225 69.0104 786.225 68.5065 786.225 68.2545ZM786.225 64.9792C786.99 64.9792 788.011 65.2312 788.776 65.2312C788.776 65.7351 788.776 66.239 788.776 66.7429C788.011 66.7429 786.99 66.4909 786.225 66.4909C786.225 65.987 786.225 65.4831 786.225 64.9792ZM784.44 64.7273C784.95 64.7273 785.205 64.7273 785.46 64.9792C785.46 68.5065 785.46 72.2857 785.46 75.813C785.205 75.813 784.95 75.813 784.44 75.813C784.44 72.0338 784.44 68.5065 784.44 64.7273ZM782.654 64.4753C782.909 64.4753 783.164 64.4753 783.419 64.4753C783.419 68.2545 783.419 72.0338 783.419 75.561C783.164 75.561 782.909 75.561 782.654 75.561C782.654 71.7818 782.654 68.0026 782.654 64.4753ZM782.144 60.9481C783.164 61.2 784.184 61.2 785.205 61.4519C785.205 61.9558 785.205 62.4597 785.205 62.9636C784.184 62.7117 783.164 62.4597 782.144 62.4597C782.144 61.9558 782.144 61.4519 782.144 60.9481ZM785.715 61.7039C786.735 61.7039 787.756 61.9558 788.776 61.9558C788.776 62.4597 788.776 62.9636 788.776 63.4675C787.756 63.2156 786.735 63.2156 785.715 62.9636C785.715 62.4597 785.715 61.9558 785.715 61.7039ZM782.654 57.6727C784.44 58.1766 785.97 58.4286 787.501 58.6805C787.501 59.1844 787.501 59.6883 787.501 59.9403C785.97 59.6883 784.44 59.4364 782.654 59.1844C782.654 58.6805 782.654 58.1766 782.654 57.6727ZM782.909 54.3974C783.674 54.6494 784.44 54.9013 785.205 54.9013C785.205 55.4052 785.205 55.9091 785.205 56.413C784.44 56.161 783.674 56.161 782.909 55.9091C782.909 55.4052 782.909 54.9013 782.909 54.3974ZM786.48 55.1532C787.246 55.4052 788.011 55.4052 788.776 55.6571C788.776 56.161 788.776 56.6649 788.776 57.1688C788.011 56.9169 787.246 56.6649 786.48 56.6649C786.48 56.161 786.48 55.6571 786.48 55.1532ZM782.144 51.8779C783.929 52.1299 785.715 52.3818 787.501 52.8857C787.501 53.3896 787.501 53.8935 787.501 54.3974C785.715 53.8935 783.929 53.6416 782.144 53.1377C782.144 52.6338 782.144 52.3818 782.144 51.8779ZM783.419 49.3584C785.205 49.8623 786.99 50.1143 788.776 50.6182C788.776 50.8701 788.776 51.374 788.776 51.8779C786.99 51.626 785.205 51.1221 783.419 50.8701C783.419 50.3662 783.419 49.8623 783.419 49.3584ZM778.317 88.9143C779.338 88.6623 780.103 88.6623 780.868 88.6623C780.868 89.1662 780.868 89.6701 780.868 90.174C780.103 90.174 779.338 90.174 778.317 90.174C778.317 89.6701 778.317 89.1662 778.317 88.9143ZM780.358 80.0961C778.572 80.0961 776.532 80.3481 774.491 80.3481C774.491 80.852 774.491 81.3558 774.491 81.8597C776.532 81.6078 778.572 81.6078 780.358 81.3558C780.358 80.852 780.358 80.3481 780.358 80.0961ZM780.358 77.0727C778.572 77.3247 776.532 77.5766 774.491 77.5766C774.491 78.0805 774.491 78.5844 774.491 79.0883C776.532 78.8364 778.572 78.8364 780.358 78.5844C780.358 78.0805 780.358 77.5766 780.358 77.0727ZM776.787 74.5532C776.022 74.5532 775.001 74.8052 774.236 74.8052C774.236 75.3091 774.236 75.813 774.236 76.3169C775.001 76.0649 776.022 76.0649 776.787 76.0649C776.787 75.561 776.787 75.0571 776.787 74.5532ZM776.787 71.2779C776.022 71.5299 775.001 71.5299 774.236 71.7818C774.236 72.0338 774.236 72.5377 774.236 73.0416C775.001 73.0416 776.022 72.7896 776.787 72.7896C776.787 72.2857 776.787 71.7818 776.787 71.2779ZM776.787 68.2545C776.022 68.2545 775.001 68.5065 774.236 68.5065C774.236 69.0104 774.236 69.5143 774.236 70.0182C775.001 69.7662 776.022 69.7662 776.787 69.5143C776.787 69.0104 776.787 68.5065 776.787 68.2545ZM776.787 64.9792C776.022 64.9792 775.001 65.2312 774.236 65.2312C774.236 65.7351 774.236 66.239 774.236 66.7429C775.001 66.7429 776.022 66.4909 776.787 66.4909C776.787 65.987 776.787 65.4831 776.787 64.9792ZM778.572 64.7273C778.062 64.7273 777.807 64.7273 777.552 64.9792C777.552 68.5065 777.552 72.2857 777.552 75.813C777.807 75.813 778.062 75.813 778.572 75.813C778.572 72.0338 778.572 68.5065 778.572 64.7273ZM780.358 64.4753C780.103 64.4753 779.848 64.4753 779.593 64.4753C779.593 68.2545 779.593 72.0338 779.593 75.561C779.848 75.561 780.103 75.561 780.358 75.561C780.358 71.7818 780.358 68.0026 780.358 64.4753ZM780.868 60.9481C779.848 61.2 778.828 61.2 777.807 61.4519C777.807 61.9558 777.807 62.4597 777.807 62.9636C778.828 62.7117 779.848 62.4597 780.868 62.4597C780.868 61.9558 780.868 61.4519 780.868 60.9481ZM777.297 61.7039C776.277 61.7039 775.256 61.9558 774.236 61.9558C774.236 62.4597 774.236 62.9636 774.236 63.4675C775.256 63.2156 776.277 63.2156 777.297 62.9636C777.297 62.4597 777.297 61.9558 777.297 61.7039ZM780.358 57.6727C778.572 58.1766 777.042 58.4286 775.511 58.6805C775.511 59.1844 775.511 59.6883 775.511 59.9403C777.042 59.6883 778.572 59.4364 780.358 59.1844C780.358 58.6805 780.358 58.1766 780.358 57.6727ZM780.103 54.3974C779.338 54.6494 778.572 54.9013 777.807 54.9013C777.807 55.4052 777.807 55.9091 777.807 56.413C778.572 56.161 779.338 56.161 780.103 55.9091C780.103 55.4052 780.103 54.9013 780.103 54.3974ZM776.532 55.1532C775.766 55.4052 775.001 55.4052 774.236 55.6571C774.236 56.161 774.236 56.6649 774.236 57.1688C775.001 56.9169 775.766 56.6649 776.532 56.6649C776.532 56.161 776.532 55.6571 776.532 55.1532ZM780.868 51.8779C779.083 52.1299 777.297 52.3818 775.511 52.8857C775.511 53.3896 775.511 53.8935 775.511 54.3974C777.297 53.8935 779.083 53.6416 780.868 53.1377C780.868 52.6338 780.868 52.3818 780.868 51.8779ZM779.593 49.3584C777.807 49.8623 776.022 50.1143 774.236 50.6182C774.236 50.8701 774.236 51.374 774.236 51.8779C776.022 51.626 777.807 51.1221 779.593 50.8701C779.593 50.3662 779.593 49.8623 779.593 49.3584ZM764.287 88.9143C763.522 88.6623 762.502 88.6623 761.737 88.6623C761.737 89.1662 761.737 89.6701 761.737 90.174C762.502 90.174 763.522 90.174 764.287 90.174C764.287 89.6701 764.287 89.1662 764.287 88.9143ZM762.247 80.0961C764.287 80.0961 766.328 80.3481 768.369 80.3481C768.369 80.852 768.369 81.3558 768.369 81.8597C766.328 81.6078 764.287 81.6078 762.247 81.3558C762.247 80.852 762.247 80.3481 762.247 80.0961ZM762.247 77.0727C764.287 77.3247 766.328 77.5766 768.369 77.5766C768.369 78.0805 768.369 78.5844 768.369 79.0883C766.328 78.8364 764.287 78.8364 762.247 78.5844C762.247 78.0805 762.247 77.5766 762.247 77.0727ZM766.073 74.5532C766.838 74.5532 767.859 74.8052 768.879 74.8052C768.879 75.3091 768.879 75.813 768.879 76.3169C767.859 76.0649 766.838 76.0649 766.073 76.0649C766.073 75.561 766.073 75.0571 766.073 74.5532ZM766.073 71.2779C766.838 71.5299 767.859 71.5299 768.879 71.7818C768.879 72.0338 768.879 72.5377 768.879 73.0416C767.859 73.0416 766.838 72.7896 766.073 72.7896C766.073 72.2857 766.073 71.7818 766.073 71.2779ZM766.073 68.2545C766.838 68.2545 767.859 68.5065 768.879 68.5065C768.879 69.0104 768.879 69.5143 768.879 70.0182C767.859 69.7662 766.838 69.7662 766.073 69.5143C766.073 69.0104 766.073 68.5065 766.073 68.2545ZM766.073 64.9792C766.838 64.9792 767.859 65.2312 768.879 65.2312C768.879 65.7351 768.879 66.239 768.879 66.7429C767.859 66.7429 766.838 66.4909 766.073 66.4909C766.073 65.987 766.073 65.4831 766.073 64.9792ZM764.287 64.7273C764.543 64.7273 764.798 64.7273 765.308 64.9792C765.308 68.5065 765.308 72.2857 765.308 75.813C764.798 75.813 764.543 75.813 764.287 75.813C764.287 72.0338 764.287 68.5065 764.287 64.7273ZM762.247 64.4753C762.502 64.4753 762.757 64.4753 763.267 64.4753C763.267 68.2545 763.267 72.0338 763.267 75.561C762.757 75.561 762.502 75.561 762.247 75.561C762.247 71.7818 762.247 68.0026 762.247 64.4753ZM761.737 60.9481C762.757 61.2 763.777 61.2 764.798 61.4519C764.798 61.9558 764.798 62.4597 764.798 62.9636C763.777 62.7117 762.757 62.4597 761.737 62.4597C761.737 61.9558 761.737 61.4519 761.737 60.9481ZM765.563 61.7039C766.583 61.7039 767.604 61.9558 768.624 61.9558C768.624 62.4597 768.624 62.9636 768.624 63.4675C767.604 63.2156 766.583 63.2156 765.563 62.9636C765.563 62.4597 765.563 61.9558 765.563 61.7039ZM762.247 57.6727C764.032 58.1766 765.818 58.4286 767.349 58.6805C767.349 59.1844 767.349 59.6883 767.349 59.9403C765.818 59.6883 764.032 59.4364 762.247 59.1844C762.247 58.6805 762.247 58.1766 762.247 57.6727ZM762.502 54.3974C763.267 54.6494 764.032 54.9013 765.053 54.9013C765.053 55.4052 765.053 55.9091 765.053 56.413C764.032 56.161 763.267 56.161 762.502 55.9091C762.502 55.4052 762.502 54.9013 762.502 54.3974ZM766.328 55.1532C767.093 55.4052 768.114 55.4052 768.879 55.6571C768.879 56.161 768.879 56.6649 768.879 57.1688C768.114 56.9169 767.093 56.6649 766.328 56.6649C766.328 56.161 766.328 55.6571 766.328 55.1532ZM761.737 51.8779C763.777 52.1299 765.563 52.3818 767.349 52.8857C767.349 53.3896 767.349 53.8935 767.349 54.3974C765.563 53.8935 763.777 53.6416 761.737 53.1377C761.737 52.6338 761.737 52.3818 761.737 51.8779ZM763.012 49.3584C765.053 49.8623 766.838 50.1143 768.624 50.6182C768.624 50.8701 768.624 51.374 768.624 51.8779C766.838 51.626 765.053 51.1221 763.012 50.8701C763.012 50.3662 763.012 49.8623 763.012 49.3584ZM757.655 88.9143C758.675 88.6623 759.441 88.6623 760.461 88.6623C760.461 89.1662 760.461 89.6701 760.461 90.174C759.441 90.174 758.675 90.174 757.655 90.174C757.655 89.6701 757.655 89.1662 757.655 88.9143ZM759.951 77.0727C757.91 77.3247 755.869 77.5766 753.829 77.5766C753.829 78.0805 753.829 78.5844 753.829 79.0883C755.869 78.8364 757.91 78.8364 759.951 78.5844C759.951 78.0805 759.951 77.5766 759.951 77.0727ZM756.125 74.5532C755.104 74.5532 754.339 74.8052 753.319 74.8052C753.319 75.3091 753.319 75.813 753.319 76.3169C754.339 76.0649 755.104 76.0649 756.125 76.0649C756.125 75.561 756.125 75.0571 756.125 74.5532ZM756.125 71.2779C755.104 71.5299 754.339 71.5299 753.319 71.7818C753.319 72.0338 753.319 72.5377 753.319 73.0416C754.339 73.0416 755.104 72.7896 756.125 72.7896C756.125 72.2857 756.125 71.7818 756.125 71.2779ZM756.125 68.2545C755.104 68.2545 754.339 68.5065 753.319 68.5065C753.319 69.0104 753.319 69.5143 753.319 70.0182C754.339 69.7662 755.104 69.7662 756.125 69.5143C756.125 69.0104 756.125 68.5065 756.125 68.2545ZM756.125 64.9792C755.104 64.9792 754.339 65.2312 753.319 65.2312C753.319 65.7351 753.319 66.239 753.319 66.7429C754.339 66.7429 755.104 66.4909 756.125 66.4909C756.125 65.987 756.125 65.4831 756.125 64.9792ZM757.91 64.7273C757.4 64.7273 757.145 64.7273 756.89 64.9792C756.89 68.5065 756.89 72.2857 756.89 75.813C757.145 75.813 757.4 75.813 757.91 75.813C757.91 72.0338 757.91 68.5065 757.91 64.7273ZM759.951 64.4753C759.696 64.4753 759.186 64.4753 758.931 64.4753C758.931 68.2545 758.931 72.0338 758.931 75.561C759.186 75.561 759.696 75.561 759.951 75.561C759.951 71.7818 759.951 68.0026 759.951 64.4753ZM760.461 60.9481C759.441 61.2 758.165 61.2 757.145 61.4519C757.145 61.9558 757.145 62.4597 757.145 62.9636C758.165 62.7117 759.441 62.4597 760.461 62.4597C760.461 61.9558 760.461 61.4519 760.461 60.9481ZM756.38 61.7039C755.359 61.7039 754.339 61.9558 753.319 61.9558C753.319 62.4597 753.319 62.9636 753.319 63.4675C754.339 63.2156 755.359 63.2156 756.38 62.9636C756.38 62.4597 756.38 61.9558 756.38 61.7039ZM759.696 57.6727C758.165 58.1766 756.38 58.4286 754.594 58.6805C754.594 59.1844 754.594 59.6883 754.594 59.9403C756.38 59.6883 758.165 59.4364 759.696 59.1844C759.696 58.6805 759.696 58.1766 759.696 57.6727ZM759.696 54.3974C758.931 54.6494 757.91 54.9013 757.145 54.9013C757.145 55.4052 757.145 55.9091 757.145 56.413C757.91 56.161 758.931 56.161 759.696 55.9091C759.696 55.4052 759.696 54.9013 759.696 54.3974ZM755.614 55.1532C754.849 55.4052 754.084 55.4052 753.319 55.6571C753.319 56.161 753.319 56.6649 753.319 57.1688C754.084 56.9169 754.849 56.6649 755.614 56.6649C755.614 56.161 755.614 55.6571 755.614 55.1532ZM760.206 51.8779C758.42 52.1299 756.635 52.3818 754.594 52.8857C754.594 53.3896 754.594 53.8935 754.594 54.3974C756.635 53.8935 758.42 53.6416 760.206 53.1377C760.206 52.6338 760.206 52.3818 760.206 51.8779ZM758.931 49.3584C757.145 49.8623 755.359 50.1143 753.319 50.6182C753.319 50.8701 753.319 51.374 753.319 51.8779C755.359 51.626 757.145 51.1221 758.931 50.8701C758.931 50.3662 758.931 49.8623 758.931 49.3584ZM709.953 93.4494V94.7091H708.678V93.4494H709.953ZM709.953 96.2208V97.4805H708.678V96.2208H709.953ZM718.626 97.2286V96.2208H719.137C719.137 96.4727 719.137 96.9766 719.137 97.2286H718.626ZM740.564 83.6234V84.8831L736.483 84.6312C736.483 84.1273 736.483 83.6234 736.483 83.3714L740.564 83.6234ZM740.564 85.8909V87.1507L736.483 86.8987C736.483 86.6468 736.483 86.1429 736.483 85.639L740.564 85.8909ZM740.564 88.6623V89.9221L737.503 89.6701C737.503 89.1662 737.503 88.9143 737.503 88.4104L740.564 88.6623ZM730.105 91.9377V90.6779H731.126C731.126 91.1818 731.126 91.4338 731.126 91.9377H730.105ZM730.105 89.9221V88.6623L733.422 88.4104C733.422 88.9143 733.422 89.1662 733.422 89.6701L730.105 89.9221ZM708.678 91.9377V90.6779H710.208C710.208 91.1818 710.208 91.4338 710.208 91.9377H708.678ZM708.678 89.9221V88.6623L712.759 88.4104C712.759 88.9143 712.759 89.1662 712.759 89.6701L708.678 89.9221ZM708.678 87.1507V86.1429L713.78 85.639C713.78 86.1429 713.78 86.6468 713.78 86.8987L708.678 87.1507ZM708.678 84.8831V83.6234L713.78 83.3714C713.78 83.6234 713.78 84.1273 713.78 84.6312L708.678 84.8831ZM734.442 56.6649L731.126 57.1688V56.161C732.146 55.9091 733.166 55.9091 734.442 55.9091V56.6649ZM739.799 57.1688L736.483 56.6649V55.9091C737.503 55.9091 738.778 55.9091 739.799 56.161V57.1688ZM735.462 29.7065C734.697 29.7065 734.187 29.9584 733.422 30.2104C733.422 29.9584 733.422 29.7065 733.422 29.4545C734.187 29.2026 734.697 28.9507 735.462 28.9507C735.972 28.9507 736.738 29.2026 737.248 29.4545C737.248 29.7065 737.248 29.9584 737.248 30.2104C736.738 29.9584 735.972 29.7065 735.462 29.7065ZM735.462 27.9429C734.697 27.9429 734.187 28.1948 733.422 28.1948C733.422 28.1948 733.422 28.1948 733.422 27.9429C734.187 27.6909 734.697 27.6909 735.462 27.439C735.972 27.6909 736.738 27.6909 737.248 27.9429C737.248 28.1948 737.248 28.1948 737.248 28.1948C736.738 28.1948 735.972 27.9429 735.462 27.9429ZM736.483 52.6338C737.503 52.6338 738.778 52.8857 739.799 52.8857C739.799 53.3896 739.799 53.6416 739.799 54.1455C738.778 53.8935 737.503 53.8935 736.483 53.8935C736.483 53.3896 736.483 53.1377 736.483 52.6338ZM736.483 49.3584C737.503 49.3584 738.778 49.6104 739.799 49.6104C739.799 50.1143 739.799 50.3662 739.799 50.8701C738.778 50.6182 737.503 50.6182 736.483 50.6182C736.483 50.1143 736.483 49.8623 736.483 49.3584ZM736.483 46.0831C737.503 46.0831 738.778 46.3351 739.799 46.3351C739.799 46.839 739.799 47.3429 739.799 47.5948C738.778 47.5948 737.503 47.3429 736.483 47.3429C736.483 46.839 736.483 46.587 736.483 46.0831ZM736.483 42.8078C737.503 42.8078 738.778 43.0597 739.799 43.3117C739.799 43.5636 739.799 44.0675 739.799 44.3195C738.778 44.3195 737.503 44.0675 736.483 44.0675C736.483 43.5636 736.483 43.0597 736.483 42.8078ZM736.483 39.5325C737.503 39.7844 738.778 39.7844 739.799 40.0364C739.799 40.2883 739.799 40.7922 739.799 41.2961C738.778 41.0442 737.503 40.7922 736.483 40.7922C736.483 40.2883 736.483 39.7844 736.483 39.5325ZM736.483 36.2571C737.503 36.5091 738.778 36.5091 739.799 36.761C739.799 37.2649 739.799 37.5169 739.799 38.0208C738.778 37.7688 737.503 37.5169 736.483 37.5169C736.483 37.013 736.483 36.5091 736.483 36.2571ZM736.483 32.9818C737.503 33.2338 738.778 33.4857 739.799 33.4857C739.799 33.9896 739.799 34.2416 739.799 34.7455C738.778 34.4935 737.503 34.2416 736.483 33.9896C736.483 33.7377 736.483 33.2338 736.483 32.9818ZM734.442 52.6338C733.166 52.6338 732.146 52.8857 731.126 52.8857C731.126 53.3896 731.126 53.6416 731.126 54.1455C732.146 53.8935 733.166 53.8935 734.442 53.8935C734.442 53.3896 734.442 53.1377 734.442 52.6338ZM734.442 49.3584C733.166 49.3584 732.146 49.6104 731.126 49.6104C731.126 50.1143 731.126 50.3662 731.126 50.8701C732.146 50.6182 733.166 50.6182 734.442 50.6182C734.442 50.1143 734.442 49.8623 734.442 49.3584ZM734.442 46.0831C733.166 46.0831 732.146 46.3351 731.126 46.3351C731.126 46.839 731.126 47.3429 731.126 47.5948C732.146 47.5948 733.166 47.3429 734.442 47.3429C734.442 46.839 734.442 46.587 734.442 46.0831ZM734.442 42.8078C733.166 42.8078 732.146 43.0597 731.126 43.3117C731.126 43.5636 731.126 44.0675 731.126 44.3195C732.146 44.3195 733.166 44.0675 734.442 44.0675C734.442 43.5636 734.442 43.0597 734.442 42.8078ZM734.442 39.5325C733.166 39.7844 732.146 39.7844 731.126 40.0364C731.126 40.2883 731.126 40.7922 731.126 41.2961C732.146 41.0442 733.166 40.7922 734.442 40.7922C734.442 40.2883 734.442 39.7844 734.442 39.5325ZM734.442 36.2571C733.166 36.5091 732.146 36.5091 731.126 36.761C731.126 37.2649 731.126 37.5169 731.126 38.0208C732.146 37.7688 733.166 37.5169 734.442 37.5169C734.442 37.013 734.442 36.5091 734.442 36.2571ZM734.442 32.9818C733.166 33.2338 732.146 33.4857 731.126 33.4857C731.126 33.9896 731.126 34.2416 731.126 34.7455C732.146 34.4935 733.166 34.2416 734.442 33.9896C734.442 33.7377 734.442 33.2338 734.442 32.9818ZM736.483 80.852C738.523 81.1039 740.309 81.3558 742.35 81.3558C742.35 81.8597 742.35 82.1117 742.35 82.6156C740.309 82.3636 738.523 82.3636 736.483 82.1117C736.483 81.8597 736.483 81.3558 736.483 80.852ZM740.054 78.8364C741.074 78.8364 741.84 79.0883 742.605 79.0883C742.605 79.3403 742.605 79.8442 742.605 80.0961C741.84 80.0961 741.074 80.0961 740.054 80.0961C740.054 79.5922 740.054 79.3403 740.054 78.8364ZM740.054 76.0649C741.074 76.3169 741.84 76.3169 742.605 76.3169C742.605 76.8208 742.605 77.3247 742.605 77.5766C741.84 77.5766 741.074 77.3247 740.054 77.3247C740.054 77.0727 740.054 76.5688 740.054 76.0649ZM740.054 73.5455C741.074 73.5455 741.84 73.7974 742.605 73.7974C742.605 74.3013 742.605 74.5532 742.605 75.0571C741.84 74.8052 741.074 74.8052 740.054 74.8052C740.054 74.3013 740.054 73.7974 740.054 73.5455ZM740.054 70.774C741.074 71.026 741.84 71.026 742.605 71.2779C742.605 71.5299 742.605 72.0338 742.605 72.2857C741.84 72.2857 741.074 72.0338 740.054 72.0338C740.054 71.5299 740.054 71.2779 740.054 70.774ZM738.523 70.774C738.778 70.774 739.034 70.774 739.289 70.774C739.289 73.7974 739.289 76.8208 739.289 79.8442C739.034 79.8442 738.778 79.8442 738.523 79.8442C738.523 76.8208 738.523 73.7974 738.523 70.774ZM736.483 70.5221C736.738 70.5221 737.248 70.5221 737.503 70.5221C737.503 73.5455 737.503 76.5688 737.503 79.8442C737.248 79.5922 736.738 79.5922 736.483 79.5922C736.483 76.5688 736.483 73.5455 736.483 70.5221ZM735.972 67.4987C736.993 67.7507 738.013 67.7507 739.034 68.0026C739.034 68.2545 739.034 68.7584 739.034 69.2623C738.013 69.0104 736.993 68.7584 735.972 68.7584C735.972 68.2545 735.972 68.0026 735.972 67.4987ZM739.799 68.0026C740.564 68.2545 741.584 68.2545 742.605 68.5065C742.605 68.7584 742.605 69.2623 742.605 69.5143C741.584 69.5143 740.564 69.2623 739.799 69.2623C739.799 68.7584 739.799 68.5065 739.799 68.0026ZM736.738 64.9792C738.268 65.2312 739.799 65.2312 741.584 65.4831C741.584 65.987 741.584 66.4909 741.584 66.7429C739.799 66.4909 738.268 66.239 736.738 65.987C736.738 65.7351 736.738 65.2312 736.738 64.9792ZM736.738 62.2078C737.503 62.2078 738.268 62.4597 739.289 62.4597C739.289 62.9636 739.289 63.2156 739.289 63.7195C738.268 63.7195 737.503 63.4675 736.738 63.2156C736.738 62.9636 736.738 62.4597 736.738 62.2078ZM740.309 62.7117C741.329 62.9636 742.095 62.9636 742.86 63.2156C742.86 63.4675 742.86 63.9714 742.86 64.2234C742.095 64.2234 741.329 63.9714 740.309 63.9714C740.309 63.4675 740.309 63.2156 740.309 62.7117ZM736.228 59.9403C738.013 60.1922 739.799 60.4442 741.584 60.6961C741.584 61.2 741.584 61.7039 741.584 61.9558C739.799 61.7039 738.013 61.4519 736.228 61.2C736.228 60.6961 736.228 60.1922 736.228 59.9403ZM737.503 57.9247C739.034 58.1766 740.819 58.4286 742.605 58.9325C742.605 59.1844 742.605 59.6883 742.605 59.9403C740.819 59.6883 739.034 59.4364 737.503 59.1844C737.503 58.6805 737.503 58.4286 737.503 57.9247ZM732.401 90.6779C733.166 90.6779 733.932 90.6779 734.697 90.6779C734.697 90.9299 734.697 91.4338 734.697 91.6857C733.932 91.6857 733.166 91.9377 732.401 91.9377C732.401 91.4338 732.401 91.1818 732.401 90.6779ZM734.442 83.3714C732.401 83.3714 730.36 83.6234 728.575 83.6234C728.575 84.1273 728.575 84.6312 728.575 84.8831C730.36 84.8831 732.401 84.6312 734.442 84.6312C734.442 84.1273 734.442 83.6234 734.442 83.3714ZM734.442 80.852C732.401 81.1039 730.36 81.3558 728.575 81.3558C728.575 81.8597 728.575 82.1117 728.575 82.6156C730.36 82.3636 732.401 82.3636 734.442 82.1117C734.442 81.8597 734.442 81.3558 734.442 80.852ZM730.871 78.8364C729.85 78.8364 729.085 79.0883 728.065 79.0883C728.065 79.3403 728.065 79.8442 728.065 80.0961C729.085 80.0961 729.85 80.0961 730.871 80.0961C730.871 79.5922 730.871 79.3403 730.871 78.8364ZM730.871 76.0649C729.85 76.3169 729.085 76.3169 728.065 76.3169C728.065 76.8208 728.065 77.3247 728.065 77.5766C729.085 77.5766 729.85 77.3247 730.871 77.3247C730.871 77.0727 730.871 76.5688 730.871 76.0649ZM730.871 73.5455C729.85 73.5455 729.085 73.7974 728.065 73.7974C728.065 74.3013 728.065 74.5532 728.065 75.0571C729.085 74.8052 729.85 74.8052 730.871 74.8052C730.871 74.3013 730.871 73.7974 730.871 73.5455ZM730.871 70.774C729.85 71.026 729.085 71.026 728.065 71.2779C728.065 71.5299 728.065 72.0338 728.065 72.2857C729.085 72.2857 729.85 72.0338 730.871 72.0338C730.871 71.5299 730.871 71.2779 730.871 70.774ZM732.401 70.774C732.146 70.774 731.891 70.774 731.381 70.774C731.381 73.7974 731.381 76.8208 731.381 79.8442C731.891 79.8442 732.146 79.8442 732.401 79.8442C732.401 76.8208 732.401 73.7974 732.401 70.774ZM734.442 70.5221C733.932 70.5221 733.677 70.5221 733.422 70.5221C733.422 73.5455 733.422 76.5688 733.422 79.8442C733.677 79.5922 734.187 79.5922 734.442 79.5922C734.442 76.5688 734.442 73.5455 734.442 70.5221ZM734.697 67.4987C733.677 67.7507 732.911 67.7507 731.891 68.0026C731.891 68.2545 731.891 68.7584 731.891 69.2623C732.911 69.0104 733.677 68.7584 734.697 68.7584C734.697 68.2545 734.697 68.0026 734.697 67.4987ZM731.126 68.0026C730.105 68.2545 729.34 68.2545 728.32 68.5065C728.32 68.7584 728.32 69.2623 728.32 69.5143C729.34 69.5143 730.105 69.2623 731.126 69.2623C731.126 68.7584 731.126 68.5065 731.126 68.0026ZM734.187 64.9792C732.656 65.2312 730.871 65.2312 729.34 65.4831C729.34 65.987 729.34 66.4909 729.34 66.7429C730.871 66.4909 732.656 66.239 734.187 65.987C734.187 65.7351 734.187 65.2312 734.187 64.9792ZM734.187 62.2078C733.422 62.2078 732.401 62.4597 731.636 62.4597C731.636 62.9636 731.636 63.2156 731.636 63.7195C732.401 63.7195 733.422 63.4675 734.187 63.2156C734.187 62.9636 734.187 62.4597 734.187 62.2078ZM730.36 62.7117C729.595 62.9636 728.83 62.9636 728.065 63.2156C728.065 63.4675 728.065 63.9714 728.065 64.2234C728.83 64.2234 729.595 63.9714 730.36 63.9714C730.36 63.4675 730.36 63.2156 730.36 62.7117ZM734.697 59.9403C732.911 60.1922 731.126 60.4442 729.34 60.6961C729.34 61.2 729.34 61.7039 729.34 61.9558C731.126 61.7039 732.911 61.4519 734.697 61.2C734.697 60.6961 734.697 60.1922 734.697 59.9403ZM733.422 57.9247C731.636 58.1766 729.85 58.4286 728.32 58.9325C728.32 59.1844 728.32 59.6883 728.32 59.9403C729.85 59.6883 731.636 59.4364 733.422 59.1844C733.422 58.6805 733.422 58.4286 733.422 57.9247ZM718.371 90.6779C717.351 90.6779 716.586 90.6779 715.565 90.6779C715.565 90.9299 715.565 91.4338 715.565 91.6857C716.586 91.6857 717.351 91.9377 718.371 91.9377C718.371 91.4338 718.371 91.1818 718.371 90.6779ZM716.075 80.852C718.116 81.1039 720.157 81.3558 722.198 81.3558C722.198 81.8597 722.198 82.1117 722.198 82.6156C720.157 82.3636 718.116 82.3636 716.075 82.1117C716.075 81.8597 716.075 81.3558 716.075 80.852ZM719.902 78.8364C720.922 78.8364 721.687 79.0883 722.708 79.0883C722.708 79.3403 722.708 79.8442 722.708 80.0961C721.687 80.0961 720.922 80.0961 719.902 80.0961C719.902 79.5922 719.902 79.3403 719.902 78.8364ZM719.902 76.0649C720.922 76.3169 721.687 76.3169 722.708 76.3169C722.708 76.8208 722.708 77.3247 722.708 77.5766C721.687 77.5766 720.922 77.3247 719.902 77.3247C719.902 77.0727 719.902 76.5688 719.902 76.0649ZM719.902 73.5455C720.922 73.5455 721.687 73.7974 722.708 73.7974C722.708 74.3013 722.708 74.5532 722.708 75.0571C721.687 74.8052 720.922 74.8052 719.902 74.8052C719.902 74.3013 719.902 73.7974 719.902 73.5455ZM719.902 70.774C720.922 71.026 721.687 71.026 722.708 71.2779C722.708 71.5299 722.708 72.0338 722.708 72.2857C721.687 72.2857 720.922 72.0338 719.902 72.0338C719.902 71.5299 719.902 71.2779 719.902 70.774ZM718.116 70.774C718.626 70.774 718.881 70.774 719.137 70.774C719.137 73.7974 719.137 76.8208 719.137 79.8442C718.881 79.8442 718.626 79.8442 718.116 79.8442C718.116 76.8208 718.116 73.7974 718.116 70.774ZM716.075 70.5221C716.331 70.5221 716.841 70.5221 717.096 70.5221C717.096 73.5455 717.096 76.5688 717.096 79.8442C716.841 79.5922 716.331 79.5922 716.075 79.5922C716.075 76.5688 716.075 73.5455 716.075 70.5221ZM715.565 67.4987C716.586 67.7507 717.861 67.7507 718.881 68.0026C718.881 68.2545 718.881 68.7584 718.881 69.2623C717.861 69.0104 716.586 68.7584 715.565 68.7584C715.565 68.2545 715.565 68.0026 715.565 67.4987ZM719.647 68.0026C720.667 68.2545 721.687 68.2545 722.708 68.5065C722.708 68.7584 722.708 69.2623 722.708 69.5143C721.687 69.5143 720.667 69.2623 719.647 69.2623C719.647 68.7584 719.647 68.5065 719.647 68.0026ZM716.331 64.9792C717.861 65.2312 719.647 65.2312 721.432 65.4831C721.432 65.987 721.432 66.4909 721.432 66.7429C719.647 66.4909 717.861 66.239 716.331 65.987C716.331 65.7351 716.331 65.2312 716.331 64.9792ZM716.331 62.2078C717.096 62.2078 718.116 62.4597 718.881 62.4597C718.881 62.9636 718.881 63.2156 718.881 63.7195C718.116 63.7195 717.096 63.4675 716.331 63.2156C716.331 62.9636 716.331 62.4597 716.331 62.2078ZM720.157 62.7117C721.177 62.9636 721.943 62.9636 722.708 63.2156C722.708 63.4675 722.708 63.9714 722.708 64.2234C721.943 64.2234 721.177 63.9714 720.157 63.9714C720.157 63.4675 720.157 63.2156 720.157 62.7117ZM715.82 59.9403C717.606 60.1922 719.392 60.4442 721.432 60.6961C721.432 61.2 721.432 61.7039 721.432 61.9558C719.392 61.7039 717.606 61.4519 715.82 61.2C715.82 60.6961 715.82 60.1922 715.82 59.9403ZM717.096 57.9247C718.881 58.1766 720.667 58.4286 722.708 58.9325C722.708 59.1844 722.708 59.6883 722.708 59.9403C720.667 59.6883 718.881 59.4364 717.096 59.1844C717.096 58.6805 717.096 58.4286 717.096 57.9247ZM711.739 90.6779C712.504 90.6779 713.525 90.6779 714.29 90.6779C714.29 90.9299 714.29 91.4338 714.29 91.6857C713.525 91.6857 712.504 91.9377 711.739 91.9377C711.739 91.4338 711.739 91.1818 711.739 90.6779ZM713.78 80.852C711.739 81.1039 709.698 81.3558 707.657 81.3558C707.657 81.8597 707.657 82.1117 707.657 82.6156C709.698 82.3636 711.739 82.3636 713.78 82.1117C713.78 81.8597 713.78 81.3558 713.78 80.852ZM709.953 78.8364C709.188 78.8364 708.168 79.0883 707.147 79.0883C707.147 79.3403 707.147 79.8442 707.147 80.0961C708.168 80.0961 709.188 80.0961 709.953 80.0961C709.953 79.5922 709.953 79.3403 709.953 78.8364ZM709.953 76.0649C709.188 76.3169 708.168 76.3169 707.147 76.3169C707.147 76.8208 707.147 77.3247 707.147 77.5766C708.168 77.5766 709.188 77.3247 709.953 77.3247C709.953 77.0727 709.953 76.5688 709.953 76.0649ZM709.953 73.5455C709.188 73.5455 708.168 73.7974 707.147 73.7974C707.147 74.3013 707.147 74.5532 707.147 75.0571C708.168 74.8052 709.188 74.8052 709.953 74.8052C709.953 74.3013 709.953 73.7974 709.953 73.5455ZM709.953 70.774C709.188 71.026 708.168 71.026 707.147 71.2779C707.147 71.5299 707.147 72.0338 707.147 72.2857C708.168 72.2857 709.188 72.0338 709.953 72.0338C709.953 71.5299 709.953 71.2779 709.953 70.774ZM711.739 70.774C711.484 70.774 710.974 70.774 710.719 70.774C710.719 73.7974 710.719 76.8208 710.719 79.8442C710.974 79.8442 711.484 79.8442 711.739 79.8442C711.739 76.8208 711.739 73.7974 711.739 70.774ZM713.78 70.5221C713.525 70.5221 713.269 70.5221 712.759 70.5221C712.759 73.5455 712.759 76.5688 712.759 79.8442C713.269 79.5922 713.525 79.5922 713.78 79.5922C713.78 76.5688 713.78 73.5455 713.78 70.5221ZM714.29 67.4987C713.269 67.7507 712.249 67.7507 711.229 68.0026C711.229 68.2545 711.229 68.7584 711.229 69.2623C712.249 69.0104 713.269 68.7584 714.29 68.7584C714.29 68.2545 714.29 68.0026 714.29 67.4987ZM710.463 68.0026C709.443 68.2545 708.423 68.2545 707.402 68.5065C707.402 68.7584 707.402 69.2623 707.402 69.5143C708.423 69.5143 709.443 69.2623 710.463 69.2623C710.463 68.7584 710.463 68.5065 710.463 68.0026ZM713.78 64.9792C711.994 65.2312 710.208 65.2312 708.678 65.4831C708.678 65.987 708.678 66.4909 708.678 66.7429C710.208 66.4909 711.994 66.239 713.78 65.987C713.78 65.7351 713.78 65.2312 713.78 64.9792ZM713.525 62.2078C712.759 62.2078 711.994 62.4597 710.974 62.4597C710.974 62.9636 710.974 63.2156 710.974 63.7195C711.994 63.7195 712.759 63.4675 713.525 63.2156C713.525 62.9636 713.525 62.4597 713.525 62.2078ZM709.698 62.7117C708.933 62.9636 707.913 62.9636 707.147 63.2156C707.147 63.4675 707.147 63.9714 707.147 64.2234C707.913 64.2234 708.933 63.9714 709.698 63.9714C709.698 63.4675 709.698 63.2156 709.698 62.7117ZM714.29 59.9403C712.249 60.1922 710.463 60.4442 708.678 60.6961C708.678 61.2 708.678 61.7039 708.678 61.9558C710.463 61.7039 712.249 61.4519 714.29 61.2C714.29 60.6961 714.29 60.1922 714.29 59.9403ZM713.014 57.9247C710.974 58.1766 709.188 58.4286 707.402 58.9325C707.402 59.1844 707.402 59.6883 707.402 59.9403C709.188 59.6883 710.974 59.4364 713.014 59.1844C713.014 58.6805 713.014 58.4286 713.014 57.9247ZM607.152 96.2208V97.2286H609.193C609.193 96.9766 609.193 96.4727 609.193 96.2208H607.152ZM630.875 93.4494V94.7091H632.151V93.4494H630.875ZM630.875 96.2208V97.4805H632.151V96.2208H630.875ZM622.202 97.2286V96.2208H621.692C621.692 96.4727 621.692 96.9766 621.692 97.2286H622.202ZM622.202 94.7091V93.4494H619.396V94.7091H622.202ZM600.265 83.6234V84.8831L604.346 84.6312C604.346 84.1273 604.346 83.6234 604.346 83.3714L600.265 83.6234ZM600.265 85.8909V87.1507L604.346 86.8987C604.346 86.6468 604.346 86.1429 604.346 85.639L600.265 85.8909ZM600.265 88.6623V89.9221L603.326 89.6701C603.326 89.1662 603.326 88.9143 603.326 88.4104L600.265 88.6623ZM600.265 90.6779V91.9377H601.03C601.03 91.4338 601.03 91.1818 601.03 90.6779H600.265ZM610.723 87.1507H612.254V86.1429C610.468 85.8909 608.428 85.8909 606.387 85.639C606.387 86.1429 606.387 86.6468 606.387 86.8987L610.723 87.1507ZM618.631 87.1507H619.396L624.753 86.8987C624.753 86.6468 624.753 86.1429 624.753 85.639C622.713 85.8909 620.672 85.8909 618.631 86.1429V87.1507ZM619.396 88.6623V89.9221L623.733 89.6701C623.733 89.1662 623.733 88.9143 623.733 88.4104L619.396 88.6623ZM619.396 90.6779V91.9377H621.182C621.182 91.4338 621.182 91.1818 621.182 90.6779H619.396ZM619.396 96.2208V97.4805L621.182 97.2286C621.182 96.9766 621.182 96.4727 621.182 96.2208H619.396ZM610.723 97.4805V96.2208H609.958C609.958 96.4727 609.958 96.9766 609.958 97.2286L610.723 97.4805ZM610.723 94.7091V93.4494H607.407C607.407 93.7013 607.407 94.2052 607.407 94.4571L610.723 94.7091ZM610.723 91.9377V90.6779H609.703C609.703 91.1818 609.703 91.4338 609.703 91.9377H610.723ZM610.723 89.9221V88.6623L607.407 88.4104C607.407 88.9143 607.407 89.1662 607.407 89.6701L610.723 89.9221ZM632.151 91.9377V90.6779H630.62C630.62 91.1818 630.62 91.4338 630.62 91.9377H632.151ZM632.151 89.9221V88.6623L628.069 88.4104C628.069 88.9143 628.069 89.1662 628.069 89.6701L632.151 89.9221ZM632.151 87.1507V86.1429L627.049 85.639C627.049 86.1429 627.049 86.6468 627.049 86.8987L632.151 87.1507ZM632.151 84.8831V83.6234L627.049 83.3714C627.049 83.6234 627.049 84.1273 627.049 84.6312L632.151 84.8831ZM606.387 56.6649L609.703 57.1688V56.161C608.683 55.9091 607.662 55.9091 606.387 55.9091V56.6649ZM601.03 57.1688L604.346 56.6649V55.9091C603.326 55.9091 602.05 55.9091 601.03 56.161V57.1688ZM605.366 29.7065C606.132 29.7065 606.642 29.9584 607.407 30.2104C607.407 29.9584 607.407 29.7065 607.407 29.4545C606.642 29.2026 606.132 28.9507 605.366 28.9507C604.856 28.9507 604.091 29.2026 603.581 29.4545C603.581 29.7065 603.581 29.9584 603.581 30.2104C604.091 29.9584 604.856 29.7065 605.366 29.7065ZM605.366 27.9429C606.132 27.9429 606.642 28.1948 607.407 28.1948C607.407 28.1948 607.407 28.1948 607.407 27.9429C606.642 27.6909 606.132 27.6909 605.366 27.439C604.856 27.6909 604.091 27.6909 603.581 27.9429C603.581 28.1948 603.581 28.1948 603.581 28.1948C604.091 28.1948 604.856 27.9429 605.366 27.9429ZM604.346 52.6338C603.326 52.6338 602.05 52.8857 601.03 52.8857C601.03 53.3896 601.03 53.6416 601.03 54.1455C602.05 53.8935 603.326 53.8935 604.346 53.8935C604.346 53.3896 604.346 53.1377 604.346 52.6338ZM604.346 49.3584C603.326 49.3584 602.05 49.6104 601.03 49.6104C601.03 50.1143 601.03 50.3662 601.03 50.8701C602.05 50.6182 603.326 50.6182 604.346 50.6182C604.346 50.1143 604.346 49.8623 604.346 49.3584ZM604.346 46.0831C603.326 46.0831 602.05 46.3351 601.03 46.3351C601.03 46.839 601.03 47.3429 601.03 47.5948C602.05 47.5948 603.326 47.3429 604.346 47.3429C604.346 46.839 604.346 46.587 604.346 46.0831ZM604.346 42.8078C603.326 42.8078 602.05 43.0597 601.03 43.3117C601.03 43.5636 601.03 44.0675 601.03 44.3195C602.05 44.3195 603.326 44.0675 604.346 44.0675C604.346 43.5636 604.346 43.0597 604.346 42.8078ZM604.346 39.5325C603.326 39.7844 602.05 39.7844 601.03 40.0364C601.03 40.2883 601.03 40.7922 601.03 41.2961C602.05 41.0442 603.326 40.7922 604.346 40.7922C604.346 40.2883 604.346 39.7844 604.346 39.5325ZM604.346 36.2571C603.326 36.5091 602.05 36.5091 601.03 36.761C601.03 37.2649 601.03 37.5169 601.03 38.0208C602.05 37.7688 603.326 37.5169 604.346 37.5169C604.346 37.013 604.346 36.5091 604.346 36.2571ZM604.346 32.9818C603.326 33.2338 602.05 33.4857 601.03 33.4857C601.03 33.9896 601.03 34.2416 601.03 34.7455C602.05 34.4935 603.326 34.2416 604.346 33.9896C604.346 33.7377 604.346 33.2338 604.346 32.9818ZM606.387 52.6338C607.662 52.6338 608.683 52.8857 609.703 52.8857C609.703 53.3896 609.703 53.6416 609.703 54.1455C608.683 53.8935 607.662 53.8935 606.387 53.8935C606.387 53.3896 606.387 53.1377 606.387 52.6338ZM606.387 49.3584C607.662 49.3584 608.683 49.6104 609.703 49.6104C609.703 50.1143 609.703 50.3662 609.703 50.8701C608.683 50.6182 607.662 50.6182 606.387 50.6182C606.387 50.1143 606.387 49.8623 606.387 49.3584ZM606.387 46.0831C607.662 46.0831 608.683 46.3351 609.703 46.3351C609.703 46.839 609.703 47.3429 609.703 47.5948C608.683 47.5948 607.662 47.3429 606.387 47.3429C606.387 46.839 606.387 46.587 606.387 46.0831ZM606.387 42.8078C607.662 42.8078 608.683 43.0597 609.703 43.3117C609.703 43.5636 609.703 44.0675 609.703 44.3195C608.683 44.3195 607.662 44.0675 606.387 44.0675C606.387 43.5636 606.387 43.0597 606.387 42.8078ZM606.387 39.5325C607.662 39.7844 608.683 39.7844 609.703 40.0364C609.703 40.2883 609.703 40.7922 609.703 41.2961C608.683 41.0442 607.662 40.7922 606.387 40.7922C606.387 40.2883 606.387 39.7844 606.387 39.5325ZM606.387 36.2571C607.662 36.5091 608.683 36.5091 609.703 36.761C609.703 37.2649 609.703 37.5169 609.703 38.0208C608.683 37.7688 607.662 37.5169 606.387 37.5169C606.387 37.013 606.387 36.5091 606.387 36.2571ZM606.387 32.9818C607.662 33.2338 608.683 33.4857 609.703 33.4857C609.703 33.9896 609.703 34.2416 609.703 34.7455C608.683 34.4935 607.662 34.2416 606.387 33.9896C606.387 33.7377 606.387 33.2338 606.387 32.9818ZM602.305 90.6779C603.071 90.6779 603.836 90.6779 604.856 90.6779C604.856 90.9299 604.856 91.4338 604.856 91.6857C604.091 91.6857 603.071 91.9377 602.305 91.9377C602.305 91.4338 602.305 91.1818 602.305 90.6779ZM604.346 80.852C602.305 81.1039 600.52 81.3558 598.479 81.3558C598.479 81.8597 598.479 82.1117 598.479 82.6156C600.52 82.3636 602.305 82.3636 604.346 82.1117C604.346 81.8597 604.346 81.3558 604.346 80.852ZM600.775 78.8364C599.754 78.8364 598.989 79.0883 598.224 79.0883C598.224 79.3403 598.224 79.8442 598.224 80.0961C598.989 80.0961 599.754 80.0961 600.775 80.0961C600.775 79.5922 600.775 79.3403 600.775 78.8364ZM600.775 76.0649C599.754 76.3169 598.989 76.3169 598.224 76.3169C598.224 76.8208 598.224 77.3247 598.224 77.5766C598.989 77.5766 599.754 77.3247 600.775 77.3247C600.775 77.0727 600.775 76.5688 600.775 76.0649ZM600.775 73.5455C599.754 73.5455 598.989 73.7974 598.224 73.7974C598.224 74.3013 598.224 74.5532 598.224 75.0571C598.989 74.8052 599.754 74.8052 600.775 74.8052C600.775 74.3013 600.775 73.7974 600.775 73.5455ZM600.775 70.774C599.754 71.026 598.989 71.026 598.224 71.2779C598.224 71.5299 598.224 72.0338 598.224 72.2857C598.989 72.2857 599.754 72.0338 600.775 72.0338C600.775 71.5299 600.775 71.2779 600.775 70.774ZM602.305 70.774C602.05 70.774 601.795 70.774 601.54 70.774C601.54 73.7974 601.54 76.8208 601.54 79.8442C601.795 79.8442 602.05 79.8442 602.305 79.8442C602.305 76.8208 602.305 73.7974 602.305 70.774ZM604.346 70.5221C604.091 70.5221 603.836 70.5221 603.326 70.5221C603.326 73.5455 603.326 76.5688 603.326 79.8442C603.836 79.5922 604.091 79.5922 604.346 79.5922C604.346 76.5688 604.346 73.5455 604.346 70.5221ZM604.856 67.4987C603.836 67.7507 602.816 67.7507 601.795 68.0026C601.795 68.2545 601.795 68.7584 601.795 69.2623C602.816 69.0104 603.836 68.7584 604.856 68.7584C604.856 68.2545 604.856 68.0026 604.856 67.4987ZM601.03 68.0026C600.265 68.2545 599.244 68.2545 598.224 68.5065C598.224 68.7584 598.224 69.2623 598.224 69.5143C599.244 69.5143 600.265 69.2623 601.03 69.2623C601.03 68.7584 601.03 68.5065 601.03 68.0026ZM604.091 64.9792C602.56 65.2312 601.03 65.2312 599.244 65.4831C599.244 65.987 599.244 66.4909 599.244 66.7429C601.03 66.4909 602.56 66.239 604.091 65.987C604.091 65.7351 604.091 65.2312 604.091 64.9792ZM604.091 62.2078C603.326 62.2078 602.56 62.4597 601.795 62.4597C601.795 62.9636 601.795 63.2156 601.795 63.7195C602.56 63.7195 603.326 63.4675 604.091 63.2156C604.091 62.9636 604.091 62.4597 604.091 62.2078ZM600.52 62.7117C599.499 62.9636 598.734 62.9636 597.969 63.2156C597.969 63.4675 597.969 63.9714 597.969 64.2234C598.734 64.2234 599.499 63.9714 600.52 63.9714C600.52 63.4675 600.52 63.2156 600.52 62.7117ZM604.601 59.9403C602.816 60.1922 601.03 60.4442 599.244 60.6961C599.244 61.2 599.244 61.7039 599.244 61.9558C601.03 61.7039 602.816 61.4519 604.601 61.2C604.601 60.6961 604.601 60.1922 604.601 59.9403ZM603.326 57.9247C601.795 58.1766 600.01 58.4286 598.224 58.9325C598.224 59.1844 598.224 59.6883 598.224 59.9403C600.01 59.6883 601.795 59.4364 603.326 59.1844C603.326 58.6805 603.326 58.4286 603.326 57.9247ZM608.428 90.6779C607.662 90.6779 606.897 90.6779 606.132 90.6779C606.132 90.9299 606.132 91.4338 606.132 91.6857C606.897 91.6857 607.662 91.9377 608.428 91.9377C608.428 91.4338 608.428 91.1818 608.428 90.6779ZM606.387 83.3714C608.428 83.3714 610.468 83.6234 612.254 83.6234C612.254 84.1273 612.254 84.6312 612.254 84.8831C610.468 84.8831 608.428 84.6312 606.387 84.6312C606.387 84.1273 606.387 83.6234 606.387 83.3714ZM606.387 80.852C608.428 81.1039 610.468 81.3558 612.254 81.3558C612.254 81.8597 612.254 82.1117 612.254 82.6156C610.468 82.3636 608.428 82.3636 606.387 82.1117C606.387 81.8597 606.387 81.3558 606.387 80.852ZM609.958 78.8364C610.978 78.8364 611.744 79.0883 612.764 79.0883C612.764 79.3403 612.764 79.8442 612.764 80.0961C611.744 80.0961 610.978 80.0961 609.958 80.0961C609.958 79.5922 609.958 79.3403 609.958 78.8364ZM609.958 76.0649C610.978 76.3169 611.744 76.3169 612.764 76.3169C612.764 76.8208 612.764 77.3247 612.764 77.5766C611.744 77.5766 610.978 77.3247 609.958 77.3247C609.958 77.0727 609.958 76.5688 609.958 76.0649ZM609.958 73.5455C610.978 73.5455 611.744 73.7974 612.764 73.7974C612.764 74.3013 612.764 74.5532 612.764 75.0571C611.744 74.8052 610.978 74.8052 609.958 74.8052C609.958 74.3013 609.958 73.7974 609.958 73.5455ZM610.213 70.774C610.978 71.026 611.744 71.026 612.764 71.2779C612.764 71.5299 612.764 72.0338 612.764 72.2857C611.744 72.2857 610.978 72.0338 610.213 72.0338C610.213 71.5299 610.213 71.2779 610.213 70.774ZM608.428 70.774C608.683 70.774 608.938 70.774 609.448 70.774C609.448 73.7974 609.448 76.8208 609.448 79.8442C608.938 79.8442 608.683 79.8442 608.428 79.8442C608.428 76.8208 608.428 73.7974 608.428 70.774ZM606.387 70.5221C606.897 70.5221 607.152 70.5221 607.407 70.5221C607.407 73.5455 607.407 76.5688 607.407 79.8442C607.152 79.5922 606.897 79.5922 606.387 79.5922C606.387 76.5688 606.387 73.5455 606.387 70.5221ZM606.132 67.4987C607.152 67.7507 607.917 67.7507 608.938 68.0026C608.938 68.2545 608.938 68.7584 608.938 69.2623C607.917 69.0104 607.152 68.7584 606.132 68.7584C606.132 68.2545 606.132 68.0026 606.132 67.4987ZM609.703 68.0026C610.723 68.2545 611.744 68.2545 612.509 68.5065C612.509 68.7584 612.509 69.2623 612.509 69.5143C611.744 69.5143 610.723 69.2623 609.703 69.2623C609.703 68.7584 609.703 68.5065 609.703 68.0026ZM606.642 64.9792C608.172 65.2312 609.958 65.2312 611.489 65.4831C611.489 65.987 611.489 66.4909 611.489 66.7429C609.958 66.4909 608.172 66.239 606.642 65.987C606.642 65.7351 606.642 65.2312 606.642 64.9792ZM606.642 62.2078C607.407 62.2078 608.428 62.4597 609.193 62.4597C609.193 62.9636 609.193 63.2156 609.193 63.7195C608.428 63.7195 607.407 63.4675 606.642 63.2156C606.642 62.9636 606.642 62.4597 606.642 62.2078ZM610.468 62.7117C611.234 62.9636 611.999 62.9636 612.764 63.2156C612.764 63.4675 612.764 63.9714 612.764 64.2234C611.999 64.2234 611.234 63.9714 610.468 63.9714C610.468 63.4675 610.468 63.2156 610.468 62.7117ZM606.132 59.9403C607.917 60.1922 609.703 60.4442 611.489 60.6961C611.489 61.2 611.489 61.7039 611.489 61.9558C609.703 61.7039 607.917 61.4519 606.132 61.2C606.132 60.6961 606.132 60.1922 606.132 59.9403ZM607.407 57.9247C609.193 58.1766 610.978 58.4286 612.764 58.9325C612.764 59.1844 612.764 59.6883 612.764 59.9403C610.978 59.6883 609.193 59.4364 607.407 59.1844C607.407 58.6805 607.407 58.4286 607.407 57.9247ZM622.457 90.6779C623.478 90.6779 624.243 90.6779 625.263 90.6779C625.263 90.9299 625.263 91.4338 625.263 91.6857C624.243 91.6857 623.478 91.9377 622.457 91.9377C622.457 91.4338 622.457 91.1818 622.457 90.6779ZM624.753 83.3714C622.713 83.3714 620.672 83.6234 618.631 83.6234C618.631 84.1273 618.631 84.6312 618.631 84.8831C620.672 84.8831 622.713 84.6312 624.753 84.6312C624.753 84.1273 624.753 83.6234 624.753 83.3714ZM624.753 80.852C622.713 81.1039 620.672 81.3558 618.631 81.3558C618.631 81.8597 618.631 82.1117 618.631 82.6156C620.672 82.3636 622.713 82.3636 624.753 82.1117C624.753 81.8597 624.753 81.3558 624.753 80.852ZM620.927 78.8364C619.907 78.8364 619.141 79.0883 618.121 79.0883C618.121 79.3403 618.121 79.8442 618.121 80.0961C619.141 80.0961 619.907 80.0961 620.927 80.0961C620.927 79.5922 620.927 79.3403 620.927 78.8364ZM620.927 76.0649C619.907 76.3169 619.141 76.3169 618.121 76.3169C618.121 76.8208 618.121 77.3247 618.121 77.5766C619.141 77.5766 619.907 77.3247 620.927 77.3247C620.927 77.0727 620.927 76.5688 620.927 76.0649ZM620.927 73.5455C619.907 73.5455 619.141 73.7974 618.121 73.7974C618.121 74.3013 618.121 74.5532 618.121 75.0571C619.141 74.8052 619.907 74.8052 620.927 74.8052C620.927 74.3013 620.927 73.7974 620.927 73.5455ZM620.927 70.774C619.907 71.026 619.141 71.026 618.121 71.2779C618.121 71.5299 618.121 72.0338 618.121 72.2857C619.141 72.2857 619.907 72.0338 620.927 72.0338C620.927 71.5299 620.927 71.2779 620.927 70.774ZM622.713 70.774C622.457 70.774 621.947 70.774 621.692 70.774C621.692 73.7974 621.692 76.8208 621.692 79.8442C621.947 79.8442 622.457 79.8442 622.713 79.8442C622.713 76.8208 622.713 73.7974 622.713 70.774ZM624.753 70.5221C624.498 70.5221 623.988 70.5221 623.733 70.5221C623.733 73.5455 623.733 76.5688 623.733 79.8442C623.988 79.5922 624.498 79.5922 624.753 79.5922C624.753 76.5688 624.753 73.5455 624.753 70.5221ZM625.263 67.4987C624.243 67.7507 622.968 67.7507 621.947 68.0026C621.947 68.2545 621.947 68.7584 621.947 69.2623C622.968 69.0104 624.243 68.7584 625.263 68.7584C625.263 68.2545 625.263 68.0026 625.263 67.4987ZM621.437 68.0026C620.417 68.2545 619.396 68.2545 618.376 68.5065C618.376 68.7584 618.376 69.2623 618.376 69.5143C619.396 69.5143 620.417 69.2623 621.437 69.2623C621.437 68.7584 621.437 68.5065 621.437 68.0026ZM624.498 64.9792C622.968 65.2312 621.182 65.2312 619.396 65.4831C619.396 65.987 619.396 66.4909 619.396 66.7429C621.182 66.4909 622.968 66.239 624.498 65.987C624.498 65.7351 624.498 65.2312 624.498 64.9792ZM624.498 62.2078C623.733 62.2078 622.713 62.4597 621.947 62.4597C621.947 62.9636 621.947 63.2156 621.947 63.7195C622.713 63.7195 623.733 63.4675 624.498 63.2156C624.498 62.9636 624.498 62.4597 624.498 62.2078ZM620.672 62.7117C619.651 62.9636 618.886 62.9636 618.121 63.2156C618.121 63.4675 618.121 63.9714 618.121 64.2234C618.886 64.2234 619.651 63.9714 620.672 63.9714C620.672 63.4675 620.672 63.2156 620.672 62.7117ZM625.008 59.9403C623.223 60.1922 621.437 60.4442 619.396 60.6961C619.396 61.2 619.396 61.7039 619.396 61.9558C621.437 61.7039 623.223 61.4519 625.008 61.2C625.008 60.6961 625.008 60.1922 625.008 59.9403ZM623.733 57.9247C621.947 58.1766 620.162 58.4286 618.121 58.9325C618.121 59.1844 618.121 59.6883 618.121 59.9403C620.162 59.6883 621.947 59.4364 623.733 59.1844C623.733 58.6805 623.733 58.4286 623.733 57.9247ZM629.09 90.6779C628.325 90.6779 627.304 90.6779 626.539 90.6779C626.539 90.9299 626.539 91.4338 626.539 91.6857C627.304 91.6857 628.325 91.9377 629.09 91.9377C629.09 91.4338 629.09 91.1818 629.09 90.6779ZM627.049 80.852C629.09 81.1039 631.131 81.3558 633.171 81.3558C633.171 81.8597 633.171 82.1117 633.171 82.6156C631.131 82.3636 629.09 82.3636 627.049 82.1117C627.049 81.8597 627.049 81.3558 627.049 80.852ZM630.875 78.8364C631.641 78.8364 632.661 79.0883 633.681 79.0883C633.681 79.3403 633.681 79.8442 633.681 80.0961C632.661 80.0961 631.641 80.0961 630.875 80.0961C630.875 79.5922 630.875 79.3403 630.875 78.8364ZM630.875 76.0649C631.641 76.3169 632.661 76.3169 633.681 76.3169C633.681 76.8208 633.681 77.3247 633.681 77.5766C632.661 77.5766 631.641 77.3247 630.875 77.3247C630.875 77.0727 630.875 76.5688 630.875 76.0649ZM630.875 73.5455C631.641 73.5455 632.661 73.7974 633.681 73.7974C633.681 74.3013 633.681 74.5532 633.681 75.0571C632.661 74.8052 631.641 74.8052 630.875 74.8052C630.875 74.3013 630.875 73.7974 630.875 73.5455ZM630.875 70.774C631.641 71.026 632.661 71.026 633.681 71.2779C633.681 71.5299 633.681 72.0338 633.681 72.2857C632.661 72.2857 631.641 72.0338 630.875 72.0338C630.875 71.5299 630.875 71.2779 630.875 70.774ZM629.09 70.774C629.345 70.774 629.855 70.774 630.11 70.774C630.11 73.7974 630.11 76.8208 630.11 79.8442C629.855 79.8442 629.345 79.8442 629.09 79.8442C629.09 76.8208 629.09 73.7974 629.09 70.774ZM627.049 70.5221C627.304 70.5221 627.559 70.5221 628.069 70.5221C628.069 73.5455 628.069 76.5688 628.069 79.8442C627.559 79.5922 627.304 79.5922 627.049 79.5922C627.049 76.5688 627.049 73.5455 627.049 70.5221ZM626.539 67.4987C627.559 67.7507 628.58 67.7507 629.6 68.0026C629.6 68.2545 629.6 68.7584 629.6 69.2623C628.58 69.0104 627.559 68.7584 626.539 68.7584C626.539 68.2545 626.539 68.0026 626.539 67.4987ZM630.365 68.0026C631.386 68.2545 632.406 68.2545 633.426 68.5065C633.426 68.7584 633.426 69.2623 633.426 69.5143C632.406 69.5143 631.386 69.2623 630.365 69.2623C630.365 68.7584 630.365 68.5065 630.365 68.0026ZM627.049 64.9792C628.835 65.2312 630.62 65.2312 632.406 65.4831C632.406 65.987 632.406 66.4909 632.406 66.7429C630.62 66.4909 628.835 66.239 627.049 65.987C627.049 65.7351 627.049 65.2312 627.049 64.9792ZM627.304 62.2078C628.069 62.2078 629.09 62.4597 629.855 62.4597C629.855 62.9636 629.855 63.2156 629.855 63.7195C629.09 63.7195 628.069 63.4675 627.304 63.2156C627.304 62.9636 627.304 62.4597 627.304 62.2078ZM631.131 62.7117C632.151 62.9636 632.916 62.9636 633.681 63.2156C633.681 63.4675 633.681 63.9714 633.681 64.2234C632.916 64.2234 632.151 63.9714 631.131 63.9714C631.131 63.4675 631.131 63.2156 631.131 62.7117ZM626.539 59.9403C628.58 60.1922 630.365 60.4442 632.406 60.6961C632.406 61.2 632.406 61.7039 632.406 61.9558C630.365 61.7039 628.58 61.4519 626.539 61.2C626.539 60.6961 626.539 60.1922 626.539 59.9403ZM628.069 57.9247C629.855 58.1766 631.641 58.4286 633.426 58.9325C633.426 59.1844 633.426 59.6883 633.426 59.9403C631.641 59.6883 629.855 59.4364 628.069 59.1844C628.069 58.6805 628.069 58.4286 628.069 57.9247Z" fill="#A3C8EA" fill-opacity="0.7"/>
<path d="M118.08 54.614H111.128V41.04H109.39V56H118.256L118.08 54.614ZM120.761 47.288C121.289 47.0533 121.773 46.8773 122.213 46.76C122.667 46.628 123.21 46.562 123.841 46.562C124.647 46.562 125.234 46.7893 125.601 47.244C125.982 47.6987 126.173 48.322 126.173 49.114V49.708H123.423C122.264 49.708 121.333 49.994 120.629 50.566C119.925 51.138 119.573 51.9373 119.573 52.964C119.573 53.9467 119.881 54.746 120.497 55.362C121.127 55.978 122.037 56.286 123.225 56.286C123.782 56.286 124.354 56.154 124.941 55.89C125.527 55.6113 126.019 55.2887 126.415 54.922L126.635 56H127.933V48.63C127.933 47.9407 127.757 47.3247 127.405 46.782C127.053 46.2393 126.561 45.814 125.931 45.506C125.3 45.198 124.581 45.044 123.775 45.044C123.291 45.044 122.675 45.132 121.927 45.308C121.193 45.484 120.636 45.704 120.255 45.968L120.761 47.288ZM121.179 52.964C121.179 52.3773 121.369 51.886 121.751 51.49C122.147 51.0793 122.689 50.874 123.379 50.874H126.195V53.294C125.799 53.7633 125.337 54.1447 124.809 54.438C124.295 54.7313 123.753 54.878 123.181 54.878C122.521 54.878 122.022 54.6873 121.685 54.306C121.347 53.9247 121.179 53.4773 121.179 52.964ZM140.633 56L143.779 45.33H142.019L139.775 53.514L137.399 45.33H135.639L133.395 53.514L131.019 45L129.435 45.66L132.537 56H134.231L136.497 47.882L138.917 56H140.633ZM157.139 40.688C155.79 40.7173 154.58 41.0767 153.509 41.766C152.438 42.4553 151.595 43.394 150.979 44.582C150.378 45.77 150.077 47.1047 150.077 48.586C150.077 50.0673 150.378 51.3947 150.979 52.568C151.58 53.7413 152.409 54.658 153.465 55.318C154.521 55.978 155.716 56.308 157.051 56.308C158.4 56.2933 159.618 55.9413 160.703 55.252C161.788 54.5627 162.632 53.624 163.233 52.436C163.849 51.2333 164.157 49.8913 164.157 48.41C164.157 46.9287 163.856 45.6013 163.255 44.428C162.654 43.2547 161.818 42.338 160.747 41.678C159.676 41.018 158.474 40.688 157.139 40.688ZM151.903 48.564C151.903 47.3467 152.13 46.2613 152.585 45.308C153.04 44.34 153.663 43.5847 154.455 43.042C155.262 42.4847 156.171 42.206 157.183 42.206C158.166 42.206 159.038 42.4773 159.801 43.02C160.578 43.548 161.187 44.2887 161.627 45.242C162.067 46.1807 162.287 47.244 162.287 48.432C162.287 49.6493 162.06 50.742 161.605 51.71C161.15 52.678 160.52 53.4333 159.713 53.976C158.921 54.5187 158.019 54.79 157.007 54.79C156.024 54.79 155.144 54.526 154.367 53.998C153.604 53.4553 153.003 52.7147 152.563 51.776C152.123 50.8227 151.903 49.752 151.903 48.564ZM167.052 46.826V56H168.79V46.826H171.32L170.748 45.506H168.79V43.944C168.79 42.7267 169.289 42.118 170.286 42.118C170.433 42.118 170.602 42.14 170.792 42.184C170.983 42.228 171.137 42.2793 171.254 42.338L171.65 40.93C171.46 40.8273 171.218 40.7393 170.924 40.666C170.631 40.5927 170.338 40.556 170.044 40.556C169.12 40.556 168.387 40.8567 167.844 41.458C167.316 42.0447 167.052 42.8367 167.052 43.834V45.506H165.424L165.446 46.826H167.052ZM173.626 46.826V56H175.364V46.826H177.894L177.322 45.506H175.364V43.944C175.364 42.7267 175.863 42.118 176.86 42.118C177.007 42.118 177.176 42.14 177.366 42.184C177.557 42.228 177.711 42.2793 177.828 42.338L178.224 40.93C178.034 40.8273 177.792 40.7393 177.498 40.666C177.205 40.5927 176.912 40.556 176.618 40.556C175.694 40.556 174.961 40.8567 174.418 41.458C173.89 42.0447 173.626 42.8367 173.626 43.834V45.506H171.998L172.02 46.826H173.626ZM180.465 43.196C180.787 43.196 181.066 43.086 181.301 42.866C181.535 42.6313 181.653 42.3527 181.653 42.03C181.653 41.7073 181.535 41.4287 181.301 41.194C181.066 40.9593 180.787 40.842 180.465 40.842C180.127 40.842 179.849 40.9593 179.629 41.194C179.409 41.414 179.299 41.6927 179.299 42.03C179.299 42.3673 179.409 42.646 179.629 42.866C179.849 43.086 180.127 43.196 180.465 43.196ZM181.367 56V45.33H179.607V56H181.367ZM191.554 54.064C191.041 54.328 190.579 54.5187 190.168 54.636C189.758 54.7533 189.23 54.812 188.584 54.812C187.514 54.812 186.685 54.4233 186.098 53.646C185.512 52.8687 185.218 51.8567 185.218 50.61C185.233 49.422 185.548 48.4467 186.164 47.684C186.78 46.9067 187.616 46.518 188.672 46.518C189.288 46.518 189.787 46.5767 190.168 46.694C190.564 46.8113 191.056 46.9947 191.642 47.244L192.17 46.012C191.745 45.7333 191.18 45.506 190.476 45.33C189.787 45.1393 189.2 45.044 188.716 45.044C187.66 45.044 186.736 45.286 185.944 45.77C185.152 46.2393 184.536 46.8993 184.096 47.75C183.671 48.586 183.458 49.5467 183.458 50.632C183.458 51.732 183.664 52.7147 184.074 53.58C184.485 54.4307 185.079 55.098 185.856 55.582C186.634 56.0513 187.55 56.286 188.606 56.286C189.09 56.286 189.684 56.1907 190.388 56C191.092 55.824 191.664 55.5967 192.104 55.318L191.554 54.064ZM203.061 50.94C203.061 49.18 202.687 47.7573 201.939 46.672C201.205 45.5867 200.061 45.044 198.507 45.044C197.48 45.044 196.585 45.286 195.823 45.77C195.075 46.2393 194.503 46.8993 194.107 47.75C193.725 48.586 193.535 49.5467 193.535 50.632C193.535 52.348 194.011 53.7193 194.965 54.746C195.918 55.7727 197.304 56.286 199.123 56.286C199.856 56.286 200.523 56.1907 201.125 56C201.726 55.7947 202.327 55.5233 202.929 55.186L202.379 53.91C201.719 54.2327 201.147 54.4673 200.663 54.614C200.193 54.7607 199.673 54.834 199.101 54.834C197.839 54.834 196.901 54.4893 196.285 53.8C195.683 53.096 195.361 52.1427 195.317 50.94H203.061ZM195.361 49.752C195.463 48.7547 195.771 47.97 196.285 47.398C196.813 46.8113 197.531 46.518 198.441 46.518C200.127 46.518 201.095 47.596 201.345 49.752H195.361ZM204.623 55.384C205.019 55.6627 205.562 55.8827 206.251 56.044C206.94 56.2053 207.534 56.286 208.033 56.286C209.412 56.286 210.468 56.0147 211.201 55.472C211.949 54.9293 212.323 54.1667 212.323 53.184C212.323 51.8053 211.128 50.676 208.737 49.796C207.945 49.532 207.336 49.2607 206.911 48.982C206.486 48.7033 206.266 48.3733 206.251 47.992C206.251 47.5373 206.456 47.1707 206.867 46.892C207.292 46.5987 207.835 46.452 208.495 46.452C209.038 46.452 209.522 46.518 209.947 46.65C210.372 46.782 210.827 46.958 211.311 47.178L211.861 45.99C211.48 45.7113 210.952 45.484 210.277 45.308C209.617 45.132 209.038 45.044 208.539 45.044C207.307 45.044 206.332 45.3153 205.613 45.858C204.909 46.386 204.557 47.1193 204.557 48.058C204.557 48.8353 204.88 49.4733 205.525 49.972C206.17 50.4707 207.006 50.8887 208.033 51.226C209.793 51.8127 210.673 52.502 210.673 53.294C210.673 53.7927 210.438 54.1813 209.969 54.46C209.5 54.7387 208.862 54.878 208.055 54.878C207.131 54.878 206.17 54.6287 205.173 54.13L204.623 55.384ZM229.248 50.698C229.248 51.7833 229.028 52.7513 228.588 53.602C228.163 54.438 227.547 55.098 226.74 55.582C225.933 56.0513 224.995 56.286 223.924 56.286C222.897 56.286 222.003 56.0513 221.24 55.582C220.477 55.098 219.891 54.4307 219.48 53.58C219.084 52.7147 218.886 51.732 218.886 50.632C218.901 49.5467 219.113 48.586 219.524 47.75C219.949 46.8993 220.558 46.2393 221.35 45.77C222.142 45.286 223.066 45.044 224.122 45.044C225.721 45.044 226.975 45.5573 227.884 46.584C228.793 47.596 229.248 48.9673 229.248 50.698ZM224.012 54.812C225.068 54.812 225.904 54.4307 226.52 53.668C227.136 52.8907 227.451 51.908 227.466 50.72C227.466 49.4587 227.173 48.4467 226.586 47.684C225.999 46.9067 225.171 46.518 224.1 46.518C223.044 46.518 222.208 46.9067 221.592 47.684C220.976 48.4467 220.661 49.422 220.646 50.61C220.646 51.8567 220.939 52.8687 221.526 53.646C222.113 54.4233 222.941 54.812 224.012 54.812ZM231.935 46.826V56H233.673V46.826H236.203L235.631 45.506H233.673V43.944C233.673 42.7267 234.172 42.118 235.169 42.118C235.316 42.118 235.484 42.14 235.675 42.184C235.866 42.228 236.02 42.2793 236.137 42.338L236.533 40.93C236.342 40.8273 236.1 40.7393 235.807 40.666C235.514 40.5927 235.22 40.556 234.927 40.556C234.003 40.556 233.27 40.8567 232.727 41.458C232.199 42.0447 231.935 42.8367 231.935 43.834V45.506H230.307L230.329 46.826H231.935ZM247.428 41.04L241.884 56H243.578L245.14 51.754H251.454L253.126 56.154L254.842 55.868L249.1 41.04H247.428ZM250.948 50.346H245.624L248.242 43.328L250.948 50.346ZM258.414 56V40.468L256.676 40.688V56H258.414ZM260.826 55.384C261.222 55.6627 261.765 55.8827 262.454 56.044C263.144 56.2053 263.738 56.286 264.236 56.286C265.615 56.286 266.671 56.0147 267.404 55.472C268.152 54.9293 268.526 54.1667 268.526 53.184C268.526 51.8053 267.331 50.676 264.94 49.796C264.148 49.532 263.54 49.2607 263.114 48.982C262.689 48.7033 262.469 48.3733 262.454 47.992C262.454 47.5373 262.66 47.1707 263.07 46.892C263.496 46.5987 264.038 46.452 264.698 46.452C265.241 46.452 265.725 46.518 266.15 46.65C266.576 46.782 267.03 46.958 267.514 47.178L268.064 45.99C267.683 45.7113 267.155 45.484 266.48 45.308C265.82 45.132 265.241 45.044 264.742 45.044C263.51 45.044 262.535 45.3153 261.816 45.858C261.112 46.386 260.76 47.1193 260.76 48.058C260.76 48.8353 261.083 49.4733 261.728 49.972C262.374 50.4707 263.21 50.8887 264.236 51.226C265.996 51.8127 266.876 52.502 266.876 53.294C266.876 53.7927 266.642 54.1813 266.172 54.46C265.703 54.7387 265.065 54.878 264.258 54.878C263.334 54.878 262.374 54.6287 261.376 54.13L260.826 55.384ZM272.881 45.506V42.294L271.143 42.778V45.506H269.581L269.603 46.826H271.143V53.228C271.143 54.2253 271.407 54.9953 271.935 55.538C272.477 56.066 273.211 56.33 274.135 56.33C274.692 56.33 275.235 56.2053 275.763 55.956L275.367 54.592C275 54.7387 274.677 54.812 274.399 54.812C273.885 54.812 273.504 54.6507 273.255 54.328C273.005 54.0053 272.881 53.558 272.881 52.986V46.826H275.389L274.817 45.506H272.881ZM286.527 50.94C286.527 49.18 286.153 47.7573 285.405 46.672C284.672 45.5867 283.528 45.044 281.973 45.044C280.947 45.044 280.052 45.286 279.289 45.77C278.541 46.2393 277.969 46.8993 277.573 47.75C277.192 48.586 277.001 49.5467 277.001 50.632C277.001 52.348 277.478 53.7193 278.431 54.746C279.385 55.7727 280.771 56.286 282.589 56.286C283.323 56.286 283.99 56.1907 284.591 56C285.193 55.7947 285.794 55.5233 286.395 55.186L285.845 53.91C285.185 54.2327 284.613 54.4673 284.129 54.614C283.66 54.7607 283.139 54.834 282.567 54.834C281.306 54.834 280.367 54.4893 279.751 53.8C279.15 53.096 278.827 52.1427 278.783 50.94H286.527ZM278.827 49.752C278.93 48.7547 279.238 47.97 279.751 47.398C280.279 46.8113 280.998 46.518 281.907 46.518C283.594 46.518 284.562 47.596 284.811 49.752H278.827ZM289.498 43.196C289.821 43.196 290.099 43.086 290.334 42.866C290.569 42.6313 290.686 42.3527 290.686 42.03C290.686 41.7073 290.569 41.4287 290.334 41.194C290.099 40.9593 289.821 40.842 289.498 40.842C289.161 40.842 288.882 40.9593 288.662 41.194C288.442 41.414 288.332 41.6927 288.332 42.03C288.332 42.3673 288.442 42.646 288.662 42.866C288.882 43.086 289.161 43.196 289.498 43.196ZM290.4 56V45.33H288.64V56H290.4ZM294.89 48.432C295.403 47.8747 295.99 47.4127 296.65 47.046C297.324 46.6793 297.926 46.496 298.454 46.496C299.143 46.496 299.634 46.716 299.928 47.156C300.221 47.596 300.368 48.212 300.368 49.004V55.978H302.106V48.762C302.106 47.618 301.827 46.7087 301.27 46.034C300.727 45.3447 299.891 45 298.762 45C298.087 45 297.376 45.176 296.628 45.528C295.88 45.88 295.249 46.32 294.736 46.848L294.45 45.33H293.152V56H294.89V48.432ZM305.346 53.646C305.023 53.646 304.745 53.7633 304.51 53.998C304.275 54.2327 304.158 54.504 304.158 54.812C304.158 55.1053 304.261 55.3693 304.466 55.604C304.671 55.8387 304.906 55.9633 305.17 55.978C305.141 56.3593 305.016 56.6893 304.796 56.968C304.576 57.2467 304.261 57.5327 303.85 57.826L304.312 58.64C304.943 58.3173 305.471 57.804 305.896 57.1C306.336 56.4107 306.556 55.714 306.556 55.01C306.556 54.5993 306.439 54.2693 306.204 54.02C305.984 53.7707 305.698 53.646 305.346 53.646ZM319.08 56C320.752 56 322.094 55.6627 323.106 54.988C324.118 54.3133 324.624 53.25 324.624 51.798C324.624 50.83 324.367 50.0307 323.854 49.4C323.355 48.7693 322.651 48.3 321.742 47.992C322.358 47.64 322.856 47.222 323.238 46.738C323.619 46.2393 323.81 45.66 323.81 45C323.81 43.5773 323.348 42.5653 322.424 41.964C321.5 41.348 320.209 41.04 318.552 41.04H314.394V56H319.08ZM318.486 42.514C319.674 42.514 320.561 42.69 321.148 43.042C321.749 43.394 322.05 44.054 322.05 45.022C322.05 45.9167 321.69 46.562 320.972 46.958C320.268 47.3393 319.329 47.5373 318.156 47.552H316.132V42.514H318.486ZM319.278 48.96C320.407 48.96 321.287 49.1947 321.918 49.664C322.548 50.1333 322.864 50.8593 322.864 51.842C322.864 53.646 321.595 54.548 319.058 54.548H316.132V48.96H319.278ZM328.448 48.652C328.947 48.1387 329.556 47.6913 330.274 47.31C330.993 46.914 331.646 46.716 332.232 46.716L331.814 45.33C331.301 45.33 330.707 45.5133 330.032 45.88C329.358 46.2467 328.778 46.6353 328.294 47.046L327.744 45.33H326.71V56H328.448V48.652ZM343.545 50.698C343.545 51.7833 343.325 52.7513 342.885 53.602C342.46 54.438 341.844 55.098 341.037 55.582C340.23 56.0513 339.292 56.286 338.221 56.286C337.194 56.286 336.3 56.0513 335.537 55.582C334.774 55.098 334.188 54.4307 333.777 53.58C333.381 52.7147 333.183 51.732 333.183 50.632C333.198 49.5467 333.41 48.586 333.821 47.75C334.246 46.8993 334.855 46.2393 335.647 45.77C336.439 45.286 337.363 45.044 338.419 45.044C340.018 45.044 341.272 45.5573 342.181 46.584C343.09 47.596 343.545 48.9673 343.545 50.698ZM338.309 54.812C339.365 54.812 340.201 54.4307 340.817 53.668C341.433 52.8907 341.748 51.908 341.763 50.72C341.763 49.4587 341.47 48.4467 340.883 47.684C340.296 46.9067 339.468 46.518 338.397 46.518C337.341 46.518 336.505 46.9067 335.889 47.684C335.273 48.4467 334.958 49.422 334.943 50.61C334.943 51.8567 335.236 52.8687 335.823 53.646C336.41 54.4233 337.238 54.812 338.309 54.812ZM355.67 56L358.816 45.33H357.056L354.812 53.514L352.436 45.33H350.676L348.432 53.514L346.056 45L344.472 45.66L347.574 56H349.268L351.534 47.882L353.954 56H355.67ZM362.157 48.432C362.671 47.8747 363.257 47.4127 363.917 47.046C364.592 46.6793 365.193 46.496 365.721 46.496C366.411 46.496 366.902 46.716 367.195 47.156C367.489 47.596 367.635 48.212 367.635 49.004V55.978H369.373V48.762C369.373 47.618 369.095 46.7087 368.537 46.034C367.995 45.3447 367.159 45 366.029 45C365.355 45 364.643 45.176 363.895 45.528C363.147 45.88 362.517 46.32 362.003 46.848L361.717 45.33H360.419V56H362.157V48.432ZM389.805 54.878L388.001 53.228C388.631 52.04 388.991 50.5733 389.079 48.828L387.671 48.278C387.553 49.818 387.238 51.094 386.725 52.106L382.391 48.036C381.555 47.2587 380.975 46.6427 380.653 46.188C380.33 45.7187 380.169 45.1613 380.169 44.516C380.169 43.8853 380.389 43.3353 380.829 42.866C381.283 42.3967 381.877 42.162 382.611 42.162C383.168 42.162 383.623 42.2207 383.975 42.338C384.341 42.4407 384.664 42.558 384.943 42.69C385.221 42.822 385.412 42.91 385.515 42.954L386.131 41.612C385.544 41.3187 384.979 41.0913 384.437 40.93C383.894 40.7687 383.285 40.688 382.611 40.688C381.76 40.688 381.019 40.8713 380.389 41.238C379.758 41.59 379.274 42.0667 378.937 42.668C378.614 43.2693 378.453 43.9293 378.453 44.648C378.453 45.484 378.68 46.232 379.135 46.892C378.431 47.3613 377.859 47.9993 377.419 48.806C376.993 49.598 376.773 50.456 376.759 51.38C376.759 52.4213 377.001 53.3087 377.485 54.042C377.983 54.7753 378.658 55.3327 379.509 55.714C380.374 56.0807 381.342 56.2713 382.413 56.286C384.407 56.286 385.969 55.6773 387.099 54.46L388.881 56.088L389.805 54.878ZM385.889 53.338C385.053 54.2913 383.894 54.768 382.413 54.768C381.342 54.768 380.425 54.4747 379.663 53.888C378.9 53.3013 378.519 52.4507 378.519 51.336C378.533 50.6027 378.68 49.95 378.959 49.378C379.252 48.7913 379.648 48.3367 380.147 48.014C380.293 48.19 380.565 48.4613 380.961 48.828L385.889 53.338ZM407.369 41.59C406.943 41.326 406.349 41.1207 405.587 40.974C404.824 40.8127 404.171 40.732 403.629 40.732C402.221 40.732 400.981 41.0767 399.911 41.766C398.84 42.4553 398.019 43.4013 397.447 44.604C396.875 45.792 396.589 47.1267 396.589 48.608C396.589 50.016 396.853 51.3067 397.381 52.48C397.909 53.6533 398.693 54.5847 399.735 55.274C400.776 55.9633 402.03 56.308 403.497 56.308C404.127 56.308 404.817 56.22 405.565 56.044C406.327 55.8827 406.936 55.6847 407.391 55.45L406.731 54.13C406.276 54.3353 405.785 54.4967 405.257 54.614C404.743 54.7313 404.135 54.79 403.431 54.79C402.404 54.79 401.509 54.5187 400.747 53.976C399.984 53.4187 399.405 52.6707 399.009 51.732C398.613 50.7787 398.415 49.73 398.415 48.586C398.415 47.3687 398.642 46.276 399.097 45.308C399.551 44.34 400.175 43.5847 400.967 43.042C401.773 42.4993 402.661 42.228 403.629 42.228C404.318 42.228 404.875 42.2793 405.301 42.382C405.726 42.47 406.232 42.624 406.819 42.844L407.369 41.59ZM410.177 47.288C410.705 47.0533 411.189 46.8773 411.629 46.76C412.083 46.628 412.626 46.562 413.257 46.562C414.063 46.562 414.65 46.7893 415.017 47.244C415.398 47.6987 415.589 48.322 415.589 49.114V49.708H412.839C411.68 49.708 410.749 49.994 410.045 50.566C409.341 51.138 408.989 51.9373 408.989 52.964C408.989 53.9467 409.297 54.746 409.913 55.362C410.543 55.978 411.453 56.286 412.641 56.286C413.198 56.286 413.77 56.154 414.357 55.89C414.943 55.6113 415.435 55.2887 415.831 54.922L416.051 56H417.349V48.63C417.349 47.9407 417.173 47.3247 416.821 46.782C416.469 46.2393 415.977 45.814 415.347 45.506C414.716 45.198 413.997 45.044 413.191 45.044C412.707 45.044 412.091 45.132 411.343 45.308C410.609 45.484 410.052 45.704 409.671 45.968L410.177 47.288ZM410.595 52.964C410.595 52.3773 410.785 51.886 411.167 51.49C411.563 51.0793 412.105 50.874 412.795 50.874H415.611V53.294C415.215 53.7633 414.753 54.1447 414.225 54.438C413.711 54.7313 413.169 54.878 412.597 54.878C411.937 54.878 411.438 54.6873 411.101 54.306C410.763 53.9247 410.595 53.4773 410.595 52.964ZM432.139 45C433.224 45 434.031 45.3447 434.559 46.034C435.087 46.7087 435.351 47.618 435.351 48.762V55.978H433.613V49.004C433.613 48.212 433.481 47.596 433.217 47.156C432.953 46.716 432.498 46.496 431.853 46.496C431.398 46.496 430.87 46.6647 430.269 47.002C429.682 47.3247 429.132 47.7427 428.619 48.256C428.634 48.3587 428.641 48.5273 428.641 48.762V55.978H426.903V49.004C426.903 48.212 426.771 47.596 426.507 47.156C426.243 46.716 425.788 46.496 425.143 46.496C424.674 46.496 424.116 46.6793 423.471 47.046C422.84 47.4127 422.268 47.8747 421.755 48.432V56H420.017V45.33H421.315L421.601 46.848C422.114 46.32 422.723 45.88 423.427 45.528C424.146 45.176 424.82 45 425.451 45C426.17 45 426.764 45.1613 427.233 45.484C427.717 45.8067 428.076 46.2613 428.311 46.848C428.824 46.32 429.433 45.88 430.137 45.528C430.841 45.176 431.508 45 432.139 45ZM442.377 45.044C443.961 45.044 445.2 45.5647 446.095 46.606C447.004 47.6327 447.459 48.9967 447.459 50.698C447.459 51.7833 447.246 52.7513 446.821 53.602C446.41 54.438 445.816 55.098 445.039 55.582C444.276 56.0513 443.374 56.286 442.333 56.286C441.555 56.286 440.741 56.0147 439.891 55.472V60.576L438.153 60.818V45.33H439.187L439.561 46.078C440.001 45.7553 440.47 45.506 440.969 45.33C441.467 45.1393 441.937 45.044 442.377 45.044ZM442.377 54.812C443.433 54.812 444.247 54.4307 444.819 53.668C445.391 52.9053 445.684 51.9227 445.699 50.72C445.699 49.4587 445.413 48.4467 444.841 47.684C444.283 46.9067 443.469 46.518 442.399 46.518C441.871 46.518 441.409 46.5987 441.013 46.76C440.617 46.9213 440.243 47.1707 439.891 47.508V53.866C440.243 54.174 440.617 54.4087 441.013 54.57C441.409 54.7313 441.863 54.812 442.377 54.812ZM454.023 45.044C455.607 45.044 456.847 45.5647 457.741 46.606C458.651 47.6327 459.105 48.9967 459.105 50.698C459.105 51.7833 458.893 52.7513 458.467 53.602C458.057 54.438 457.463 55.098 456.685 55.582C455.923 56.0513 455.021 56.286 453.979 56.286C453.539 56.286 453.07 56.1907 452.571 56C452.087 55.824 451.633 55.5673 451.207 55.23L450.833 56H449.799V40.688L451.537 40.468V45.858C451.933 45.594 452.351 45.396 452.791 45.264C453.231 45.1173 453.642 45.044 454.023 45.044ZM454.023 54.812C455.079 54.812 455.893 54.4307 456.465 53.668C457.037 52.9053 457.331 51.9227 457.345 50.72C457.345 49.4587 457.059 48.4467 456.487 47.684C455.93 46.9067 455.116 46.518 454.045 46.518C453.517 46.518 453.055 46.5987 452.659 46.76C452.263 46.9213 451.889 47.1707 451.537 47.508V53.866C451.889 54.174 452.263 54.4087 452.659 54.57C453.055 54.7313 453.51 54.812 454.023 54.812ZM470.09 50.94C470.09 49.18 469.716 47.7573 468.968 46.672C468.235 45.5867 467.091 45.044 465.536 45.044C464.509 45.044 463.615 45.286 462.852 45.77C462.104 46.2393 461.532 46.8993 461.136 47.75C460.755 48.586 460.564 49.5467 460.564 50.632C460.564 52.348 461.041 53.7193 461.994 54.746C462.947 55.7727 464.333 56.286 466.152 56.286C466.885 56.286 467.553 56.1907 468.154 56C468.755 55.7947 469.357 55.5233 469.958 55.186L469.408 53.91C468.748 54.2327 468.176 54.4673 467.692 54.614C467.223 54.7607 466.702 54.834 466.13 54.834C464.869 54.834 463.93 54.4893 463.314 53.8C462.713 53.096 462.39 52.1427 462.346 50.94H470.09ZM462.39 49.752C462.493 48.7547 462.801 47.97 463.314 47.398C463.842 46.8113 464.561 46.518 465.47 46.518C467.157 46.518 468.125 47.596 468.374 49.752H462.39ZM474.16 56V40.468L472.422 40.688V56H474.16ZM479.08 56V40.468L477.342 40.688V56H479.08Z" fill="#FDFDFD"/>
</svg>
