<svg width="300" height="100" viewBox="0 0 300 100" fill="none" xmlns="http://www.w3.org/2000/svg">
<rect width="300" height="100" rx="10" fill="#004483"/>
<path d="M35.7679 28.04L30.2239 43H31.9179L33.4799 38.754H39.7939L41.4659 43.154L43.1819 42.868L37.4399 28.04H35.7679ZM39.2879 37.346H33.9639L36.5819 30.328L39.2879 37.346ZM46.7542 43V27.468L45.0162 27.688V43H46.7542ZM49.1661 42.384C49.5621 42.6627 50.1047 42.8827 50.7941 43.044C51.4834 43.2053 52.0774 43.286 52.5761 43.286C53.9547 43.286 55.0107 43.0147 55.7441 42.472C56.4921 41.9293 56.8661 41.1667 56.8661 40.184C56.8661 38.8053 55.6707 37.676 53.2801 36.796C52.4881 36.532 51.8794 36.2607 51.4541 35.982C51.0287 35.7033 50.8087 35.3733 50.7941 34.992C50.7941 34.5373 50.9994 34.1707 51.4101 33.892C51.8354 33.5987 52.3781 33.452 53.0381 33.452C53.5807 33.452 54.0647 33.518 54.4901 33.65C54.9154 33.782 55.3701 33.958 55.8541 34.178L56.4041 32.99C56.0227 32.7113 55.4947 32.484 54.8201 32.308C54.1601 32.132 53.5807 32.044 53.0821 32.044C51.8501 32.044 50.8747 32.3153 50.1561 32.858C49.4521 33.386 49.1001 34.1193 49.1001 35.058C49.1001 35.8353 49.4227 36.4733 50.0681 36.972C50.7134 37.4707 51.5494 37.8887 52.5761 38.226C54.3361 38.8127 55.2161 39.502 55.2161 40.294C55.2161 40.7927 54.9814 41.1813 54.5121 41.46C54.0427 41.7387 53.4047 41.878 52.5981 41.878C51.6741 41.878 50.7134 41.6287 49.7161 41.13L49.1661 42.384ZM61.2204 32.506V29.294L59.4824 29.778V32.506H57.9204L57.9424 33.826H59.4824V40.228C59.4824 41.2253 59.7464 41.9953 60.2744 42.538C60.817 43.066 61.5504 43.33 62.4744 43.33C63.0317 43.33 63.5744 43.2053 64.1024 42.956L63.7064 41.592C63.3397 41.7387 63.017 41.812 62.7384 41.812C62.225 41.812 61.8437 41.6507 61.5944 41.328C61.345 41.0053 61.2204 40.558 61.2204 39.986V33.826H63.7284L63.1564 32.506H61.2204ZM74.8672 37.94C74.8672 36.18 74.4932 34.7573 73.7452 33.672C73.0119 32.5867 71.8679 32.044 70.3132 32.044C69.2866 32.044 68.3919 32.286 67.6292 32.77C66.8812 33.2393 66.3092 33.8993 65.9132 34.75C65.5319 35.586 65.3412 36.5467 65.3412 37.632C65.3412 39.348 65.8179 40.7193 66.7712 41.746C67.7246 42.7727 69.1106 43.286 70.9292 43.286C71.6626 43.286 72.3299 43.1907 72.9312 43C73.5326 42.7947 74.1339 42.5233 74.7352 42.186L74.1852 40.91C73.5252 41.2327 72.9532 41.4673 72.4692 41.614C71.9999 41.7607 71.4792 41.834 70.9072 41.834C69.6459 41.834 68.7072 41.4893 68.0912 40.8C67.4899 40.096 67.1672 39.1427 67.1232 37.94H74.8672ZM67.1672 36.752C67.2699 35.7547 67.5779 34.97 68.0912 34.398C68.6192 33.8113 69.3379 33.518 70.2472 33.518C71.9339 33.518 72.9019 34.596 73.1512 36.752H67.1672ZM77.8378 30.196C78.1604 30.196 78.4391 30.086 78.6738 29.866C78.9084 29.6313 79.0258 29.3527 79.0258 29.03C79.0258 28.7073 78.9084 28.4287 78.6738 28.194C78.4391 27.9593 78.1604 27.842 77.8378 27.842C77.5004 27.842 77.2218 27.9593 77.0018 28.194C76.7818 28.414 76.6718 28.6927 76.6718 29.03C76.6718 29.3673 76.7818 29.646 77.0018 29.866C77.2218 30.086 77.5004 30.196 77.8378 30.196ZM78.7398 43V32.33H76.9798V43H78.7398ZM83.2295 35.432C83.7428 34.8747 84.3295 34.4127 84.9895 34.046C85.6641 33.6793 86.2655 33.496 86.7935 33.496C87.4828 33.496 87.9741 33.716 88.2675 34.156C88.5608 34.596 88.7075 35.212 88.7075 36.004V42.978H90.4455V35.762C90.4455 34.618 90.1668 33.7087 89.6095 33.034C89.0668 32.3447 88.2308 32 87.1015 32C86.4268 32 85.7155 32.176 84.9675 32.528C84.2195 32.88 83.5888 33.32 83.0755 33.848L82.7895 32.33H81.4915V43H83.2295V35.432ZM93.686 40.646C93.3633 40.646 93.0847 40.7633 92.85 40.998C92.6153 41.2327 92.498 41.504 92.498 41.812C92.498 42.1053 92.6007 42.3693 92.806 42.604C93.0113 42.8387 93.246 42.9633 93.51 42.978C93.4807 43.3593 93.356 43.6893 93.136 43.968C92.916 44.2467 92.6007 44.5327 92.19 44.826L92.652 45.64C93.2827 45.3173 93.8107 44.804 94.236 44.1C94.676 43.4107 94.896 42.714 94.896 42.01C94.896 41.5993 94.7787 41.2693 94.544 41.02C94.324 40.7707 94.038 40.646 93.686 40.646ZM107.42 43C109.092 43 110.434 42.6627 111.446 41.988C112.458 41.3133 112.964 40.25 112.964 38.798C112.964 37.83 112.707 37.0307 112.194 36.4C111.695 35.7693 110.991 35.3 110.082 34.992C110.698 34.64 111.196 34.222 111.578 33.738C111.959 33.2393 112.15 32.66 112.15 32C112.15 30.5773 111.688 29.5653 110.764 28.964C109.84 28.348 108.549 28.04 106.892 28.04H102.734V43H107.42ZM106.826 29.514C108.014 29.514 108.901 29.69 109.488 30.042C110.089 30.394 110.39 31.054 110.39 32.022C110.39 32.9167 110.03 33.562 109.312 33.958C108.608 34.3393 107.669 34.5373 106.495 34.552H104.472V29.514H106.826ZM107.618 35.96C108.747 35.96 109.627 36.1947 110.258 36.664C110.888 37.1333 111.204 37.8593 111.204 38.842C111.204 40.646 109.935 41.548 107.398 41.548H104.472V35.96H107.618ZM116.788 35.652C117.287 35.1387 117.895 34.6913 118.614 34.31C119.333 33.914 119.985 33.716 120.572 33.716L120.154 32.33C119.641 32.33 119.047 32.5133 118.372 32.88C117.697 33.2467 117.118 33.6353 116.634 34.046L116.084 32.33H115.05V43H116.788V35.652ZM131.885 37.698C131.885 38.7833 131.665 39.7513 131.225 40.602C130.8 41.438 130.184 42.098 129.377 42.582C128.57 43.0513 127.632 43.286 126.561 43.286C125.534 43.286 124.64 43.0513 123.877 42.582C123.114 42.098 122.528 41.4307 122.117 40.58C121.721 39.7147 121.523 38.732 121.523 37.632C121.538 36.5467 121.75 35.586 122.161 34.75C122.586 33.8993 123.195 33.2393 123.987 32.77C124.779 32.286 125.703 32.044 126.759 32.044C128.358 32.044 129.612 32.5573 130.521 33.584C131.43 34.596 131.885 35.9673 131.885 37.698ZM126.649 41.812C127.705 41.812 128.541 41.4307 129.157 40.668C129.773 39.8907 130.088 38.908 130.103 37.72C130.103 36.4587 129.81 35.4467 129.223 34.684C128.636 33.9067 127.808 33.518 126.737 33.518C125.681 33.518 124.845 33.9067 124.229 34.684C123.613 35.4467 123.298 36.422 123.283 37.61C123.283 38.8567 123.576 39.8687 124.163 40.646C124.75 41.4233 125.578 41.812 126.649 41.812ZM144.01 43L147.156 32.33H145.396L143.152 40.514L140.776 32.33H139.016L136.772 40.514L134.396 32L132.812 32.66L135.914 43H137.608L139.874 34.882L142.294 43H144.01ZM150.497 35.432C151.01 34.8747 151.597 34.4127 152.257 34.046C152.932 33.6793 153.533 33.496 154.061 33.496C154.75 33.496 155.242 33.716 155.535 34.156C155.828 34.596 155.975 35.212 155.975 36.004V42.978H157.713V35.762C157.713 34.618 157.434 33.7087 156.877 33.034C156.334 32.3447 155.498 32 154.369 32C153.694 32 152.983 32.176 152.235 32.528C151.487 32.88 150.856 33.32 150.343 33.848L150.057 32.33H148.759V43H150.497V35.432ZM178.144 41.878L176.34 40.228C176.971 39.04 177.33 37.5733 177.418 35.828L176.01 35.278C175.893 36.818 175.578 38.094 175.064 39.106L170.73 35.036C169.894 34.2587 169.315 33.6427 168.992 33.188C168.67 32.7187 168.508 32.1613 168.508 31.516C168.508 30.8853 168.728 30.3353 169.168 29.866C169.623 29.3967 170.217 29.162 170.95 29.162C171.508 29.162 171.962 29.2207 172.314 29.338C172.681 29.4407 173.004 29.558 173.282 29.69C173.561 29.822 173.752 29.91 173.854 29.954L174.47 28.612C173.884 28.3187 173.319 28.0913 172.776 27.93C172.234 27.7687 171.625 27.688 170.95 27.688C170.1 27.688 169.359 27.8713 168.728 28.238C168.098 28.59 167.614 29.0667 167.276 29.668C166.954 30.2693 166.792 30.9293 166.792 31.648C166.792 32.484 167.02 33.232 167.474 33.892C166.77 34.3613 166.198 34.9993 165.758 35.806C165.333 36.598 165.113 37.456 165.098 38.38C165.098 39.4213 165.34 40.3087 165.824 41.042C166.323 41.7753 166.998 42.3327 167.848 42.714C168.714 43.0807 169.682 43.2713 170.752 43.286C172.747 43.286 174.309 42.6773 175.438 41.46L177.22 43.088L178.144 41.878ZM174.228 40.338C173.392 41.2913 172.234 41.768 170.752 41.768C169.682 41.768 168.765 41.4747 168.002 40.888C167.24 40.3013 166.858 39.4507 166.858 38.336C166.873 37.6027 167.02 36.95 167.298 36.378C167.592 35.7913 167.988 35.3367 168.486 35.014C168.633 35.19 168.904 35.4613 169.3 35.828L174.228 40.338ZM195.708 28.59C195.283 28.326 194.689 28.1207 193.926 27.974C193.164 27.8127 192.511 27.732 191.968 27.732C190.56 27.732 189.321 28.0767 188.25 28.766C187.18 29.4553 186.358 30.4013 185.786 31.604C185.214 32.792 184.928 34.1267 184.928 35.608C184.928 37.016 185.192 38.3067 185.72 39.48C186.248 40.6533 187.033 41.5847 188.074 42.274C189.116 42.9633 190.37 43.308 191.836 43.308C192.467 43.308 193.156 43.22 193.904 43.044C194.667 42.8827 195.276 42.6847 195.73 42.45L195.07 41.13C194.616 41.3353 194.124 41.4967 193.596 41.614C193.083 41.7313 192.474 41.79 191.77 41.79C190.744 41.79 189.849 41.5187 189.086 40.976C188.324 40.4187 187.744 39.6707 187.348 38.732C186.952 37.7787 186.754 36.73 186.754 35.586C186.754 34.3687 186.982 33.276 187.436 32.308C187.891 31.34 188.514 30.5847 189.306 30.042C190.113 29.4993 191 29.228 191.968 29.228C192.658 29.228 193.215 29.2793 193.64 29.382C194.066 29.47 194.572 29.624 195.158 29.844L195.708 28.59ZM198.517 34.288C199.045 34.0533 199.529 33.8773 199.969 33.76C200.423 33.628 200.966 33.562 201.597 33.562C202.403 33.562 202.99 33.7893 203.357 34.244C203.738 34.6987 203.929 35.322 203.929 36.114V36.708H201.179C200.02 36.708 199.089 36.994 198.385 37.566C197.681 38.138 197.329 38.9373 197.329 39.964C197.329 40.9467 197.637 41.746 198.253 42.362C198.883 42.978 199.793 43.286 200.981 43.286C201.538 43.286 202.11 43.154 202.697 42.89C203.283 42.6113 203.775 42.2887 204.171 41.922L204.391 43H205.689V35.63C205.689 34.9407 205.513 34.3247 205.161 33.782C204.809 33.2393 204.317 32.814 203.687 32.506C203.056 32.198 202.337 32.044 201.531 32.044C201.047 32.044 200.431 32.132 199.683 32.308C198.949 32.484 198.392 32.704 198.011 32.968L198.517 34.288ZM198.935 39.964C198.935 39.3773 199.125 38.886 199.507 38.49C199.903 38.0793 200.445 37.874 201.135 37.874H203.951V40.294C203.555 40.7633 203.093 41.1447 202.565 41.438C202.051 41.7313 201.509 41.878 200.937 41.878C200.277 41.878 199.778 41.6873 199.441 41.306C199.103 40.9247 198.935 40.4773 198.935 39.964ZM220.479 32C221.564 32 222.371 32.3447 222.899 33.034C223.427 33.7087 223.691 34.618 223.691 35.762V42.978H221.953V36.004C221.953 35.212 221.821 34.596 221.557 34.156C221.293 33.716 220.838 33.496 220.193 33.496C219.738 33.496 219.21 33.6647 218.609 34.002C218.022 34.3247 217.472 34.7427 216.959 35.256C216.973 35.3587 216.981 35.5273 216.981 35.762V42.978H215.243V36.004C215.243 35.212 215.111 34.596 214.847 34.156C214.583 33.716 214.128 33.496 213.483 33.496C213.013 33.496 212.456 33.6793 211.811 34.046C211.18 34.4127 210.608 34.8747 210.095 35.432V43H208.357V32.33H209.655L209.941 33.848C210.454 33.32 211.063 32.88 211.767 32.528C212.485 32.176 213.16 32 213.791 32C214.509 32 215.103 32.1613 215.573 32.484C216.057 32.8067 216.416 33.2613 216.651 33.848C217.164 33.32 217.773 32.88 218.477 32.528C219.181 32.176 219.848 32 220.479 32ZM230.717 32.044C232.301 32.044 233.54 32.5647 234.435 33.606C235.344 34.6327 235.799 35.9967 235.799 37.698C235.799 38.7833 235.586 39.7513 235.161 40.602C234.75 41.438 234.156 42.098 233.379 42.582C232.616 43.0513 231.714 43.286 230.673 43.286C229.895 43.286 229.081 43.0147 228.231 42.472V47.576L226.493 47.818V32.33H227.527L227.901 33.078C228.341 32.7553 228.81 32.506 229.309 32.33C229.807 32.1393 230.277 32.044 230.717 32.044ZM230.717 41.812C231.773 41.812 232.587 41.4307 233.159 40.668C233.731 39.9053 234.024 38.9227 234.039 37.72C234.039 36.4587 233.753 35.4467 233.181 34.684C232.623 33.9067 231.809 33.518 230.739 33.518C230.211 33.518 229.749 33.5987 229.353 33.76C228.957 33.9213 228.583 34.1707 228.231 34.508V40.866C228.583 41.174 228.957 41.4087 229.353 41.57C229.749 41.7313 230.203 41.812 230.717 41.812ZM242.363 32.044C243.947 32.044 245.187 32.5647 246.081 33.606C246.991 34.6327 247.445 35.9967 247.445 37.698C247.445 38.7833 247.233 39.7513 246.807 40.602C246.397 41.438 245.803 42.098 245.025 42.582C244.263 43.0513 243.361 43.286 242.319 43.286C241.879 43.286 241.41 43.1907 240.911 43C240.427 42.824 239.973 42.5673 239.547 42.23L239.173 43H238.139V27.688L239.877 27.468V32.858C240.273 32.594 240.691 32.396 241.131 32.264C241.571 32.1173 241.982 32.044 242.363 32.044ZM242.363 41.812C243.419 41.812 244.233 41.4307 244.805 40.668C245.377 39.9053 245.671 38.9227 245.685 37.72C245.685 36.4587 245.399 35.4467 244.827 34.684C244.27 33.9067 243.456 33.518 242.385 33.518C241.857 33.518 241.395 33.5987 240.999 33.76C240.603 33.9213 240.229 34.1707 239.877 34.508V40.866C240.229 41.174 240.603 41.4087 240.999 41.57C241.395 41.7313 241.85 41.812 242.363 41.812ZM258.43 37.94C258.43 36.18 258.056 34.7573 257.308 33.672C256.574 32.5867 255.43 32.044 253.876 32.044C252.849 32.044 251.954 32.286 251.192 32.77C250.444 33.2393 249.872 33.8993 249.476 34.75C249.094 35.586 248.904 36.5467 248.904 37.632C248.904 39.348 249.38 40.7193 250.334 41.746C251.287 42.7727 252.673 43.286 254.492 43.286C255.225 43.286 255.892 43.1907 256.494 43C257.095 42.7947 257.696 42.5233 258.298 42.186L257.748 40.91C257.088 41.2327 256.516 41.4673 256.032 41.614C255.562 41.7607 255.042 41.834 254.47 41.834C253.208 41.834 252.27 41.4893 251.654 40.8C251.052 40.096 250.73 39.1427 250.686 37.94H258.43ZM250.73 36.752C250.832 35.7547 251.14 34.97 251.654 34.398C252.182 33.8113 252.9 33.518 253.81 33.518C255.496 33.518 256.464 34.596 256.714 36.752H250.73ZM262.5 43V27.468L260.762 27.688V43H262.5ZM267.42 43V27.468L265.682 27.688V43H267.42Z" fill="#FDFDFD"/>
<path d="M93.8703 58.76L89.3343 71H90.7203L91.9983 67.526H97.1643L98.5323 71.126L99.9363 70.892L95.2383 58.76H93.8703ZM96.7503 66.374H92.3943L94.5363 60.632L96.7503 66.374ZM103.111 62.414V59.786L101.689 60.182V62.414H100.411L100.429 63.494H101.689V68.732C101.689 69.548 101.905 70.178 102.337 70.622C102.781 71.054 103.381 71.27 104.137 71.27C104.593 71.27 105.037 71.168 105.469 70.964L105.145 69.848C104.845 69.968 104.581 70.028 104.353 70.028C103.933 70.028 103.621 69.896 103.417 69.632C103.213 69.368 103.111 69.002 103.111 68.534V63.494H105.163L104.695 62.414H103.111ZM108.877 62.414V59.786L107.455 60.182V62.414H106.177L106.195 63.494H107.455V68.732C107.455 69.548 107.671 70.178 108.103 70.622C108.547 71.054 109.147 71.27 109.903 71.27C110.359 71.27 110.803 71.168 111.235 70.964L110.911 69.848C110.611 69.968 110.347 70.028 110.119 70.028C109.699 70.028 109.387 69.896 109.183 69.632C108.979 69.368 108.877 69.002 108.877 68.534V63.494H110.929L110.461 62.414H108.877ZM120.726 66.662C120.726 67.55 120.546 68.342 120.186 69.038C119.838 69.722 119.334 70.262 118.674 70.658C118.014 71.042 117.246 71.234 116.37 71.234C115.53 71.234 114.798 71.042 114.174 70.658C113.55 70.262 113.07 69.716 112.734 69.02C112.41 68.312 112.248 67.508 112.248 66.608C112.26 65.72 112.434 64.934 112.77 64.25C113.118 63.554 113.616 63.014 114.264 62.63C114.912 62.234 115.668 62.036 116.532 62.036C117.84 62.036 118.866 62.456 119.61 63.296C120.354 64.124 120.726 65.246 120.726 66.662ZM116.442 70.028C117.306 70.028 117.99 69.716 118.494 69.092C118.998 68.456 119.256 67.652 119.268 66.68C119.268 65.648 119.028 64.82 118.548 64.196C118.068 63.56 117.39 63.242 116.514 63.242C115.65 63.242 114.966 63.56 114.462 64.196C113.958 64.82 113.7 65.618 113.688 66.59C113.688 67.61 113.928 68.438 114.408 69.074C114.888 69.71 115.566 70.028 116.442 70.028ZM123.861 64.988C124.269 64.568 124.767 64.202 125.355 63.89C125.943 63.566 126.477 63.404 126.957 63.404L126.615 62.27C126.195 62.27 125.709 62.42 125.157 62.72C124.605 63.02 124.131 63.338 123.735 63.674L123.285 62.27H122.439V71H123.861V64.988ZM129.697 64.808C130.117 64.352 130.597 63.974 131.137 63.674C131.689 63.374 132.181 63.224 132.613 63.224C133.177 63.224 133.579 63.404 133.819 63.764C134.059 64.124 134.179 64.628 134.179 65.276V70.982H135.601V65.078C135.601 64.142 135.373 63.398 134.917 62.846C134.473 62.282 133.789 62 132.865 62C132.313 62 131.731 62.144 131.119 62.432C130.507 62.72 129.991 63.08 129.571 63.512L129.337 62.27H128.275V71H129.697V64.808ZM138.504 60.524C138.768 60.524 138.996 60.434 139.188 60.254C139.38 60.062 139.476 59.834 139.476 59.57C139.476 59.306 139.38 59.078 139.188 58.886C138.996 58.694 138.768 58.598 138.504 58.598C138.228 58.598 138 58.694 137.82 58.886C137.64 59.066 137.55 59.294 137.55 59.57C137.55 59.846 137.64 60.074 137.82 60.254C138 60.434 138.228 60.524 138.504 60.524ZM139.242 71V62.27H137.802V71H139.242ZM148.747 66.86C148.747 65.42 148.441 64.256 147.829 63.368C147.229 62.48 146.293 62.036 145.021 62.036C144.181 62.036 143.449 62.234 142.825 62.63C142.213 63.014 141.745 63.554 141.421 64.25C141.109 64.934 140.953 65.72 140.953 66.608C140.953 68.012 141.343 69.134 142.123 69.974C142.903 70.814 144.037 71.234 145.525 71.234C146.125 71.234 146.671 71.156 147.163 71C147.655 70.832 148.147 70.61 148.639 70.334L148.189 69.29C147.649 69.554 147.181 69.746 146.785 69.866C146.401 69.986 145.975 70.046 145.507 70.046C144.475 70.046 143.707 69.764 143.203 69.2C142.711 68.624 142.447 67.844 142.411 66.86H148.747ZM142.447 65.888C142.531 65.072 142.783 64.43 143.203 63.962C143.635 63.482 144.223 63.242 144.967 63.242C146.347 63.242 147.139 64.124 147.343 65.888H142.447ZM150.026 70.496C150.35 70.724 150.794 70.904 151.358 71.036C151.922 71.168 152.408 71.234 152.816 71.234C153.944 71.234 154.808 71.012 155.408 70.568C156.02 70.124 156.326 69.5 156.326 68.696C156.326 67.568 155.348 66.644 153.392 65.924C152.744 65.708 152.246 65.486 151.898 65.258C151.55 65.03 151.37 64.76 151.358 64.448C151.358 64.076 151.526 63.776 151.862 63.548C152.21 63.308 152.654 63.188 153.194 63.188C153.638 63.188 154.034 63.242 154.382 63.35C154.73 63.458 155.102 63.602 155.498 63.782L155.948 62.81C155.636 62.582 155.204 62.396 154.652 62.252C154.112 62.108 153.638 62.036 153.23 62.036C152.222 62.036 151.424 62.258 150.836 62.702C150.26 63.134 149.972 63.734 149.972 64.502C149.972 65.138 150.236 65.66 150.764 66.068C151.292 66.476 151.976 66.818 152.816 67.094C154.256 67.574 154.976 68.138 154.976 68.786C154.976 69.194 154.784 69.512 154.4 69.74C154.016 69.968 153.494 70.082 152.834 70.082C152.078 70.082 151.292 69.878 150.476 69.47L150.026 70.496ZM162.974 63.872C163.406 63.68 163.802 63.536 164.162 63.44C164.534 63.332 164.978 63.278 165.494 63.278C166.154 63.278 166.634 63.464 166.934 63.836C167.246 64.208 167.402 64.718 167.402 65.366V65.852H165.152C164.204 65.852 163.442 66.086 162.866 66.554C162.29 67.022 162.002 67.676 162.002 68.516C162.002 69.32 162.254 69.974 162.758 70.478C163.274 70.982 164.018 71.234 164.99 71.234C165.446 71.234 165.914 71.126 166.394 70.91C166.874 70.682 167.276 70.418 167.6 70.118L167.78 71H168.842V64.97C168.842 64.406 168.698 63.902 168.41 63.458C168.122 63.014 167.72 62.666 167.204 62.414C166.688 62.162 166.1 62.036 165.44 62.036C165.044 62.036 164.54 62.108 163.928 62.252C163.328 62.396 162.872 62.576 162.56 62.792L162.974 63.872ZM163.316 68.516C163.316 68.036 163.472 67.634 163.784 67.31C164.108 66.974 164.552 66.806 165.116 66.806H167.42V68.786C167.096 69.17 166.718 69.482 166.286 69.722C165.866 69.962 165.422 70.082 164.954 70.082C164.414 70.082 164.006 69.926 163.73 69.614C163.454 69.302 163.316 68.936 163.316 68.516ZM172.879 62.414V59.786L171.457 60.182V62.414H170.179L170.197 63.494H171.457V68.732C171.457 69.548 171.673 70.178 172.105 70.622C172.549 71.054 173.149 71.27 173.905 71.27C174.361 71.27 174.805 71.168 175.237 70.964L174.913 69.848C174.613 69.968 174.349 70.028 174.121 70.028C173.701 70.028 173.389 69.896 173.185 69.632C172.981 69.368 172.879 69.002 172.879 68.534V63.494H174.931L174.463 62.414H172.879ZM188.641 69.866H182.953V58.76H181.531V71H188.785L188.641 69.866ZM190.835 63.872C191.267 63.68 191.663 63.536 192.023 63.44C192.395 63.332 192.839 63.278 193.355 63.278C194.015 63.278 194.495 63.464 194.795 63.836C195.107 64.208 195.263 64.718 195.263 65.366V65.852H193.013C192.065 65.852 191.303 66.086 190.727 66.554C190.151 67.022 189.863 67.676 189.863 68.516C189.863 69.32 190.115 69.974 190.619 70.478C191.135 70.982 191.879 71.234 192.851 71.234C193.307 71.234 193.775 71.126 194.255 70.91C194.735 70.682 195.137 70.418 195.461 70.118L195.641 71H196.703V64.97C196.703 64.406 196.559 63.902 196.271 63.458C195.983 63.014 195.581 62.666 195.065 62.414C194.549 62.162 193.961 62.036 193.301 62.036C192.905 62.036 192.401 62.108 191.789 62.252C191.189 62.396 190.733 62.576 190.421 62.792L190.835 63.872ZM191.177 68.516C191.177 68.036 191.333 67.634 191.645 67.31C191.969 66.974 192.413 66.806 192.977 66.806H195.281V68.786C194.957 69.17 194.579 69.482 194.147 69.722C193.727 69.962 193.283 70.082 192.815 70.082C192.275 70.082 191.867 69.926 191.591 69.614C191.315 69.302 191.177 68.936 191.177 68.516ZM207.094 71L209.668 62.27H208.228L206.392 68.966L204.448 62.27H203.008L201.172 68.966L199.228 62L197.932 62.54L200.47 71H201.856L203.71 64.358L205.69 71H207.094Z" fill="#FDFDFD"/>
</svg>
