<svg width="750" height="408" viewBox="0 0 750 408" fill="none" xmlns="http://www.w3.org/2000/svg">
<rect width="750" height="408" fill="url(#paint0_linear)"/>
<path d="M138.448 50L133.798 67H131.898L127.998 52.95L124.323 67H122.423L117.523 50.125L119.473 49.825L123.398 64.3L127.073 50H128.998L132.848 64.3L136.548 50H138.448ZM150.358 61.25C150.358 59.25 149.933 57.6333 149.083 56.4C148.25 55.1667 146.95 54.55 145.183 54.55C144.017 54.55 143 54.825 142.133 55.375C141.283 55.9083 140.633 56.6583 140.183 57.625C139.75 58.575 139.533 59.6667 139.533 60.9C139.533 62.85 140.075 64.4083 141.158 65.575C142.242 66.7417 143.817 67.325 145.883 67.325C146.717 67.325 147.475 67.2167 148.158 67C148.842 66.7667 149.525 66.4583 150.208 66.075L149.583 64.625C148.833 64.9917 148.183 65.2583 147.633 65.425C147.1 65.5917 146.508 65.675 145.858 65.675C144.425 65.675 143.358 65.2833 142.658 64.5C141.975 63.7 141.608 62.6167 141.558 61.25H150.358ZM141.608 59.9C141.725 58.7667 142.075 57.875 142.658 57.225C143.258 56.5583 144.075 56.225 145.108 56.225C147.025 56.225 148.125 57.45 148.408 59.9H141.608ZM154.984 67V49.35L153.009 49.6V67H154.984ZM166.8 64.8C166.217 65.1 165.692 65.3167 165.225 65.45C164.758 65.5833 164.158 65.65 163.425 65.65C162.208 65.65 161.267 65.2083 160.6 64.325C159.933 63.4417 159.6 62.2917 159.6 60.875C159.617 59.525 159.975 58.4167 160.675 57.55C161.375 56.6667 162.325 56.225 163.525 56.225C164.225 56.225 164.792 56.2917 165.225 56.425C165.675 56.5583 166.233 56.7667 166.9 57.05L167.5 55.65C167.017 55.3333 166.375 55.075 165.575 54.875C164.792 54.6583 164.125 54.55 163.575 54.55C162.375 54.55 161.325 54.825 160.425 55.375C159.525 55.9083 158.825 56.6583 158.325 57.625C157.842 58.575 157.6 59.6667 157.6 60.9C157.6 62.15 157.833 63.2667 158.3 64.25C158.767 65.2167 159.442 65.975 160.325 66.525C161.208 67.0583 162.25 67.325 163.45 67.325C164 67.325 164.675 67.2167 165.475 67C166.275 66.8 166.925 66.5417 167.425 66.225L166.8 64.8ZM180.825 60.975C180.825 62.2083 180.575 63.3083 180.075 64.275C179.592 65.225 178.892 65.975 177.975 66.525C177.058 67.0583 175.992 67.325 174.775 67.325C173.608 67.325 172.592 67.0583 171.725 66.525C170.858 65.975 170.192 65.2167 169.725 64.25C169.275 63.2667 169.05 62.15 169.05 60.9C169.067 59.6667 169.308 58.575 169.775 57.625C170.258 56.6583 170.95 55.9083 171.85 55.375C172.75 54.825 173.8 54.55 175 54.55C176.817 54.55 178.242 55.1333 179.275 56.3C180.308 57.45 180.825 59.0083 180.825 60.975ZM174.875 65.65C176.075 65.65 177.025 65.2167 177.725 64.35C178.425 63.4667 178.783 62.35 178.8 61C178.8 59.5667 178.467 58.4167 177.8 57.55C177.133 56.6667 176.192 56.225 174.975 56.225C173.775 56.225 172.825 56.6667 172.125 57.55C171.425 58.4167 171.067 59.525 171.05 60.875C171.05 62.2917 171.383 63.4417 172.05 64.325C172.717 65.2083 173.658 65.65 174.875 65.65ZM196.978 54.5C198.212 54.5 199.128 54.8917 199.728 55.675C200.328 56.4417 200.628 57.475 200.628 58.775V66.975H198.653V59.05C198.653 58.15 198.503 57.45 198.203 56.95C197.903 56.45 197.387 56.2 196.653 56.2C196.137 56.2 195.537 56.3917 194.853 56.775C194.187 57.1417 193.562 57.6167 192.978 58.2C192.995 58.3167 193.003 58.5083 193.003 58.775V66.975H191.028V59.05C191.028 58.15 190.878 57.45 190.578 56.95C190.278 56.45 189.762 56.2 189.028 56.2C188.495 56.2 187.862 56.4083 187.128 56.825C186.412 57.2417 185.762 57.7667 185.178 58.4V67H183.203V54.875H184.678L185.003 56.6C185.587 56 186.278 55.5 187.078 55.1C187.895 54.7 188.662 54.5 189.378 54.5C190.195 54.5 190.87 54.6833 191.403 55.05C191.953 55.4167 192.362 55.9333 192.628 56.6C193.212 56 193.903 55.5 194.703 55.1C195.503 54.7 196.262 54.5 196.978 54.5ZM213.737 61.25C213.737 59.25 213.312 57.6333 212.462 56.4C211.629 55.1667 210.329 54.55 208.562 54.55C207.396 54.55 206.379 54.825 205.512 55.375C204.662 55.9083 204.012 56.6583 203.562 57.625C203.129 58.575 202.912 59.6667 202.912 60.9C202.912 62.85 203.454 64.4083 204.537 65.575C205.621 66.7417 207.196 67.325 209.262 67.325C210.096 67.325 210.854 67.2167 211.537 67C212.221 66.7667 212.904 66.4583 213.587 66.075L212.962 64.625C212.212 64.9917 211.562 65.2583 211.012 65.425C210.479 65.5917 209.887 65.675 209.237 65.675C207.804 65.675 206.737 65.2833 206.037 64.5C205.354 63.7 204.987 62.6167 204.937 61.25H213.737ZM204.987 59.9C205.104 58.7667 205.454 57.875 206.037 57.225C206.637 56.5583 207.454 56.225 208.487 56.225C210.404 56.225 211.504 57.45 211.787 59.9H204.987ZM224.548 55.075V51.425L222.573 51.975V55.075H220.798L220.823 56.575H222.573V63.85C222.573 64.9833 222.873 65.8583 223.473 66.475C224.09 67.075 224.923 67.375 225.973 67.375C226.606 67.375 227.223 67.2333 227.823 66.95L227.373 65.4C226.956 65.5667 226.59 65.65 226.273 65.65C225.69 65.65 225.256 65.4667 224.973 65.1C224.69 64.7333 224.548 64.225 224.548 63.575V56.575H227.398L226.748 55.075H224.548ZM241.006 60.975C241.006 62.2083 240.756 63.3083 240.256 64.275C239.772 65.225 239.072 65.975 238.156 66.525C237.239 67.0583 236.172 67.325 234.956 67.325C233.789 67.325 232.772 67.0583 231.906 66.525C231.039 65.975 230.372 65.2167 229.906 64.25C229.456 63.2667 229.231 62.15 229.231 60.9C229.247 59.6667 229.489 58.575 229.956 57.625C230.439 56.6583 231.131 55.9083 232.031 55.375C232.931 54.825 233.981 54.55 235.181 54.55C236.997 54.55 238.422 55.1333 239.456 56.3C240.489 57.45 241.006 59.0083 241.006 60.975ZM235.056 65.65C236.256 65.65 237.206 65.2167 237.906 64.35C238.606 63.4667 238.964 62.35 238.981 61C238.981 59.5667 238.647 58.4167 237.981 57.55C237.314 56.6667 236.372 56.225 235.156 56.225C233.956 56.225 233.006 56.6667 232.306 57.55C231.606 58.4167 231.247 59.525 231.231 60.875C231.231 62.2917 231.564 63.4417 232.231 64.325C232.897 65.2083 233.839 65.65 235.056 65.65ZM251.794 55.075V51.425L249.819 51.975V55.075H248.044L248.069 56.575H249.819V63.85C249.819 64.9833 250.119 65.8583 250.719 66.475C251.336 67.075 252.169 67.375 253.219 67.375C253.852 67.375 254.469 67.2333 255.069 66.95L254.619 65.4C254.202 65.5667 253.836 65.65 253.519 65.65C252.936 65.65 252.502 65.4667 252.219 65.1C251.936 64.7333 251.794 64.225 251.794 63.575V56.575H254.644L253.994 55.075H251.794ZM263.852 54.5C265.135 54.5 266.085 54.8917 266.702 55.675C267.335 56.4417 267.652 57.475 267.652 58.775V66.975H265.677V59.05C265.677 58.15 265.51 57.45 265.177 56.95C264.844 56.45 264.285 56.2 263.502 56.2C262.902 56.2 262.219 56.4083 261.452 56.825C260.702 57.2417 260.035 57.7667 259.452 58.4V67H257.477V49.6L259.452 49.35V56.425C260.035 55.8583 260.727 55.4 261.527 55.05C262.344 54.6833 263.119 54.5 263.852 54.5ZM280.778 61.25C280.778 59.25 280.353 57.6333 279.503 56.4C278.67 55.1667 277.37 54.55 275.603 54.55C274.437 54.55 273.42 54.825 272.553 55.375C271.703 55.9083 271.053 56.6583 270.603 57.625C270.17 58.575 269.953 59.6667 269.953 60.9C269.953 62.85 270.495 64.4083 271.578 65.575C272.662 66.7417 274.237 67.325 276.303 67.325C277.137 67.325 277.895 67.2167 278.578 67C279.262 66.7667 279.945 66.4583 280.628 66.075L280.003 64.625C279.253 64.9917 278.603 65.2583 278.053 65.425C277.52 65.5917 276.928 65.675 276.278 65.675C274.845 65.675 273.778 65.2833 273.078 64.5C272.395 63.7 272.028 62.6167 271.978 61.25H280.778ZM272.028 59.9C272.145 58.7667 272.495 57.875 273.078 57.225C273.678 56.5583 274.495 56.225 275.528 56.225C277.445 56.225 278.545 57.45 278.828 59.9H272.028ZM289.689 56.575V67H291.664V56.575H294.539L293.889 55.075H291.664V53.3C291.664 51.9167 292.231 51.225 293.364 51.225C293.531 51.225 293.722 51.25 293.939 51.3C294.156 51.35 294.331 51.4083 294.464 51.475L294.914 49.875C294.697 49.7583 294.422 49.6583 294.089 49.575C293.756 49.4917 293.422 49.45 293.089 49.45C292.039 49.45 291.206 49.7917 290.589 50.475C289.989 51.1417 289.689 52.0417 289.689 53.175V55.075H287.839L287.864 56.575H289.689ZM297.46 52.45C297.826 52.45 298.143 52.325 298.41 52.075C298.676 51.8083 298.81 51.4917 298.81 51.125C298.81 50.7583 298.676 50.4417 298.41 50.175C298.143 49.9083 297.826 49.775 297.46 49.775C297.076 49.775 296.76 49.9083 296.51 50.175C296.26 50.425 296.135 50.7417 296.135 51.125C296.135 51.5083 296.26 51.825 296.51 52.075C296.76 52.325 297.076 52.45 297.46 52.45ZM298.485 67V54.875H296.485V67H298.485ZM303.587 58.65C304.153 58.0667 304.845 57.5583 305.662 57.125C306.478 56.675 307.22 56.45 307.887 56.45L307.412 54.875C306.828 54.875 306.153 55.0833 305.387 55.5C304.62 55.9167 303.962 56.3583 303.412 56.825L302.787 54.875H301.612V67H303.587V58.65ZM323.492 54.5C324.725 54.5 325.642 54.8917 326.242 55.675C326.842 56.4417 327.142 57.475 327.142 58.775V66.975H325.167V59.05C325.167 58.15 325.017 57.45 324.717 56.95C324.417 56.45 323.9 56.2 323.167 56.2C322.65 56.2 322.05 56.3917 321.367 56.775C320.7 57.1417 320.075 57.6167 319.492 58.2C319.509 58.3167 319.517 58.5083 319.517 58.775V66.975H317.542V59.05C317.542 58.15 317.392 57.45 317.092 56.95C316.792 56.45 316.275 56.2 315.542 56.2C315.009 56.2 314.375 56.4083 313.642 56.825C312.925 57.2417 312.275 57.7667 311.692 58.4V67H309.717V54.875H311.192L311.517 56.6C312.1 56 312.792 55.5 313.592 55.1C314.409 54.7 315.175 54.5 315.892 54.5C316.709 54.5 317.384 54.6833 317.917 55.05C318.467 55.4167 318.875 55.9333 319.142 56.6C319.725 56 320.417 55.5 321.217 55.1C322.017 54.7 322.775 54.5 323.492 54.5ZM347.036 60.975C347.036 62.2083 346.786 63.3083 346.286 64.275C345.803 65.225 345.103 65.975 344.186 66.525C343.269 67.0583 342.203 67.325 340.986 67.325C339.819 67.325 338.803 67.0583 337.936 66.525C337.069 65.975 336.403 65.2167 335.936 64.25C335.486 63.2667 335.261 62.15 335.261 60.9C335.278 59.6667 335.519 58.575 335.986 57.625C336.469 56.6583 337.161 55.9083 338.061 55.375C338.961 54.825 340.011 54.55 341.211 54.55C343.028 54.55 344.453 55.1333 345.486 56.3C346.519 57.45 347.036 59.0083 347.036 60.975ZM341.086 65.65C342.286 65.65 343.236 65.2167 343.936 64.35C344.636 63.4667 344.994 62.35 345.011 61C345.011 59.5667 344.678 58.4167 344.011 57.55C343.344 56.6667 342.403 56.225 341.186 56.225C339.986 56.225 339.036 56.6667 338.336 57.55C337.636 58.4167 337.278 59.525 337.261 60.875C337.261 62.2917 337.594 63.4417 338.261 64.325C338.928 65.2083 339.869 65.65 341.086 65.65ZM350.089 56.575V67H352.064V56.575H354.939L354.289 55.075H352.064V53.3C352.064 51.9167 352.631 51.225 353.764 51.225C353.931 51.225 354.123 51.25 354.339 51.3C354.556 51.35 354.731 51.4083 354.864 51.475L355.314 49.875C355.098 49.7583 354.823 49.6583 354.489 49.575C354.156 49.4917 353.823 49.45 353.489 49.45C352.439 49.45 351.606 49.7917 350.989 50.475C350.389 51.1417 350.089 52.0417 350.089 53.175V55.075H348.239L348.264 56.575H350.089ZM367.695 50L361.395 67H363.32L365.095 62.175H372.27L374.17 67.175L376.12 66.85L369.595 50H367.695ZM371.695 60.575H365.645L368.62 52.6L371.695 60.575ZM380.179 67V49.35L378.204 49.6V67H380.179ZM382.92 66.3C383.37 66.6167 383.987 66.8667 384.77 67.05C385.554 67.2333 386.229 67.325 386.795 67.325C388.362 67.325 389.562 67.0167 390.395 66.4C391.245 65.7833 391.67 64.9167 391.67 63.8C391.67 62.2333 390.312 60.95 387.595 59.95C386.695 59.65 386.004 59.3417 385.52 59.025C385.037 58.7083 384.787 58.3333 384.77 57.9C384.77 57.3833 385.004 56.9667 385.47 56.65C385.954 56.3167 386.57 56.15 387.32 56.15C387.937 56.15 388.487 56.225 388.97 56.375C389.454 56.525 389.97 56.725 390.52 56.975L391.145 55.625C390.712 55.3083 390.112 55.05 389.345 54.85C388.595 54.65 387.937 54.55 387.37 54.55C385.97 54.55 384.862 54.8583 384.045 55.475C383.245 56.075 382.845 56.9083 382.845 57.975C382.845 58.8583 383.212 59.5833 383.945 60.15C384.679 60.7167 385.629 61.1917 386.795 61.575C388.795 62.2417 389.795 63.025 389.795 63.925C389.795 64.4917 389.529 64.9333 388.995 65.25C388.462 65.5667 387.737 65.725 386.82 65.725C385.77 65.725 384.679 65.4417 383.545 64.875L382.92 66.3ZM396.618 55.075V51.425L394.643 51.975V55.075H392.868L392.893 56.575H394.643V63.85C394.643 64.9833 394.943 65.8583 395.543 66.475C396.16 67.075 396.993 67.375 398.043 67.375C398.677 67.375 399.293 67.2333 399.893 66.95L399.443 65.4C399.027 65.5667 398.66 65.65 398.343 65.65C397.76 65.65 397.327 65.4667 397.043 65.1C396.76 64.7333 396.618 64.225 396.618 63.575V56.575H399.468L398.818 55.075H396.618ZM412.126 61.25C412.126 59.25 411.701 57.6333 410.851 56.4C410.018 55.1667 408.718 54.55 406.951 54.55C405.784 54.55 404.768 54.825 403.901 55.375C403.051 55.9083 402.401 56.6583 401.951 57.625C401.518 58.575 401.301 59.6667 401.301 60.9C401.301 62.85 401.843 64.4083 402.926 65.575C404.009 66.7417 405.584 67.325 407.651 67.325C408.484 67.325 409.243 67.2167 409.926 67C410.609 66.7667 411.293 66.4583 411.976 66.075L411.351 64.625C410.601 64.9917 409.951 65.2583 409.401 65.425C408.868 65.5917 408.276 65.675 407.626 65.675C406.193 65.675 405.126 65.2833 404.426 64.5C403.743 63.7 403.376 62.6167 403.326 61.25H412.126ZM403.376 59.9C403.493 58.7667 403.843 57.875 404.426 57.225C405.026 56.5583 405.843 56.225 406.876 56.225C408.793 56.225 409.893 57.45 410.176 59.9H403.376ZM415.502 52.45C415.868 52.45 416.185 52.325 416.452 52.075C416.718 51.8083 416.852 51.4917 416.852 51.125C416.852 50.7583 416.718 50.4417 416.452 50.175C416.185 49.9083 415.868 49.775 415.502 49.775C415.118 49.775 414.802 49.9083 414.552 50.175C414.302 50.425 414.177 50.7417 414.177 51.125C414.177 51.5083 414.302 51.825 414.552 52.075C414.802 52.325 415.118 52.45 415.502 52.45ZM416.527 67V54.875H414.527V67H416.527ZM421.629 58.4C422.212 57.7667 422.879 57.2417 423.629 56.825C424.395 56.4083 425.079 56.2 425.679 56.2C426.462 56.2 427.02 56.45 427.354 56.95C427.687 57.45 427.854 58.15 427.854 59.05V66.975H429.829V58.775C429.829 57.475 429.512 56.4417 428.879 55.675C428.262 54.8917 427.312 54.5 426.029 54.5C425.262 54.5 424.454 54.7 423.604 55.1C422.754 55.5 422.037 56 421.454 56.6L421.129 54.875H419.654V67H421.629V58.4ZM433.511 64.325C433.144 64.325 432.828 64.4583 432.561 64.725C432.294 64.9917 432.161 65.3 432.161 65.65C432.161 65.9833 432.278 66.2833 432.511 66.55C432.744 66.8167 433.011 66.9583 433.311 66.975C433.278 67.4083 433.136 67.7833 432.886 68.1C432.636 68.4167 432.278 68.7417 431.811 69.075L432.336 70C433.053 69.6333 433.653 69.05 434.136 68.25C434.636 67.4667 434.886 66.675 434.886 65.875C434.886 65.4083 434.753 65.0333 434.486 64.75C434.236 64.4667 433.911 64.325 433.511 64.325ZM449.117 67C451.017 67 452.542 66.6167 453.692 65.85C454.842 65.0833 455.417 63.875 455.417 62.225C455.417 61.125 455.126 60.2167 454.542 59.5C453.976 58.7833 453.176 58.25 452.142 57.9C452.842 57.5 453.409 57.025 453.842 56.475C454.276 55.9083 454.492 55.25 454.492 54.5C454.492 52.8833 453.967 51.7333 452.917 51.05C451.867 50.35 450.401 50 448.517 50H443.792V67H449.117ZM448.442 51.675C449.792 51.675 450.801 51.875 451.467 52.275C452.151 52.675 452.492 53.425 452.492 54.525C452.492 55.5417 452.084 56.275 451.267 56.725C450.467 57.1583 449.401 57.3833 448.067 57.4H445.767V51.675H448.442ZM449.342 59C450.626 59 451.626 59.2667 452.342 59.8C453.059 60.3333 453.417 61.1583 453.417 62.275C453.417 64.325 451.976 65.35 449.092 65.35H445.767V59H449.342ZM459.763 58.65C460.33 58.0667 461.022 57.5583 461.838 57.125C462.655 56.675 463.397 56.45 464.063 56.45L463.588 54.875C463.005 54.875 462.33 55.0833 461.563 55.5C460.797 55.9167 460.138 56.3583 459.588 56.825L458.963 54.875H457.788V67H459.763V58.65ZM476.919 60.975C476.919 62.2083 476.669 63.3083 476.169 64.275C475.686 65.225 474.986 65.975 474.069 66.525C473.152 67.0583 472.086 67.325 470.869 67.325C469.702 67.325 468.686 67.0583 467.819 66.525C466.952 65.975 466.286 65.2167 465.819 64.25C465.369 63.2667 465.144 62.15 465.144 60.9C465.161 59.6667 465.402 58.575 465.869 57.625C466.352 56.6583 467.044 55.9083 467.944 55.375C468.844 54.825 469.894 54.55 471.094 54.55C472.911 54.55 474.336 55.1333 475.369 56.3C476.402 57.45 476.919 59.0083 476.919 60.975ZM470.969 65.65C472.169 65.65 473.119 65.2167 473.819 64.35C474.519 63.4667 474.877 62.35 474.894 61C474.894 59.5667 474.561 58.4167 473.894 57.55C473.227 56.6667 472.286 56.225 471.069 56.225C469.869 56.225 468.919 56.6667 468.219 57.55C467.519 58.4167 467.161 59.525 467.144 60.875C467.144 62.2917 467.477 63.4417 468.144 64.325C468.811 65.2083 469.752 65.65 470.969 65.65ZM490.697 67L494.272 54.875H492.272L489.722 64.175L487.022 54.875H485.022L482.472 64.175L479.772 54.5L477.972 55.25L481.497 67H483.422L485.997 57.775L488.747 67H490.697ZM498.069 58.4C498.652 57.7667 499.319 57.2417 500.069 56.825C500.836 56.4083 501.519 56.2 502.119 56.2C502.902 56.2 503.461 56.45 503.794 56.95C504.127 57.45 504.294 58.15 504.294 59.05V66.975H506.269V58.775C506.269 57.475 505.952 56.4417 505.319 55.675C504.702 54.8917 503.752 54.5 502.469 54.5C501.702 54.5 500.894 54.7 500.044 55.1C499.194 55.5 498.477 56 497.894 56.6L497.569 54.875H496.094V67H498.069V58.4ZM529.486 65.725L527.436 63.85C528.153 62.5 528.561 60.8333 528.661 58.85L527.061 58.225C526.928 59.975 526.57 61.425 525.986 62.575L521.061 57.95C520.111 57.0667 519.453 56.3667 519.086 55.85C518.72 55.3167 518.536 54.6833 518.536 53.95C518.536 53.2333 518.786 52.6083 519.286 52.075C519.803 51.5417 520.478 51.275 521.311 51.275C521.945 51.275 522.461 51.3417 522.861 51.475C523.278 51.5917 523.645 51.725 523.961 51.875C524.278 52.025 524.495 52.125 524.611 52.175L525.311 50.65C524.645 50.3167 524.003 50.0583 523.386 49.875C522.77 49.6917 522.078 49.6 521.311 49.6C520.345 49.6 519.503 49.8083 518.786 50.225C518.07 50.625 517.52 51.1667 517.136 51.85C516.77 52.5333 516.586 53.2833 516.586 54.1C516.586 55.05 516.845 55.9 517.361 56.65C516.561 57.1833 515.911 57.9083 515.411 58.825C514.928 59.725 514.678 60.7 514.661 61.75C514.661 62.9333 514.936 63.9417 515.486 64.775C516.053 65.6083 516.82 66.2417 517.786 66.675C518.77 67.0917 519.87 67.3083 521.086 67.325C523.353 67.325 525.128 66.6333 526.411 65.25L528.436 67.1L529.486 65.725ZM525.036 63.975C524.086 65.0583 522.77 65.6 521.086 65.6C519.87 65.6 518.828 65.2667 517.961 64.6C517.095 63.9333 516.661 62.9667 516.661 61.7C516.678 60.8667 516.845 60.125 517.161 59.475C517.495 58.8083 517.945 58.2917 518.511 57.925C518.678 58.125 518.986 58.4333 519.436 58.85L525.036 63.975ZM549.446 50.625C548.962 50.325 548.287 50.0917 547.421 49.925C546.554 49.7417 545.812 49.65 545.196 49.65C543.596 49.65 542.187 50.0417 540.971 50.825C539.754 51.6083 538.821 52.6833 538.171 54.05C537.521 55.4 537.196 56.9167 537.196 58.6C537.196 60.2 537.496 61.6667 538.096 63C538.696 64.3333 539.587 65.3917 540.771 66.175C541.954 66.9583 543.379 67.35 545.046 67.35C545.762 67.35 546.546 67.25 547.396 67.05C548.262 66.8667 548.954 66.6417 549.471 66.375L548.721 64.875C548.204 65.1083 547.646 65.2917 547.046 65.425C546.462 65.5583 545.771 65.625 544.971 65.625C543.804 65.625 542.787 65.3167 541.921 64.7C541.054 64.0667 540.396 63.2167 539.946 62.15C539.496 61.0667 539.271 59.875 539.271 58.575C539.271 57.1917 539.529 55.95 540.046 54.85C540.562 53.75 541.271 52.8917 542.171 52.275C543.087 51.6583 544.096 51.35 545.196 51.35C545.979 51.35 546.612 51.4083 547.096 51.525C547.579 51.625 548.154 51.8 548.821 52.05L549.446 50.625ZM552.637 57.1C553.237 56.8333 553.787 56.6333 554.287 56.5C554.803 56.35 555.42 56.275 556.137 56.275C557.053 56.275 557.72 56.5333 558.137 57.05C558.57 57.5667 558.787 58.275 558.787 59.175V59.85H555.662C554.345 59.85 553.287 60.175 552.487 60.825C551.687 61.475 551.287 62.3833 551.287 63.55C551.287 64.6667 551.637 65.575 552.337 66.275C553.053 66.975 554.087 67.325 555.437 67.325C556.07 67.325 556.72 67.175 557.387 66.875C558.053 66.5583 558.612 66.1917 559.062 65.775L559.312 67H560.787V58.625C560.787 57.8417 560.587 57.1417 560.187 56.525C559.787 55.9083 559.228 55.425 558.512 55.075C557.795 54.725 556.978 54.55 556.062 54.55C555.512 54.55 554.812 54.65 553.962 54.85C553.128 55.05 552.495 55.3 552.062 55.6L552.637 57.1ZM553.112 63.55C553.112 62.8833 553.328 62.325 553.762 61.875C554.212 61.4083 554.828 61.175 555.612 61.175H558.812V63.925C558.362 64.4583 557.837 64.8917 557.237 65.225C556.653 65.5583 556.037 65.725 555.387 65.725C554.637 65.725 554.07 65.5083 553.687 65.075C553.303 64.6417 553.112 64.1333 553.112 63.55ZM577.594 54.5C578.827 54.5 579.744 54.8917 580.344 55.675C580.944 56.4417 581.244 57.475 581.244 58.775V66.975H579.269V59.05C579.269 58.15 579.119 57.45 578.819 56.95C578.519 56.45 578.002 56.2 577.269 56.2C576.752 56.2 576.152 56.3917 575.469 56.775C574.802 57.1417 574.177 57.6167 573.594 58.2C573.61 58.3167 573.619 58.5083 573.619 58.775V66.975H571.644V59.05C571.644 58.15 571.494 57.45 571.194 56.95C570.894 56.45 570.377 56.2 569.644 56.2C569.11 56.2 568.477 56.4083 567.744 56.825C567.027 57.2417 566.377 57.7667 565.794 58.4V67H563.819V54.875H565.294L565.619 56.6C566.202 56 566.894 55.5 567.694 55.1C568.51 54.7 569.277 54.5 569.994 54.5C570.81 54.5 571.485 54.6833 572.019 55.05C572.569 55.4167 572.977 55.9333 573.244 56.6C573.827 56 574.519 55.5 575.319 55.1C576.119 54.7 576.877 54.5 577.594 54.5ZM589.228 54.55C591.028 54.55 592.436 55.1417 593.453 56.325C594.486 57.4917 595.003 59.0417 595.003 60.975C595.003 62.2083 594.761 63.3083 594.278 64.275C593.811 65.225 593.136 65.975 592.253 66.525C591.386 67.0583 590.361 67.325 589.178 67.325C588.294 67.325 587.369 67.0167 586.403 66.4V72.2L584.428 72.475V54.875H585.603L586.028 55.725C586.528 55.3583 587.061 55.075 587.628 54.875C588.194 54.6583 588.728 54.55 589.228 54.55ZM589.228 65.65C590.428 65.65 591.353 65.2167 592.003 64.35C592.653 63.4833 592.986 62.3667 593.003 61C593.003 59.5667 592.678 58.4167 592.028 57.55C591.394 56.6667 590.469 56.225 589.253 56.225C588.653 56.225 588.128 56.3167 587.678 56.5C587.228 56.6833 586.803 56.9667 586.403 57.35V64.575C586.803 64.925 587.228 65.1917 587.678 65.375C588.128 65.5583 588.644 65.65 589.228 65.65ZM602.462 54.55C604.262 54.55 605.671 55.1417 606.687 56.325C607.721 57.4917 608.237 59.0417 608.237 60.975C608.237 62.2083 607.996 63.3083 607.512 64.275C607.046 65.225 606.371 65.975 605.487 66.525C604.621 67.0583 603.596 67.325 602.412 67.325C601.912 67.325 601.379 67.2167 600.812 67C600.262 66.8 599.746 66.5083 599.262 66.125L598.837 67H597.662V49.6L599.637 49.35V55.475C600.087 55.175 600.562 54.95 601.062 54.8C601.562 54.6333 602.029 54.55 602.462 54.55ZM602.462 65.65C603.662 65.65 604.587 65.2167 605.237 64.35C605.887 63.4833 606.221 62.3667 606.237 61C606.237 59.5667 605.912 58.4167 605.262 57.55C604.629 56.6667 603.704 56.225 602.487 56.225C601.887 56.225 601.362 56.3167 600.912 56.5C600.462 56.6833 600.037 56.9667 599.637 57.35V64.575C600.037 64.925 600.462 65.1917 600.912 65.375C601.362 65.5583 601.879 65.65 602.462 65.65ZM620.72 61.25C620.72 59.25 620.295 57.6333 619.445 56.4C618.611 55.1667 617.311 54.55 615.545 54.55C614.378 54.55 613.361 54.825 612.495 55.375C611.645 55.9083 610.995 56.6583 610.545 57.625C610.111 58.575 609.895 59.6667 609.895 60.9C609.895 62.85 610.436 64.4083 611.52 65.575C612.603 66.7417 614.178 67.325 616.245 67.325C617.078 67.325 617.836 67.2167 618.52 67C619.203 66.7667 619.886 66.4583 620.57 66.075L619.945 64.625C619.195 64.9917 618.545 65.2583 617.995 65.425C617.461 65.5917 616.87 65.675 616.22 65.675C614.786 65.675 613.72 65.2833 613.02 64.5C612.336 63.7 611.97 62.6167 611.92 61.25H620.72ZM611.97 59.9C612.086 58.7667 612.436 57.875 613.02 57.225C613.62 56.5583 614.436 56.225 615.47 56.225C617.386 56.225 618.486 57.45 618.77 59.9H611.97ZM625.345 67V49.35L623.37 49.6V67H625.345ZM630.936 67V49.35L628.961 49.6V67H630.936Z" fill="#FDFDFD"/>
<path d="M219.503 121L214.853 138H212.953L209.053 123.95L205.378 138H203.478L198.578 121.125L200.528 120.825L204.453 135.3L208.128 121H210.053L213.903 135.3L217.603 121H219.503ZM231.414 132.25C231.414 130.25 230.989 128.633 230.139 127.4C229.305 126.167 228.005 125.55 226.239 125.55C225.072 125.55 224.055 125.825 223.189 126.375C222.339 126.908 221.689 127.658 221.239 128.625C220.805 129.575 220.589 130.667 220.589 131.9C220.589 133.85 221.13 135.408 222.214 136.575C223.297 137.742 224.872 138.325 226.939 138.325C227.772 138.325 228.53 138.217 229.214 138C229.897 137.767 230.58 137.458 231.264 137.075L230.639 135.625C229.889 135.992 229.239 136.258 228.689 136.425C228.155 136.592 227.564 136.675 226.914 136.675C225.48 136.675 224.414 136.283 223.714 135.5C223.03 134.7 222.664 133.617 222.614 132.25H231.414ZM222.664 130.9C222.78 129.767 223.13 128.875 223.714 128.225C224.314 127.558 225.13 127.225 226.164 127.225C228.08 127.225 229.18 128.45 229.464 130.9H222.664ZM250.674 131.975C250.674 133.208 250.424 134.308 249.924 135.275C249.441 136.225 248.741 136.975 247.824 137.525C246.908 138.058 245.841 138.325 244.624 138.325C243.458 138.325 242.441 138.058 241.574 137.525C240.708 136.975 240.041 136.217 239.574 135.25C239.124 134.267 238.899 133.15 238.899 131.9C238.916 130.667 239.158 129.575 239.624 128.625C240.108 127.658 240.799 126.908 241.699 126.375C242.599 125.825 243.649 125.55 244.849 125.55C246.666 125.55 248.091 126.133 249.124 127.3C250.158 128.45 250.674 130.008 250.674 131.975ZM244.724 136.65C245.924 136.65 246.874 136.217 247.574 135.35C248.274 134.467 248.633 133.35 248.649 132C248.649 130.567 248.316 129.417 247.649 128.55C246.983 127.667 246.041 127.225 244.824 127.225C243.624 127.225 242.674 127.667 241.974 128.55C241.274 129.417 240.916 130.525 240.899 131.875C240.899 133.292 241.233 134.442 241.899 135.325C242.566 136.208 243.508 136.65 244.724 136.65ZM253.728 127.575V138H255.703V127.575H258.578L257.928 126.075H255.703V124.3C255.703 122.917 256.269 122.225 257.403 122.225C257.569 122.225 257.761 122.25 257.978 122.3C258.194 122.35 258.369 122.408 258.503 122.475L258.953 120.875C258.736 120.758 258.461 120.658 258.128 120.575C257.794 120.492 257.461 120.45 257.128 120.45C256.078 120.45 255.244 120.792 254.628 121.475C254.028 122.142 253.728 123.042 253.728 124.175V126.075H251.878L251.903 127.575H253.728ZM261.198 127.575V138H263.173V127.575H266.048L265.398 126.075H263.173V124.3C263.173 122.917 263.74 122.225 264.873 122.225C265.04 122.225 265.232 122.25 265.448 122.3C265.665 122.35 265.84 122.408 265.973 122.475L266.423 120.875C266.207 120.758 265.932 120.658 265.598 120.575C265.265 120.492 264.932 120.45 264.598 120.45C263.548 120.45 262.715 120.792 262.098 121.475C261.498 122.142 261.198 123.042 261.198 124.175V126.075H259.348L259.373 127.575H261.198ZM278.069 132.25C278.069 130.25 277.644 128.633 276.794 127.4C275.961 126.167 274.661 125.55 272.894 125.55C271.727 125.55 270.711 125.825 269.844 126.375C268.994 126.908 268.344 127.658 267.894 128.625C267.461 129.575 267.244 130.667 267.244 131.9C267.244 133.85 267.786 135.408 268.869 136.575C269.952 137.742 271.527 138.325 273.594 138.325C274.427 138.325 275.186 138.217 275.869 138C276.552 137.767 277.236 137.458 277.919 137.075L277.294 135.625C276.544 135.992 275.894 136.258 275.344 136.425C274.811 136.592 274.219 136.675 273.569 136.675C272.136 136.675 271.069 136.283 270.369 135.5C269.686 134.7 269.319 133.617 269.269 132.25H278.069ZM269.319 130.9C269.436 129.767 269.786 128.875 270.369 128.225C270.969 127.558 271.786 127.225 272.819 127.225C274.736 127.225 275.836 128.45 276.119 130.9H269.319ZM282.445 129.65C283.011 129.067 283.703 128.558 284.52 128.125C285.336 127.675 286.078 127.45 286.745 127.45L286.27 125.875C285.686 125.875 285.011 126.083 284.245 126.5C283.478 126.917 282.82 127.358 282.27 127.825L281.645 125.875H280.47V138H282.445V129.65ZM295.435 128.1C296.035 127.833 296.585 127.633 297.085 127.5C297.602 127.35 298.218 127.275 298.935 127.275C299.852 127.275 300.518 127.533 300.935 128.05C301.368 128.567 301.585 129.275 301.585 130.175V130.85H298.46C297.143 130.85 296.085 131.175 295.285 131.825C294.485 132.475 294.085 133.383 294.085 134.55C294.085 135.667 294.435 136.575 295.135 137.275C295.852 137.975 296.885 138.325 298.235 138.325C298.868 138.325 299.518 138.175 300.185 137.875C300.852 137.558 301.41 137.192 301.86 136.775L302.11 138H303.585V129.625C303.585 128.842 303.385 128.142 302.985 127.525C302.585 126.908 302.027 126.425 301.31 126.075C300.593 125.725 299.777 125.55 298.86 125.55C298.31 125.55 297.61 125.65 296.76 125.85C295.927 126.05 295.293 126.3 294.86 126.6L295.435 128.1ZM295.91 134.55C295.91 133.883 296.127 133.325 296.56 132.875C297.01 132.408 297.627 132.175 298.41 132.175H301.61V134.925C301.16 135.458 300.635 135.892 300.035 136.225C299.452 136.558 298.835 136.725 298.185 136.725C297.435 136.725 296.868 136.508 296.485 136.075C296.102 135.642 295.91 135.133 295.91 134.55ZM317.502 125.55C319.302 125.55 320.71 126.142 321.727 127.325C322.76 128.492 323.277 130.042 323.277 131.975C323.277 133.208 323.035 134.308 322.552 135.275C322.085 136.225 321.41 136.975 320.527 137.525C319.66 138.058 318.635 138.325 317.452 138.325C316.952 138.325 316.419 138.217 315.852 138C315.302 137.8 314.785 137.508 314.302 137.125L313.877 138H312.702V120.6L314.677 120.35V126.475C315.127 126.175 315.602 125.95 316.102 125.8C316.602 125.633 317.069 125.55 317.502 125.55ZM317.502 136.65C318.702 136.65 319.627 136.217 320.277 135.35C320.927 134.483 321.26 133.367 321.277 132C321.277 130.567 320.952 129.417 320.302 128.55C319.669 127.667 318.744 127.225 317.527 127.225C316.927 127.225 316.402 127.317 315.952 127.5C315.502 127.683 315.077 127.967 314.677 128.35V135.575C315.077 135.925 315.502 136.192 315.952 136.375C316.402 136.558 316.919 136.65 317.502 136.65ZM327.659 129.65C328.226 129.067 328.918 128.558 329.734 128.125C330.551 127.675 331.293 127.45 331.959 127.45L331.484 125.875C330.901 125.875 330.226 126.083 329.459 126.5C328.693 126.917 328.034 127.358 327.484 127.825L326.859 125.875H325.684V138H327.659V129.65ZM344.815 131.975C344.815 133.208 344.565 134.308 344.065 135.275C343.582 136.225 342.882 136.975 341.965 137.525C341.048 138.058 339.982 138.325 338.765 138.325C337.598 138.325 336.582 138.058 335.715 137.525C334.848 136.975 334.182 136.217 333.715 135.25C333.265 134.267 333.04 133.15 333.04 131.9C333.057 130.667 333.298 129.575 333.765 128.625C334.248 127.658 334.94 126.908 335.84 126.375C336.74 125.825 337.79 125.55 338.99 125.55C340.807 125.55 342.232 126.133 343.265 127.3C344.298 128.45 344.815 130.008 344.815 131.975ZM338.865 136.65C340.065 136.65 341.015 136.217 341.715 135.35C342.415 134.467 342.773 133.35 342.79 132C342.79 130.567 342.457 129.417 341.79 128.55C341.123 127.667 340.182 127.225 338.965 127.225C337.765 127.225 336.815 127.667 336.115 128.55C335.415 129.417 335.057 130.525 335.04 131.875C335.04 133.292 335.373 134.442 336.04 135.325C336.707 136.208 337.648 136.65 338.865 136.65ZM348.218 128.1C348.818 127.833 349.368 127.633 349.868 127.5C350.385 127.35 351.001 127.275 351.718 127.275C352.635 127.275 353.301 127.533 353.718 128.05C354.151 128.567 354.368 129.275 354.368 130.175V130.85H351.243C349.926 130.85 348.868 131.175 348.068 131.825C347.268 132.475 346.868 133.383 346.868 134.55C346.868 135.667 347.218 136.575 347.918 137.275C348.635 137.975 349.668 138.325 351.018 138.325C351.651 138.325 352.301 138.175 352.968 137.875C353.635 137.558 354.193 137.192 354.643 136.775L354.893 138H356.368V129.625C356.368 128.842 356.168 128.142 355.768 127.525C355.368 126.908 354.81 126.425 354.093 126.075C353.376 125.725 352.56 125.55 351.643 125.55C351.093 125.55 350.393 125.65 349.543 125.85C348.71 126.05 348.076 126.3 347.643 126.6L348.218 128.1ZM348.693 134.55C348.693 133.883 348.91 133.325 349.343 132.875C349.793 132.408 350.41 132.175 351.193 132.175H354.393V134.925C353.943 135.458 353.418 135.892 352.818 136.225C352.235 136.558 351.618 136.725 350.968 136.725C350.218 136.725 349.651 136.508 349.268 136.075C348.885 135.642 348.693 135.133 348.693 134.55ZM369.275 120.375V138H368.075L367.7 137.075C367.2 137.475 366.659 137.783 366.075 138C365.492 138.217 364.942 138.325 364.425 138.325C362.625 138.325 361.209 137.742 360.175 136.575C359.159 135.392 358.65 133.825 358.65 131.875C358.65 130.642 358.884 129.55 359.35 128.6C359.834 127.633 360.509 126.883 361.375 126.35C362.259 125.817 363.292 125.55 364.475 125.55C364.909 125.55 365.367 125.633 365.85 125.8C366.35 125.967 366.825 126.192 367.275 126.475V120.6L369.275 120.375ZM364.4 136.65C365 136.65 365.525 136.558 365.975 136.375C366.442 136.175 366.875 135.875 367.275 135.475V128.3C366.475 127.583 365.525 127.225 364.425 127.225C363.225 127.225 362.3 127.658 361.65 128.525C361 129.375 360.667 130.483 360.65 131.85C360.65 133.3 360.967 134.467 361.6 135.35C362.25 136.217 363.184 136.65 364.4 136.65ZM380.467 129.65C381.034 129.067 381.725 128.558 382.542 128.125C383.359 127.675 384.1 127.45 384.767 127.45L384.292 125.875C383.709 125.875 383.034 126.083 382.267 126.5C381.5 126.917 380.842 127.358 380.292 127.825L379.667 125.875H378.492V138H380.467V129.65ZM387.622 128.1C388.222 127.833 388.772 127.633 389.272 127.5C389.789 127.35 390.406 127.275 391.122 127.275C392.039 127.275 392.706 127.533 393.122 128.05C393.556 128.567 393.772 129.275 393.772 130.175V130.85H390.647C389.331 130.85 388.272 131.175 387.472 131.825C386.672 132.475 386.272 133.383 386.272 134.55C386.272 135.667 386.622 136.575 387.322 137.275C388.039 137.975 389.072 138.325 390.422 138.325C391.056 138.325 391.706 138.175 392.372 137.875C393.039 137.558 393.597 137.192 394.047 136.775L394.297 138H395.772V129.625C395.772 128.842 395.572 128.142 395.172 127.525C394.772 126.908 394.214 126.425 393.497 126.075C392.781 125.725 391.964 125.55 391.047 125.55C390.497 125.55 389.797 125.65 388.947 125.85C388.114 126.05 387.481 126.3 387.047 126.6L387.622 128.1ZM388.097 134.55C388.097 133.883 388.314 133.325 388.747 132.875C389.197 132.408 389.814 132.175 390.597 132.175H393.797V134.925C393.347 135.458 392.822 135.892 392.222 136.225C391.639 136.558 391.022 136.725 390.372 136.725C389.622 136.725 389.056 136.508 388.672 136.075C388.289 135.642 388.097 135.133 388.097 134.55ZM400.779 129.4C401.363 128.767 402.029 128.242 402.779 127.825C403.546 127.408 404.229 127.2 404.829 127.2C405.613 127.2 406.171 127.45 406.504 127.95C406.838 128.45 407.004 129.15 407.004 130.05V137.975H408.979V129.775C408.979 128.475 408.663 127.442 408.029 126.675C407.413 125.892 406.463 125.5 405.179 125.5C404.413 125.5 403.604 125.7 402.754 126.1C401.904 126.5 401.188 127 400.604 127.6L400.279 125.875H398.804V138H400.779V129.4ZM421.912 125.875V139.325C421.912 140.175 421.695 140.933 421.262 141.6C420.829 142.267 420.195 142.792 419.362 143.175C418.529 143.558 417.554 143.75 416.437 143.75C415.87 143.75 415.145 143.642 414.262 143.425C413.395 143.225 412.712 142.967 412.212 142.65L412.812 141.2C413.462 141.517 414.037 141.75 414.537 141.9C415.054 142.05 415.662 142.125 416.362 142.125C417.412 142.125 418.262 141.883 418.912 141.4C419.579 140.917 419.912 140.217 419.912 139.3V137.375C419.462 137.675 418.979 137.908 418.462 138.075C417.962 138.242 417.495 138.325 417.062 138.325C415.262 138.325 413.845 137.742 412.812 136.575C411.795 135.392 411.287 133.825 411.287 131.875C411.287 130.642 411.52 129.55 411.987 128.6C412.47 127.633 413.145 126.883 414.012 126.35C414.895 125.817 415.929 125.55 417.112 125.55C417.612 125.55 418.145 125.658 418.712 125.875C419.279 126.092 419.804 126.383 420.287 126.75L420.712 125.875H421.912ZM417.037 136.65C417.637 136.65 418.162 136.558 418.612 136.375C419.079 136.175 419.512 135.875 419.912 135.475V128.3C419.112 127.583 418.162 127.225 417.062 127.225C415.862 127.225 414.937 127.658 414.287 128.525C413.637 129.375 413.304 130.483 413.287 131.85C413.287 133.3 413.604 134.467 414.237 135.35C414.887 136.217 415.82 136.65 417.037 136.65ZM435.271 132.25C435.271 130.25 434.846 128.633 433.996 127.4C433.163 126.167 431.863 125.55 430.096 125.55C428.929 125.55 427.913 125.825 427.046 126.375C426.196 126.908 425.546 127.658 425.096 128.625C424.663 129.575 424.446 130.667 424.446 131.9C424.446 133.85 424.988 135.408 426.071 136.575C427.154 137.742 428.729 138.325 430.796 138.325C431.629 138.325 432.388 138.217 433.071 138C433.754 137.767 434.438 137.458 435.121 137.075L434.496 135.625C433.746 135.992 433.096 136.258 432.546 136.425C432.013 136.592 431.421 136.675 430.771 136.675C429.338 136.675 428.271 136.283 427.571 135.5C426.888 134.7 426.521 133.617 426.471 132.25H435.271ZM426.521 130.9C426.638 129.767 426.988 128.875 427.571 128.225C428.171 127.558 428.988 127.225 430.021 127.225C431.938 127.225 433.038 128.45 433.321 130.9H426.521ZM454.532 131.975C454.532 133.208 454.282 134.308 453.782 135.275C453.298 136.225 452.598 136.975 451.682 137.525C450.765 138.058 449.698 138.325 448.482 138.325C447.315 138.325 446.298 138.058 445.432 137.525C444.565 136.975 443.898 136.217 443.432 135.25C442.982 134.267 442.757 133.15 442.757 131.9C442.773 130.667 443.015 129.575 443.482 128.625C443.965 127.658 444.657 126.908 445.557 126.375C446.457 125.825 447.507 125.55 448.707 125.55C450.523 125.55 451.948 126.133 452.982 127.3C454.015 128.45 454.532 130.008 454.532 131.975ZM448.582 136.65C449.782 136.65 450.732 136.217 451.432 135.35C452.132 134.467 452.49 133.35 452.507 132C452.507 130.567 452.173 129.417 451.507 128.55C450.84 127.667 449.898 127.225 448.682 127.225C447.482 127.225 446.532 127.667 445.832 128.55C445.132 129.417 444.773 130.525 444.757 131.875C444.757 133.292 445.09 134.442 445.757 135.325C446.423 136.208 447.365 136.65 448.582 136.65ZM457.585 127.575V138H459.56V127.575H462.435L461.785 126.075H459.56V124.3C459.56 122.917 460.127 122.225 461.26 122.225C461.427 122.225 461.618 122.25 461.835 122.3C462.052 122.35 462.227 122.408 462.36 122.475L462.81 120.875C462.593 120.758 462.318 120.658 461.985 120.575C461.652 120.492 461.318 120.45 460.985 120.45C459.935 120.45 459.102 120.792 458.485 121.475C457.885 122.142 457.585 123.042 457.585 124.175V126.075H455.735L455.76 127.575H457.585ZM469.591 137.3C470.041 137.617 470.657 137.867 471.441 138.05C472.224 138.233 472.899 138.325 473.466 138.325C475.032 138.325 476.232 138.017 477.066 137.4C477.916 136.783 478.341 135.917 478.341 134.8C478.341 133.233 476.982 131.95 474.266 130.95C473.366 130.65 472.674 130.342 472.191 130.025C471.707 129.708 471.457 129.333 471.441 128.9C471.441 128.383 471.674 127.967 472.141 127.65C472.624 127.317 473.241 127.15 473.991 127.15C474.607 127.15 475.157 127.225 475.641 127.375C476.124 127.525 476.641 127.725 477.191 127.975L477.816 126.625C477.382 126.308 476.782 126.05 476.016 125.85C475.266 125.65 474.607 125.55 474.041 125.55C472.641 125.55 471.532 125.858 470.716 126.475C469.916 127.075 469.516 127.908 469.516 128.975C469.516 129.858 469.882 130.583 470.616 131.15C471.349 131.717 472.299 132.192 473.466 132.575C475.466 133.242 476.466 134.025 476.466 134.925C476.466 135.492 476.199 135.933 475.666 136.25C475.132 136.567 474.407 136.725 473.491 136.725C472.441 136.725 471.349 136.442 470.216 135.875L469.591 137.3ZM490.789 132.25C490.789 130.25 490.364 128.633 489.514 127.4C488.68 126.167 487.38 125.55 485.614 125.55C484.447 125.55 483.43 125.825 482.564 126.375C481.714 126.908 481.064 127.658 480.614 128.625C480.18 129.575 479.964 130.667 479.964 131.9C479.964 133.85 480.505 135.408 481.589 136.575C482.672 137.742 484.247 138.325 486.314 138.325C487.147 138.325 487.905 138.217 488.589 138C489.272 137.767 489.955 137.458 490.639 137.075L490.014 135.625C489.264 135.992 488.614 136.258 488.064 136.425C487.53 136.592 486.939 136.675 486.289 136.675C484.855 136.675 483.789 136.283 483.089 135.5C482.405 134.7 482.039 133.617 481.989 132.25H490.789ZM482.039 130.9C482.155 129.767 482.505 128.875 483.089 128.225C483.689 127.558 484.505 127.225 485.539 127.225C487.455 127.225 488.555 128.45 488.839 130.9H482.039ZM495.164 129.65C495.731 129.067 496.423 128.558 497.239 128.125C498.056 127.675 498.798 127.45 499.464 127.45L498.989 125.875C498.406 125.875 497.731 126.083 496.964 126.5C496.198 126.917 495.539 127.358 494.989 127.825L494.364 125.875H493.189V138H495.164V129.65ZM506.345 138L510.87 125.875H508.87L505.395 135.325L501.77 125.475L499.97 126.225L504.42 138H506.345ZM513.671 123.45C514.038 123.45 514.354 123.325 514.621 123.075C514.888 122.808 515.021 122.492 515.021 122.125C515.021 121.758 514.888 121.442 514.621 121.175C514.354 120.908 514.038 120.775 513.671 120.775C513.288 120.775 512.971 120.908 512.721 121.175C512.471 121.425 512.346 121.742 512.346 122.125C512.346 122.508 512.471 122.825 512.721 123.075C512.971 123.325 513.288 123.45 513.671 123.45ZM514.696 138V125.875H512.696V138H514.696ZM526.273 135.8C525.69 136.1 525.165 136.317 524.698 136.45C524.231 136.583 523.631 136.65 522.898 136.65C521.681 136.65 520.74 136.208 520.073 135.325C519.406 134.442 519.073 133.292 519.073 131.875C519.09 130.525 519.448 129.417 520.148 128.55C520.848 127.667 521.798 127.225 522.998 127.225C523.698 127.225 524.265 127.292 524.698 127.425C525.148 127.558 525.706 127.767 526.373 128.05L526.973 126.65C526.49 126.333 525.848 126.075 525.048 125.875C524.265 125.658 523.598 125.55 523.048 125.55C521.848 125.55 520.798 125.825 519.898 126.375C518.998 126.908 518.298 127.658 517.798 128.625C517.315 129.575 517.073 130.667 517.073 131.9C517.073 133.15 517.306 134.267 517.773 135.25C518.24 136.217 518.915 136.975 519.798 137.525C520.681 138.058 521.723 138.325 522.923 138.325C523.473 138.325 524.148 138.217 524.948 138C525.748 137.8 526.398 137.542 526.898 137.225L526.273 135.8ZM539.348 132.25C539.348 130.25 538.923 128.633 538.073 127.4C537.24 126.167 535.94 125.55 534.173 125.55C533.007 125.55 531.99 125.825 531.123 126.375C530.273 126.908 529.623 127.658 529.173 128.625C528.74 129.575 528.523 130.667 528.523 131.9C528.523 133.85 529.065 135.408 530.148 136.575C531.232 137.742 532.807 138.325 534.873 138.325C535.707 138.325 536.465 138.217 537.148 138C537.832 137.767 538.515 137.458 539.198 137.075L538.573 135.625C537.823 135.992 537.173 136.258 536.623 136.425C536.09 136.592 535.498 136.675 534.848 136.675C533.415 136.675 532.348 136.283 531.648 135.5C530.965 134.7 530.598 133.617 530.548 132.25H539.348ZM530.598 130.9C530.715 129.767 531.065 128.875 531.648 128.225C532.248 127.558 533.065 127.225 534.098 127.225C536.015 127.225 537.115 128.45 537.398 130.9H530.598ZM541.124 137.3C541.574 137.617 542.19 137.867 542.974 138.05C543.757 138.233 544.432 138.325 544.999 138.325C546.565 138.325 547.765 138.017 548.599 137.4C549.449 136.783 549.874 135.917 549.874 134.8C549.874 133.233 548.515 131.95 545.799 130.95C544.899 130.65 544.207 130.342 543.724 130.025C543.24 129.708 542.99 129.333 542.974 128.9C542.974 128.383 543.207 127.967 543.674 127.65C544.157 127.317 544.774 127.15 545.524 127.15C546.14 127.15 546.69 127.225 547.174 127.375C547.657 127.525 548.174 127.725 548.724 127.975L549.349 126.625C548.915 126.308 548.315 126.05 547.549 125.85C546.799 125.65 546.14 125.55 545.574 125.55C544.174 125.55 543.065 125.858 542.249 126.475C541.449 127.075 541.049 127.908 541.049 128.975C541.049 129.858 541.415 130.583 542.149 131.15C542.882 131.717 543.832 132.192 544.999 132.575C546.999 133.242 547.999 134.025 547.999 134.925C547.999 135.492 547.732 135.933 547.199 136.25C546.665 136.567 545.94 136.725 545.024 136.725C543.974 136.725 542.882 136.442 541.749 135.875L541.124 137.3Z" fill="#FDFDFD"/>
<path d="M351.2 210.425H343.3V195H341.325V212H351.4L351.2 210.425ZM354.196 197.45C354.563 197.45 354.88 197.325 355.146 197.075C355.413 196.808 355.546 196.492 355.546 196.125C355.546 195.758 355.413 195.442 355.146 195.175C354.88 194.908 354.563 194.775 354.196 194.775C353.813 194.775 353.496 194.908 353.246 195.175C352.996 195.425 352.871 195.742 352.871 196.125C352.871 196.508 352.996 196.825 353.246 197.075C353.496 197.325 353.813 197.45 354.196 197.45ZM355.221 212V199.875H353.221V212H355.221ZM360.923 200.075V196.425L358.948 196.975V200.075H357.173L357.198 201.575H358.948V208.85C358.948 209.983 359.248 210.858 359.848 211.475C360.465 212.075 361.298 212.375 362.348 212.375C362.982 212.375 363.598 212.233 364.198 211.95L363.748 210.4C363.332 210.567 362.965 210.65 362.648 210.65C362.065 210.65 361.632 210.467 361.348 210.1C361.065 209.733 360.923 209.225 360.923 208.575V201.575H363.773L363.123 200.075H360.923ZM367.331 197.45C367.698 197.45 368.015 197.325 368.281 197.075C368.548 196.808 368.681 196.492 368.681 196.125C368.681 195.758 368.548 195.442 368.281 195.175C368.015 194.908 367.698 194.775 367.331 194.775C366.948 194.775 366.631 194.908 366.381 195.175C366.131 195.425 366.006 195.742 366.006 196.125C366.006 196.508 366.131 196.825 366.381 197.075C366.631 197.325 366.948 197.45 367.331 197.45ZM368.356 212V199.875H366.356V212H368.356ZM381.358 199.875V213.325C381.358 214.175 381.142 214.933 380.708 215.6C380.275 216.267 379.642 216.792 378.808 217.175C377.975 217.558 377 217.75 375.883 217.75C375.317 217.75 374.592 217.642 373.708 217.425C372.842 217.225 372.158 216.967 371.658 216.65L372.258 215.2C372.908 215.517 373.483 215.75 373.983 215.9C374.5 216.05 375.108 216.125 375.808 216.125C376.858 216.125 377.708 215.883 378.358 215.4C379.025 214.917 379.358 214.217 379.358 213.3V211.375C378.908 211.675 378.425 211.908 377.908 212.075C377.408 212.242 376.942 212.325 376.508 212.325C374.708 212.325 373.292 211.742 372.258 210.575C371.242 209.392 370.733 207.825 370.733 205.875C370.733 204.642 370.967 203.55 371.433 202.6C371.917 201.633 372.592 200.883 373.458 200.35C374.342 199.817 375.375 199.55 376.558 199.55C377.058 199.55 377.592 199.658 378.158 199.875C378.725 200.092 379.25 200.383 379.733 200.75L380.158 199.875H381.358ZM376.483 210.65C377.083 210.65 377.608 210.558 378.058 210.375C378.525 210.175 378.958 209.875 379.358 209.475V202.3C378.558 201.583 377.608 201.225 376.508 201.225C375.308 201.225 374.383 201.658 373.733 202.525C373.083 203.375 372.75 204.483 372.733 205.85C372.733 207.3 373.05 208.467 373.683 209.35C374.333 210.217 375.267 210.65 376.483 210.65ZM385.667 202.1C386.267 201.833 386.817 201.633 387.317 201.5C387.834 201.35 388.451 201.275 389.167 201.275C390.084 201.275 390.751 201.533 391.167 202.05C391.601 202.567 391.817 203.275 391.817 204.175V204.85H388.692C387.376 204.85 386.317 205.175 385.517 205.825C384.717 206.475 384.317 207.383 384.317 208.55C384.317 209.667 384.667 210.575 385.367 211.275C386.084 211.975 387.117 212.325 388.467 212.325C389.101 212.325 389.751 212.175 390.417 211.875C391.084 211.558 391.642 211.192 392.092 210.775L392.342 212H393.817V203.625C393.817 202.842 393.617 202.142 393.217 201.525C392.817 200.908 392.259 200.425 391.542 200.075C390.826 199.725 390.009 199.55 389.092 199.55C388.542 199.55 387.842 199.65 386.992 199.85C386.159 200.05 385.526 200.3 385.092 200.6L385.667 202.1ZM386.142 208.55C386.142 207.883 386.359 207.325 386.792 206.875C387.242 206.408 387.859 206.175 388.642 206.175H391.842V208.925C391.392 209.458 390.867 209.892 390.267 210.225C389.684 210.558 389.067 210.725 388.417 210.725C387.667 210.725 387.101 210.508 386.717 210.075C386.334 209.642 386.142 209.133 386.142 208.55ZM399.424 200.075V196.425L397.449 196.975V200.075H395.674L395.699 201.575H397.449V208.85C397.449 209.983 397.749 210.858 398.349 211.475C398.966 212.075 399.799 212.375 400.849 212.375C401.483 212.375 402.099 212.233 402.699 211.95L402.249 210.4C401.833 210.567 401.466 210.65 401.149 210.65C400.566 210.65 400.133 210.467 399.849 210.1C399.566 209.733 399.424 209.225 399.424 208.575V201.575H402.274L401.624 200.075H399.424ZM405.832 197.45C406.199 197.45 406.516 197.325 406.782 197.075C407.049 196.808 407.182 196.492 407.182 196.125C407.182 195.758 407.049 195.442 406.782 195.175C406.516 194.908 406.199 194.775 405.832 194.775C405.449 194.775 405.132 194.908 404.882 195.175C404.632 195.425 404.507 195.742 404.507 196.125C404.507 196.508 404.632 196.825 404.882 197.075C405.132 197.325 405.449 197.45 405.832 197.45ZM406.857 212V199.875H404.857V212H406.857ZM421.009 205.975C421.009 207.208 420.759 208.308 420.259 209.275C419.776 210.225 419.076 210.975 418.159 211.525C417.243 212.058 416.176 212.325 414.959 212.325C413.793 212.325 412.776 212.058 411.909 211.525C411.043 210.975 410.376 210.217 409.909 209.25C409.459 208.267 409.234 207.15 409.234 205.9C409.251 204.667 409.493 203.575 409.959 202.625C410.443 201.658 411.134 200.908 412.034 200.375C412.934 199.825 413.984 199.55 415.184 199.55C417.001 199.55 418.426 200.133 419.459 201.3C420.493 202.45 421.009 204.008 421.009 205.975ZM415.059 210.65C416.259 210.65 417.209 210.217 417.909 209.35C418.609 208.467 418.968 207.35 418.984 206C418.984 204.567 418.651 203.417 417.984 202.55C417.318 201.667 416.376 201.225 415.159 201.225C413.959 201.225 413.009 201.667 412.309 202.55C411.609 203.417 411.251 204.525 411.234 205.875C411.234 207.292 411.568 208.442 412.234 209.325C412.901 210.208 413.843 210.65 415.059 210.65ZM425.363 203.4C425.946 202.767 426.613 202.242 427.363 201.825C428.129 201.408 428.813 201.2 429.413 201.2C430.196 201.2 430.754 201.45 431.088 201.95C431.421 202.45 431.588 203.15 431.588 204.05V211.975H433.563V203.775C433.563 202.475 433.246 201.442 432.613 200.675C431.996 199.892 431.046 199.5 429.763 199.5C428.996 199.5 428.188 199.7 427.338 200.1C426.488 200.5 425.771 201 425.188 201.6L424.863 199.875H423.388V212H425.363V203.4Z" fill="#FDFDFD"/>
<path d="M315.5 197L322.861 202.406H308.139L315.5 197Z" fill="#FDFDFD" fill-opacity="0.8"/>
<rect x="309.312" y="202.712" width="1.36" height="6.8" fill="#FDFDFD" fill-opacity="0.8"/>
<rect x="308.632" y="210.328" width="0.543999" height="13.6" transform="rotate(-90 308.632 210.328)" fill="#FDFDFD" fill-opacity="0.8"/>
<rect x="308.36" y="211.008" width="0.543999" height="14.144" transform="rotate(-90 308.36 211.008)" fill="#FDFDFD" fill-opacity="0.8"/>
<rect x="316.656" y="202.712" width="1.36" height="6.8" fill="#FDFDFD" fill-opacity="0.8"/>
<rect x="320.328" y="202.712" width="1.36" height="6.8" fill="#FDFDFD" fill-opacity="0.8"/>
<rect x="312.984" y="202.712" width="1.36" height="6.8" fill="#FDFDFD" fill-opacity="0.8"/>
<line x1="309.04" y1="202.212" x2="310.944" y2="202.212" stroke="#FDFDFD" stroke-opacity="0.8"/>
<line x1="312.712" y1="202.212" x2="314.616" y2="202.212" stroke="#FDFDFD" stroke-opacity="0.8"/>
<line x1="316.384" y1="202.212" x2="318.288" y2="202.212" stroke="#FDFDFD" stroke-opacity="0.8"/>
<line x1="320.056" y1="202.212" x2="321.96" y2="202.212" stroke="#FDFDFD" stroke-opacity="0.8"/>
<line x1="320.056" y1="209.148" x2="321.96" y2="209.148" stroke="#FDFDFD" stroke-opacity="0.8"/>
<line x1="316.384" y1="209.148" x2="318.288" y2="209.148" stroke="#FDFDFD" stroke-opacity="0.8"/>
<line x1="312.712" y1="209.148" x2="314.616" y2="209.148" stroke="#FDFDFD" stroke-opacity="0.8"/>
<line x1="309.04" y1="209.148" x2="310.944" y2="209.148" stroke="#FDFDFD" stroke-opacity="0.8"/>
<path d="M343.3 253.575H345.7C347.6 253.575 349.158 253.125 350.375 252.225C351.592 251.308 352.208 249.967 352.225 248.2C352.225 246.417 351.658 245.108 350.525 244.275C349.392 243.425 347.867 243 345.95 243H341.325V260H343.3V253.575ZM345.975 244.675C347.358 244.675 348.408 244.95 349.125 245.5C349.842 246.033 350.2 246.958 350.2 248.275C350.167 249.508 349.75 250.425 348.95 251.025C348.15 251.608 347.092 251.9 345.775 251.9H343.3V244.675H345.975ZM364.688 254.25C364.688 252.25 364.263 250.633 363.413 249.4C362.58 248.167 361.28 247.55 359.513 247.55C358.346 247.55 357.33 247.825 356.463 248.375C355.613 248.908 354.963 249.658 354.513 250.625C354.08 251.575 353.863 252.667 353.863 253.9C353.863 255.85 354.405 257.408 355.488 258.575C356.571 259.742 358.146 260.325 360.213 260.325C361.046 260.325 361.805 260.217 362.488 260C363.171 259.767 363.855 259.458 364.538 259.075L363.913 257.625C363.163 257.992 362.513 258.258 361.963 258.425C361.43 258.592 360.838 258.675 360.188 258.675C358.755 258.675 357.688 258.283 356.988 257.5C356.305 256.7 355.938 255.617 355.888 254.25H364.688ZM355.938 252.9C356.055 251.767 356.405 250.875 356.988 250.225C357.588 249.558 358.405 249.225 359.438 249.225C361.355 249.225 362.455 250.45 362.738 252.9H355.938ZM369.064 251.65C369.63 251.067 370.322 250.558 371.139 250.125C371.955 249.675 372.697 249.45 373.364 249.45L372.889 247.875C372.305 247.875 371.63 248.083 370.864 248.5C370.097 248.917 369.439 249.358 368.889 249.825L368.264 247.875H367.089V260H369.064V251.65ZM374.569 259.3C375.019 259.617 375.636 259.867 376.419 260.05C377.202 260.233 377.877 260.325 378.444 260.325C380.011 260.325 381.211 260.017 382.044 259.4C382.894 258.783 383.319 257.917 383.319 256.8C383.319 255.233 381.961 253.95 379.244 252.95C378.344 252.65 377.652 252.342 377.169 252.025C376.686 251.708 376.436 251.333 376.419 250.9C376.419 250.383 376.652 249.967 377.119 249.65C377.602 249.317 378.219 249.15 378.969 249.15C379.586 249.15 380.136 249.225 380.619 249.375C381.102 249.525 381.619 249.725 382.169 249.975L382.794 248.625C382.361 248.308 381.761 248.05 380.994 247.85C380.244 247.65 379.586 247.55 379.019 247.55C377.619 247.55 376.511 247.858 375.694 248.475C374.894 249.075 374.494 249.908 374.494 250.975C374.494 251.858 374.861 252.583 375.594 253.15C376.327 253.717 377.277 254.192 378.444 254.575C380.444 255.242 381.444 256.025 381.444 256.925C381.444 257.492 381.177 257.933 380.644 258.25C380.111 258.567 379.386 258.725 378.469 258.725C377.419 258.725 376.327 258.442 375.194 257.875L374.569 259.3ZM396.717 253.975C396.717 255.208 396.467 256.308 395.967 257.275C395.484 258.225 394.784 258.975 393.867 259.525C392.951 260.058 391.884 260.325 390.667 260.325C389.501 260.325 388.484 260.058 387.617 259.525C386.751 258.975 386.084 258.217 385.617 257.25C385.167 256.267 384.942 255.15 384.942 253.9C384.959 252.667 385.201 251.575 385.667 250.625C386.151 249.658 386.842 248.908 387.742 248.375C388.642 247.825 389.692 247.55 390.892 247.55C392.709 247.55 394.134 248.133 395.167 249.3C396.201 250.45 396.717 252.008 396.717 253.975ZM390.767 258.65C391.967 258.65 392.917 258.217 393.617 257.35C394.317 256.467 394.676 255.35 394.692 254C394.692 252.567 394.359 251.417 393.692 250.55C393.026 249.667 392.084 249.225 390.867 249.225C389.667 249.225 388.717 249.667 388.017 250.55C387.317 251.417 386.959 252.525 386.942 253.875C386.942 255.292 387.276 256.442 387.942 257.325C388.609 258.208 389.551 258.65 390.767 258.65ZM401.071 251.4C401.654 250.767 402.321 250.242 403.071 249.825C403.837 249.408 404.521 249.2 405.121 249.2C405.904 249.2 406.462 249.45 406.796 249.95C407.129 250.45 407.296 251.15 407.296 252.05V259.975H409.271V251.775C409.271 250.475 408.954 249.442 408.321 248.675C407.704 247.892 406.754 247.5 405.471 247.5C404.704 247.5 403.896 247.7 403.046 248.1C402.196 248.5 401.479 249 400.896 249.6L400.571 247.875H399.096V260H401.071V251.4ZM413.353 250.1C413.953 249.833 414.503 249.633 415.003 249.5C415.52 249.35 416.136 249.275 416.853 249.275C417.77 249.275 418.436 249.533 418.853 250.05C419.286 250.567 419.503 251.275 419.503 252.175V252.85H416.378C415.061 252.85 414.003 253.175 413.203 253.825C412.403 254.475 412.003 255.383 412.003 256.55C412.003 257.667 412.353 258.575 413.053 259.275C413.77 259.975 414.803 260.325 416.153 260.325C416.786 260.325 417.436 260.175 418.103 259.875C418.77 259.558 419.328 259.192 419.778 258.775L420.028 260H421.503V251.625C421.503 250.842 421.303 250.142 420.903 249.525C420.503 248.908 419.945 248.425 419.228 248.075C418.511 247.725 417.695 247.55 416.778 247.55C416.228 247.55 415.528 247.65 414.678 247.85C413.845 248.05 413.211 248.3 412.778 248.6L413.353 250.1ZM413.828 256.55C413.828 255.883 414.045 255.325 414.478 254.875C414.928 254.408 415.545 254.175 416.328 254.175H419.528V256.925C419.078 257.458 418.553 257.892 417.953 258.225C417.37 258.558 416.753 258.725 416.103 258.725C415.353 258.725 414.786 258.508 414.403 258.075C414.02 257.642 413.828 257.133 413.828 256.55ZM426.76 260V242.35L424.785 242.6V260H426.76ZM438.686 260V243H436.711V260H438.686ZM444.528 251.4C445.111 250.767 445.778 250.242 446.528 249.825C447.294 249.408 447.978 249.2 448.578 249.2C449.361 249.2 449.919 249.45 450.253 249.95C450.586 250.45 450.753 251.15 450.753 252.05V259.975H452.728V251.775C452.728 250.475 452.411 249.442 451.778 248.675C451.161 247.892 450.211 247.5 448.928 247.5C448.161 247.5 447.353 247.7 446.503 248.1C445.653 248.5 444.936 249 444.353 249.6L444.028 247.875H442.553V260H444.528V251.4ZM457.085 245.45C456.702 245.45 456.377 245.325 456.11 245.075C455.86 244.825 455.735 244.508 455.735 244.125C455.735 243.742 455.86 243.425 456.11 243.175C456.377 242.908 456.702 242.775 457.085 242.775C457.452 242.775 457.768 242.908 458.035 243.175C458.302 243.442 458.435 243.758 458.435 244.125C458.435 244.492 458.302 244.808 458.035 245.075C457.768 245.325 457.452 245.45 457.085 245.45ZM458.085 260.75C458.085 261.667 458.01 262.392 457.86 262.925C457.727 263.458 457.435 263.917 456.985 264.3C456.552 264.683 455.885 265.025 454.985 265.325L454.21 263.9C454.777 263.7 455.193 263.475 455.46 263.225C455.727 262.975 455.902 262.667 455.985 262.3C456.068 261.933 456.102 261.417 456.085 260.75V247.875H458.085V260.75ZM469.573 256.45C468.99 257.083 468.315 257.608 467.548 258.025C466.798 258.442 466.123 258.65 465.523 258.65C464.74 258.65 464.182 258.4 463.848 257.9C463.515 257.4 463.348 256.7 463.348 255.8V247.875H461.373V256.075C461.373 257.375 461.682 258.417 462.298 259.2C462.932 259.967 463.89 260.35 465.173 260.35C465.94 260.35 466.748 260.15 467.598 259.75C468.448 259.35 469.165 258.85 469.748 258.25L470.073 260H471.548V247.85H469.573V256.45ZM476.681 251.65C477.248 251.067 477.939 250.558 478.756 250.125C479.573 249.675 480.314 249.45 480.981 249.45L480.506 247.875C479.923 247.875 479.248 248.083 478.481 248.5C477.714 248.917 477.056 249.358 476.506 249.825L475.881 247.875H474.706V260H476.681V251.65ZM485.236 262C485.053 262.5 484.77 262.875 484.386 263.125C484.02 263.392 483.445 263.708 482.661 264.075L483.261 265.5C484.145 265.317 484.92 264.958 485.586 264.425C486.27 263.892 486.753 263.25 487.036 262.5L492.386 247.875H490.386L486.911 257.25L483.236 247.5L481.486 248.25L485.986 259.925L485.236 262Z" fill="#FDFDFD"/>
<path d="M316.5 245L323.861 250.406H309.139L316.5 245Z" fill="#FDFDFD" fill-opacity="0.8"/>
<rect x="310.312" y="250.712" width="1.36" height="6.8" fill="#FDFDFD" fill-opacity="0.8"/>
<rect x="309.632" y="258.328" width="0.543999" height="13.6" transform="rotate(-90 309.632 258.328)" fill="#FDFDFD" fill-opacity="0.8"/>
<rect x="309.36" y="259.008" width="0.543999" height="14.144" transform="rotate(-90 309.36 259.008)" fill="#FDFDFD" fill-opacity="0.8"/>
<rect x="317.656" y="250.712" width="1.36" height="6.8" fill="#FDFDFD" fill-opacity="0.8"/>
<rect x="321.328" y="250.712" width="1.36" height="6.8" fill="#FDFDFD" fill-opacity="0.8"/>
<rect x="313.984" y="250.712" width="1.36" height="6.8" fill="#FDFDFD" fill-opacity="0.8"/>
<line x1="310.04" y1="250.212" x2="311.944" y2="250.212" stroke="#FDFDFD" stroke-opacity="0.8"/>
<line x1="313.712" y1="250.212" x2="315.616" y2="250.212" stroke="#FDFDFD" stroke-opacity="0.8"/>
<line x1="317.384" y1="250.212" x2="319.288" y2="250.212" stroke="#FDFDFD" stroke-opacity="0.8"/>
<line x1="321.056" y1="250.212" x2="322.96" y2="250.212" stroke="#FDFDFD" stroke-opacity="0.8"/>
<line x1="321.056" y1="257.148" x2="322.96" y2="257.148" stroke="#FDFDFD" stroke-opacity="0.8"/>
<line x1="317.384" y1="257.148" x2="319.288" y2="257.148" stroke="#FDFDFD" stroke-opacity="0.8"/>
<line x1="313.712" y1="257.148" x2="315.616" y2="257.148" stroke="#FDFDFD" stroke-opacity="0.8"/>
<line x1="310.04" y1="257.148" x2="311.944" y2="257.148" stroke="#FDFDFD" stroke-opacity="0.8"/>
<path d="M338.3 301.575H340.7C342.6 301.575 344.158 301.125 345.375 300.225C346.592 299.308 347.208 297.967 347.225 296.2C347.225 294.417 346.658 293.108 345.525 292.275C344.392 291.425 342.867 291 340.95 291H336.325V308H338.3V301.575ZM340.975 292.675C342.358 292.675 343.408 292.95 344.125 293.5C344.842 294.033 345.2 294.958 345.2 296.275C345.167 297.508 344.75 298.425 343.95 299.025C343.15 299.608 342.092 299.9 340.775 299.9H338.3V292.675H340.975ZM351.588 299.65C352.155 299.067 352.846 298.558 353.663 298.125C354.48 297.675 355.221 297.45 355.888 297.45L355.413 295.875C354.83 295.875 354.155 296.083 353.388 296.5C352.621 296.917 351.963 297.358 351.413 297.825L350.788 295.875H349.613V308H351.588V299.65ZM368.744 301.975C368.744 303.208 368.494 304.308 367.994 305.275C367.51 306.225 366.81 306.975 365.894 307.525C364.977 308.058 363.91 308.325 362.694 308.325C361.527 308.325 360.51 308.058 359.644 307.525C358.777 306.975 358.11 306.217 357.644 305.25C357.194 304.267 356.969 303.15 356.969 301.9C356.985 300.667 357.227 299.575 357.694 298.625C358.177 297.658 358.869 296.908 359.769 296.375C360.669 295.825 361.719 295.55 362.919 295.55C364.735 295.55 366.16 296.133 367.194 297.3C368.227 298.45 368.744 300.008 368.744 301.975ZM362.794 306.65C363.994 306.65 364.944 306.217 365.644 305.35C366.344 304.467 366.702 303.35 366.719 302C366.719 300.567 366.385 299.417 365.719 298.55C365.052 297.667 364.11 297.225 362.894 297.225C361.694 297.225 360.744 297.667 360.044 298.55C359.344 299.417 358.985 300.525 358.969 301.875C358.969 303.292 359.302 304.442 359.969 305.325C360.635 306.208 361.577 306.65 362.794 306.65ZM376.172 295.55C377.972 295.55 379.38 296.142 380.397 297.325C381.43 298.492 381.947 300.042 381.947 301.975C381.947 303.208 381.705 304.308 381.222 305.275C380.755 306.225 380.08 306.975 379.197 307.525C378.33 308.058 377.305 308.325 376.122 308.325C375.622 308.325 375.089 308.217 374.522 308C373.972 307.8 373.455 307.508 372.972 307.125L372.547 308H371.372V290.6L373.347 290.35V296.475C373.797 296.175 374.272 295.95 374.772 295.8C375.272 295.633 375.739 295.55 376.172 295.55ZM376.172 306.65C377.372 306.65 378.297 306.217 378.947 305.35C379.597 304.483 379.93 303.367 379.947 302C379.947 300.567 379.622 299.417 378.972 298.55C378.339 297.667 377.414 297.225 376.197 297.225C375.597 297.225 375.072 297.317 374.622 297.5C374.172 297.683 373.747 297.967 373.347 298.35V305.575C373.747 305.925 374.172 306.192 374.622 306.375C375.072 306.558 375.589 306.65 376.172 306.65ZM385.379 298.1C385.979 297.833 386.529 297.633 387.029 297.5C387.546 297.35 388.163 297.275 388.879 297.275C389.796 297.275 390.463 297.533 390.879 298.05C391.313 298.567 391.529 299.275 391.529 300.175V300.85H388.404C387.088 300.85 386.029 301.175 385.229 301.825C384.429 302.475 384.029 303.383 384.029 304.55C384.029 305.667 384.379 306.575 385.079 307.275C385.796 307.975 386.829 308.325 388.179 308.325C388.813 308.325 389.463 308.175 390.129 307.875C390.796 307.558 391.354 307.192 391.804 306.775L392.054 308H393.529V299.625C393.529 298.842 393.329 298.142 392.929 297.525C392.529 296.908 391.971 296.425 391.254 296.075C390.538 295.725 389.721 295.55 388.804 295.55C388.254 295.55 387.554 295.65 386.704 295.85C385.871 296.05 385.238 296.3 384.804 296.6L385.379 298.1ZM385.854 304.55C385.854 303.883 386.071 303.325 386.504 302.875C386.954 302.408 387.571 302.175 388.354 302.175H391.554V304.925C391.104 305.458 390.579 305.892 389.979 306.225C389.396 306.558 388.779 306.725 388.129 306.725C387.379 306.725 386.813 306.508 386.429 306.075C386.046 305.642 385.854 305.133 385.854 304.55ZM399.136 296.075V292.425L397.161 292.975V296.075H395.386L395.411 297.575H397.161V304.85C397.161 305.983 397.461 306.858 398.061 307.475C398.678 308.075 399.511 308.375 400.561 308.375C401.195 308.375 401.811 308.233 402.411 307.95L401.961 306.4C401.545 306.567 401.178 306.65 400.861 306.65C400.278 306.65 399.845 306.467 399.561 306.1C399.278 305.733 399.136 305.225 399.136 304.575V297.575H401.986L401.336 296.075H399.136ZM414.644 302.25C414.644 300.25 414.219 298.633 413.369 297.4C412.536 296.167 411.236 295.55 409.469 295.55C408.302 295.55 407.286 295.825 406.419 296.375C405.569 296.908 404.919 297.658 404.469 298.625C404.036 299.575 403.819 300.667 403.819 301.9C403.819 303.85 404.361 305.408 405.444 306.575C406.527 307.742 408.102 308.325 410.169 308.325C411.002 308.325 411.761 308.217 412.444 308C413.127 307.767 413.811 307.458 414.494 307.075L413.869 305.625C413.119 305.992 412.469 306.258 411.919 306.425C411.386 306.592 410.794 306.675 410.144 306.675C408.711 306.675 407.644 306.283 406.944 305.5C406.261 304.7 405.894 303.617 405.844 302.25H414.644ZM405.894 300.9C406.011 299.767 406.361 298.875 406.944 298.225C407.544 297.558 408.361 297.225 409.394 297.225C411.311 297.225 412.411 298.45 412.694 300.9H405.894Z" fill="#FDFDFD"/>
<path d="M313.5 293L320.861 298.406H306.139L313.5 293Z" fill="#FDFDFD" fill-opacity="0.8"/>
<rect x="307.312" y="298.712" width="1.36" height="6.8" fill="#FDFDFD" fill-opacity="0.8"/>
<rect x="306.632" y="306.328" width="0.543999" height="13.6" transform="rotate(-90 306.632 306.328)" fill="#FDFDFD" fill-opacity="0.8"/>
<rect x="306.36" y="307.008" width="0.543999" height="14.144" transform="rotate(-90 306.36 307.008)" fill="#FDFDFD" fill-opacity="0.8"/>
<rect x="314.656" y="298.712" width="1.36" height="6.8" fill="#FDFDFD" fill-opacity="0.8"/>
<rect x="318.328" y="298.712" width="1.36" height="6.8" fill="#FDFDFD" fill-opacity="0.8"/>
<rect x="310.984" y="298.712" width="1.36" height="6.8" fill="#FDFDFD" fill-opacity="0.8"/>
<line x1="307.04" y1="298.212" x2="308.944" y2="298.212" stroke="#FDFDFD" stroke-opacity="0.8"/>
<line x1="310.712" y1="298.212" x2="312.616" y2="298.212" stroke="#FDFDFD" stroke-opacity="0.8"/>
<line x1="314.384" y1="298.212" x2="316.288" y2="298.212" stroke="#FDFDFD" stroke-opacity="0.8"/>
<line x1="318.056" y1="298.212" x2="319.96" y2="298.212" stroke="#FDFDFD" stroke-opacity="0.8"/>
<line x1="318.056" y1="305.148" x2="319.96" y2="305.148" stroke="#FDFDFD" stroke-opacity="0.8"/>
<line x1="314.384" y1="305.148" x2="316.288" y2="305.148" stroke="#FDFDFD" stroke-opacity="0.8"/>
<line x1="310.712" y1="305.148" x2="312.616" y2="305.148" stroke="#FDFDFD" stroke-opacity="0.8"/>
<line x1="307.04" y1="305.148" x2="308.944" y2="305.148" stroke="#FDFDFD" stroke-opacity="0.8"/>
<path d="M342.125 356C343.742 356 345.117 355.625 346.25 354.875C347.4 354.125 348.267 353.108 348.85 351.825C349.433 350.525 349.725 349.05 349.725 347.4C349.725 344.9 349.108 342.875 347.875 341.325C346.642 339.775 344.775 339 342.275 339H336.325V356H342.125ZM342.375 340.675C344.142 340.675 345.475 341.292 346.375 342.525C347.292 343.758 347.75 345.392 347.75 347.425C347.75 348.842 347.517 350.075 347.05 351.125C346.583 352.158 345.925 352.958 345.075 353.525C344.242 354.075 343.267 354.35 342.15 354.35H338.3V340.675H342.375ZM353.322 341.45C353.689 341.45 354.006 341.325 354.272 341.075C354.539 340.808 354.672 340.492 354.672 340.125C354.672 339.758 354.539 339.442 354.272 339.175C354.006 338.908 353.689 338.775 353.322 338.775C352.939 338.775 352.622 338.908 352.372 339.175C352.122 339.425 351.997 339.742 351.997 340.125C351.997 340.508 352.122 340.825 352.372 341.075C352.622 341.325 352.939 341.45 353.322 341.45ZM354.347 356V343.875H352.347V356H354.347ZM362.524 356L367.049 343.875H365.049L361.574 353.325L357.949 343.475L356.149 344.225L360.599 356H362.524ZM379.901 349.975C379.901 351.208 379.651 352.308 379.151 353.275C378.667 354.225 377.967 354.975 377.051 355.525C376.134 356.058 375.067 356.325 373.851 356.325C372.684 356.325 371.667 356.058 370.801 355.525C369.934 354.975 369.267 354.217 368.801 353.25C368.351 352.267 368.126 351.15 368.126 349.9C368.142 348.667 368.384 347.575 368.851 346.625C369.334 345.658 370.026 344.908 370.926 344.375C371.826 343.825 372.876 343.55 374.076 343.55C375.892 343.55 377.317 344.133 378.351 345.3C379.384 346.45 379.901 348.008 379.901 349.975ZM373.951 354.65C375.151 354.65 376.101 354.217 376.801 353.35C377.501 352.467 377.859 351.35 377.876 350C377.876 348.567 377.542 347.417 376.876 346.55C376.209 345.667 375.267 345.225 374.051 345.225C372.851 345.225 371.901 345.667 371.201 346.55C370.501 347.417 370.142 348.525 370.126 349.875C370.126 351.292 370.459 352.442 371.126 353.325C371.792 354.208 372.734 354.65 373.951 354.65ZM384.254 347.65C384.821 347.067 385.512 346.558 386.329 346.125C387.146 345.675 387.887 345.45 388.554 345.45L388.079 343.875C387.496 343.875 386.821 344.083 386.054 344.5C385.287 344.917 384.629 345.358 384.079 345.825L383.454 343.875H382.279V356H384.254V347.65ZM398.835 353.8C398.251 354.1 397.726 354.317 397.26 354.45C396.793 354.583 396.193 354.65 395.46 354.65C394.243 354.65 393.301 354.208 392.635 353.325C391.968 352.442 391.635 351.292 391.635 349.875C391.651 348.525 392.01 347.417 392.71 346.55C393.41 345.667 394.36 345.225 395.56 345.225C396.26 345.225 396.826 345.292 397.26 345.425C397.71 345.558 398.268 345.767 398.935 346.05L399.535 344.65C399.051 344.333 398.41 344.075 397.61 343.875C396.826 343.658 396.16 343.55 395.61 343.55C394.41 343.55 393.36 343.825 392.46 344.375C391.56 344.908 390.86 345.658 390.36 346.625C389.876 347.575 389.635 348.667 389.635 349.9C389.635 351.15 389.868 352.267 390.335 353.25C390.801 354.217 391.476 354.975 392.36 355.525C393.243 356.058 394.285 356.325 395.485 356.325C396.035 356.325 396.71 356.217 397.51 356C398.31 355.8 398.96 355.542 399.46 355.225L398.835 353.8ZM411.91 350.25C411.91 348.25 411.485 346.633 410.635 345.4C409.801 344.167 408.501 343.55 406.735 343.55C405.568 343.55 404.551 343.825 403.685 344.375C402.835 344.908 402.185 345.658 401.735 346.625C401.301 347.575 401.085 348.667 401.085 349.9C401.085 351.85 401.626 353.408 402.71 354.575C403.793 355.742 405.368 356.325 407.435 356.325C408.268 356.325 409.026 356.217 409.71 356C410.393 355.767 411.076 355.458 411.76 355.075L411.135 353.625C410.385 353.992 409.735 354.258 409.185 354.425C408.651 354.592 408.06 354.675 407.41 354.675C405.976 354.675 404.91 354.283 404.21 353.5C403.526 352.7 403.16 351.617 403.11 350.25H411.91ZM403.16 348.9C403.276 347.767 403.626 346.875 404.21 346.225C404.81 345.558 405.626 345.225 406.66 345.225C408.576 345.225 409.676 346.45 409.96 348.9H403.16Z" fill="#FDFDFD"/>
<path d="M313.5 341L320.861 346.406H306.139L313.5 341Z" fill="#FDFDFD" fill-opacity="0.8"/>
<rect x="307.312" y="346.712" width="1.36" height="6.8" fill="#FDFDFD" fill-opacity="0.8"/>
<rect x="306.632" y="354.328" width="0.543999" height="13.6" transform="rotate(-90 306.632 354.328)" fill="#FDFDFD" fill-opacity="0.8"/>
<rect x="306.36" y="355.008" width="0.543999" height="14.144" transform="rotate(-90 306.36 355.008)" fill="#FDFDFD" fill-opacity="0.8"/>
<rect x="314.656" y="346.712" width="1.36" height="6.8" fill="#FDFDFD" fill-opacity="0.8"/>
<rect x="318.328" y="346.712" width="1.36" height="6.8" fill="#FDFDFD" fill-opacity="0.8"/>
<rect x="310.984" y="346.712" width="1.36" height="6.8" fill="#FDFDFD" fill-opacity="0.8"/>
<line x1="307.04" y1="346.212" x2="308.944" y2="346.212" stroke="#FDFDFD" stroke-opacity="0.8"/>
<line x1="310.712" y1="346.212" x2="312.616" y2="346.212" stroke="#FDFDFD" stroke-opacity="0.8"/>
<line x1="314.384" y1="346.212" x2="316.288" y2="346.212" stroke="#FDFDFD" stroke-opacity="0.8"/>
<line x1="318.056" y1="346.212" x2="319.96" y2="346.212" stroke="#FDFDFD" stroke-opacity="0.8"/>
<line x1="318.056" y1="353.148" x2="319.96" y2="353.148" stroke="#FDFDFD" stroke-opacity="0.8"/>
<line x1="314.384" y1="353.148" x2="316.288" y2="353.148" stroke="#FDFDFD" stroke-opacity="0.8"/>
<line x1="310.712" y1="353.148" x2="312.616" y2="353.148" stroke="#FDFDFD" stroke-opacity="0.8"/>
<line x1="307.04" y1="353.148" x2="308.944" y2="353.148" stroke="#FDFDFD" stroke-opacity="0.8"/>
<defs>
<linearGradient id="paint0_linear" x1="339.146" y1="-5.5" x2="343.825" y2="402.52" gradientUnits="userSpaceOnUse">
<stop stop-color="#004483" stop-opacity="0.85"/>
<stop offset="0.5" stop-color="#004483" stop-opacity="0.45"/>
<stop offset="1" stop-color="#004483" stop-opacity="0.25"/>
</linearGradient>
</defs>
</svg>
